<mxfile host="65bd71144e">
    <diagram id="n_pTTX97HPHZ-SGeBzmD" name="Page-1">
        <mxGraphModel dx="478" dy="382" grid="1" gridSize="10" guides="1" tooltips="1" connect="1" arrows="1" fold="1" page="1" pageScale="1" pageWidth="1100" pageHeight="850" math="0" shadow="0">
            <root>
                <mxCell id="0"/>
                <mxCell id="1" parent="0"/>
                <mxCell id="10" value="" style="rounded=1;whiteSpace=wrap;html=1;arcSize=5;dashed=1;fillColor=#FFFFFF;strokeColor=#666666;fontColor=#333333;" parent="1" vertex="1">
                    <mxGeometry x="470" y="80" width="190" height="170" as="geometry"/>
                </mxCell>
                <mxCell id="2" value="" style="shape=image;verticalLabelPosition=bottom;labelBackgroundColor=#ffffff;verticalAlign=top;aspect=fixed;imageAspect=0;image=data:image/png,iVBORw0KGgoAAAANSUhEUgAAARgAAAHMCAYAAAF5JocjAAAABGdBTUEAALGPC/xhBQAAADhlWElmTU0AKgAAAAgAAYdpAAQAAAABAAAAGgAAAAAAAqACAAQAAAABAAABGKADAAQAAAABAAABzAAAAACZhutKAABAAElEQVR4Ae1dB3gU1fafzW56IKEjRToBqRYQRUUsT0F9+N7zISomJJQklEhRUEApgoqNIiShS4S/iPqelWdBEbABiggqRUFBQHqAEFJ3939OyITN7szunV5y5vv225l7zz3n3N8998ydWzmOLgsg4JCq42CO87KmaXDbbdwz69YxywhjZSyH7ti6dXKSsaV58q67vFKQkUKLGkhC5siHH5ZrnRYXF7KoeEVycnIWsWWV45jLExnyAliZ83RLGeVIQoZnrtU/szKP33BDyKJRqqSkYsrOzpaskMPh2Jient5LqaK6pw+KzKJFi+7+dtiw99XUalkQYxZUZtyVV3rzfvhBTR0CeHXLzn4uIyPjCd+IKsqkSnD1vkyU3IcnJHALz5wp14O5NikRGCxt6ZkzldGGKwPF9TmvTZVi4gN9/2ekpnr3LwOzU+EKZrzIvooySx56yBuxalWl2KSKeLVsCZURk4FCqxSTryIYmauiQfdYtOge5BlMRhVlkFjoav/YY0LBksKGDRv2QagETMoktG3bMBQjNeKZlBk6dOgxNYQJ8Sh58MHKYCZlKqk1uCm76abveLa6KOOKjeXlBfzDWz2VDwyqTOGsWZKbDDxj3/+rXnrpLd9n3/u0tLSd/HMVP5MbHe3lCgv5OI73MxgA6stWzN/Z5frw8pVRBZmihx+uVKS0X7/Ke7xBhvyvSoTIA7j53lLokU0VZTxXXbVWhDcHrfz7O1TkCIWI0fHh0Dz4opPL5eXT8OHB/qso43Q6U8WIX0lPX41xLMyvW7z4VqT1lJXhH/NVRRkp/iQYOsDncxal/bWsoox/pNhzMEHwDrpdLF2ocFcoArH4efPmRWZmZgbYzrJhw5iKUoivKDKlffrMEErAhy3MzCxChBYvXtyZD8PnYKjxdGL/ATnLragxSX41JpiQnytoxWj4eF6J3NzcWC4p6by/jABl+AT+/2KCkI4XJkbDx/vz9H8WLSZ/Qj2eSRkxlAkZeyHDWj3Fcs0SrrnNjIR2DYsiSMPs9HiGQo6NRy1YHJ8+2L+myEhBBZWUjAwm8kdADBk+HNOwXJoiw6KALw0p44uG7z0h44uG771myIzKyYFKJ+2SVbVRhG/15quwUJgUdTRBJnPhwggpSqhCi0gM6tu3skMAn33RUUUIMSEErIKAJD8DHUY/bU1PhwrDdrGO2vLcJPkZKYqggIULFz7OC1L9H8e1AR34Xg99zZ4yRdLsgNAc/ShQGdaBdim0vBhmmxl/7bXeU5s38+mY/6XYDbPNyFEENYZiZZ4qwowMa/EIQcaKDnOfXrecnMe8Xu8LQsKChUF/MHOGg/HRPS6o1hn163uLjx9XTanuOTlrYV7EXWIMA5SB3ssW3wwdul8sgRrhDqeTW+p2B8iuDJh8993eIx+EHEZUQ5cqPJb5fNVWVm0jFKmiFTxUKnPnmjWR/pF6P1cWk5jgVHgFiMVJDfctEqG0VfxMrq9gh4NL8nodUANe2ZKePkoosZQwXhEhGTyfymJa3rZtVQS8Fx+hKmbyxEr/xWTwfCuV8cI8Fq0v5969QUVUKlPiMz4ZNIWMyJrt2jGlqlTGERExnCmFDKLERx6ZzJKsSm3K9TVgSJ1U4ZBGNW/uLfjjDxZ+gjSCxltBycvAx0pkBLlUBHZ4/PHXg8WrFcekDNSoS7MnFEguXrz4umDJRZUpXLhwZrCEcuJgVPfbYOlEbca3LP0ZpPrZln88PvN24h8HUzInxWZkVI5/+soRRcafCXZ14M8/XOj52oULb8FwpH8pyOQOd6dOVZIzK+ObSizXPA3M/FjPK75swgQ+OODfd+4FRkpWhhcSwLkiAN5lt4nF+Yc7atac6BsmWRk+sRg6UPM+C6UwzwNon+Xv8b/KW9s3Itg9CsNORTGFgqUNFlcFmbLrgrqBKnxQIX8EhMKqJIIH+HQRdRlVlEn95pvyql6QlZXnzyTUs5xZ1P48A4qpvN4P1+ydWS6/XIa/JvBcBRmBeF2DSBkxuAkZQgYRkDKczGwz/JiSGMRi4Th5UCzOP5xZGf+ELM9SUEF+kpSRio4UVCQrw4IGT/PIokU38/es/5KQYWWKdDCBfYMUeqTVTBmpipAywRCzdjFJrd7BkPCP0wSZ8StW1PUXxPIsS5lQ6CQnJ59iEe5PI0sZfyb4DIsZsvA/lKJIQxchQAgQAoYgUKV3UW0NlIw9s+jCOj7NwsufRrVXgT9jGOWf5h+m9vNT997L1PMqR65mFuNvLWqVLiysv37zsGFf8ZlViy/Pj//XxGLAWl7jBfD/CNT8l16StiKNT1zxP65zZ68vKBg8QaPNITSxGH9r8cuf6o9aWI3qFgP9wJVmrjoCIgxHt2unuq9RHRhoj9cQ0V+zYGdUlGa8ibEfAqr4mDlPP+3d8eSTfqyNebysTx/u8nvvjYXxyAtKNJAMzIJXXrnw/ahR0UqE6p22ZWoqN3nZMkl5DUoMjnT31oyMRL0zooe8jmDhY59+WjT/ghGp0ObQQzmzyBAadxZ8K8U0bWoWnQ3TQ9BiWLWB2fJ1N6elnWCl15Puyuef944aP16w4Fn0CJoQmvaTc8PDvblQtfgfhB3lGYPnPylkhny8Uf8wMeV9X1BC5UNIT0GLAaebBROPMoQS8GG4zcngd9+tTJ9qEr8EoJyBiS+1UE85+eDzV5kxPgD/cyMjvVxxsW+Q4L3vbIpRzZp5Cw4cEKTTM9DXgtHKWWT75oOnD+NvfP+Lk4BU4tXhiSfWSExianJBYMquuupjqVqD+d4vNY3a9F2fe04yS3cHmIclcAkCExERkSpAa/qgzMcfF3QNwRQXqx2CwAwePPhIMGZicVc8rt1aNzGZisPj4wU/8gSBkSusXvv2sgZE5crzTdd25EjfR+Z7cAGV0359E8kGRsiTyx2c9VVI7n2tTp1i/dOijv5Ti/1pxJ5F6+SyHj28rm8FJnbDDnhJBQWi6YQEzZ42zbtzyhShKOlhYWHcMo9HkvyF0NccPW6cU0iYUAEjnajFiK0JKYU9u6VeY6ZMcXR86impyQLpZYCCTDwxMZJLRRQYh8uVFqhZ6JBratQon5jMT0Z+evLk8kbW2OnTHR0mVpkWHpqZL4UPKNDE78fz5/99SVnvSwYOFCUVBQa+gxaJpgoSUZifXyV29YwZ3BjYnxYDxz3zjKP9+PFV4lkeHD6gQDN/Euwl+A5LulA0ZTfcILp4WRSYUEylxH8Cm/Ym3XlnOTiPPf+8o93YsczJEZSlFT4FQHl9vs/iEWYm4oSpYlEBM9bFCJWGf//RR9zdMGD2wY4djvEvv8zuPD2ectEAyo8ASuVOgUr1wfTwqv5FjE9wiwmyB6sYw2Dhv+/YwV0PK5mD0QjFLViwIE9tUITk+IYFLbmc7OxTMRkZtX0TiL3eeBp0hvw9y39crVrc5ry8KnqAcz0EfqQxS3qeJtS8smXdunldW7fy5JynXj1u0IkTVeRWRsJNUItJz8ioU7ZsWSs+QShQeDop/+fzAhe9wE4BkkBhkZe6davDW1EDLsBIRzBQkF9IH5Oamrof6ESRZVHKLDTJfMN0VOgV1EEtxiwZMkIPAkYEdQKGgBFBQCSYLEYvYB6ePl1ElHbB+Nmg9qU6x8efesqhJzgIyk8S+2dYQFQdGBSqFzhagYJ50AQYPcDREhRNgdESHK1B0RwYHhz8V/PSwqf466dZVfIXZLVnAkakxAgYAkYEAZFgXSwmeaboli0iaokHh7lCdiGJJ5YQowsw4ydNcgybM6dEgl6CpNE1anA7y8p06TTTBRjM5SOjR0fClg+y9/Os07gx911+vi6goL66AYPCYFpfAwBnB95LuVp07sxtPHxYN1Ck6KYqLUyDje+ekOAd0KuX6IjCc9Onlw/1wojBalWFEzNCgBAgBAgBQoAQsAsCmjaatFx/3WXevCg46jP0ggeZJaVZyxcacaNl6sSU7MzmzUVMhDKJNAPmr3XrZsvUiSnZAZ+j35kSSCTSDJg/33xToirVhBz9C/6GRkSIfg/JhYLnDdV1llweodJpYjHw4TePF+wpKeFwwTr/rPQ/PT6+ktfBt9+WPjeWUQFNgDnwxhtVpizthDXOULp/Y9RJlAwWw58tPXu2Mv7oJ59U3qt9o8nrWuw1rWQ7E+yq2JKWdsYfACU8/Xn5PusKjK9gte7h2KO3YL7uv9Xix/NRvSqBf9H1IJ7fFi26j8+Mmv+qW8zYTp28Z3fuVFPHkLy0qE6qW4zeoIRETSaB6sDI1ENRMqi+KxQxEEiselUSeyMJyFYtSIuqpDowmFtYKYLjR/VUy7kII9gPy+vxeOoMHz48cN69SBoKJgS0QUBxVQLHN/inmTOXXPjzT200lMAVt327avbs72HE8xoJyQRJZQPzyksvuX8YN860b7Wm993HTX3zTSf4oYtL5ASzLx4oCRjYALTbT7NmbTm/b584RxPGwJ4yy+GzIVWKakzA4FsGdjfT/C0jRXE5tHDsHjdh7lymPIsSZWVl1Tr4xhunj2/YIEcHU6dBX3TN3LljYAn1HDFFBYEBm6vsDBJLaJfwbtnZOD0lAAfTOk+jgSdgREqg2gMDr3PBRemCwCSO1nSsTKSM9A+OrFMHV+vDUvHAK8DpBJKIh4xo0sRbeOiQOIGBMcsULokWtBjW/Cw4dEgRsKxypNJBg+4vqWn86YMCs3jkyMqtJHPhFb68Qwfv8uXLE3yZXDN/ftV9UXwjDbqH6tHIVzRLPnzp8V6wxGGTibgaI0aIZrggO3sTvPtv4pmlmqjdA8fiPgoNt5dQN6n54POD/4LAoHX4EgndJ/mkhS/sAjhZPUaITu8wX98iNR++uob5Pki5BzA28PRhYWFVRh75cCv8++bDV1/ZwMCOHZVVCY7Wg4Iy/qrdrZscJa4WSiQbGCFmRoe1SErySNUBCvhdoTS2AsYZHj5MKJMhwuwPDLymYSRF2hUVFfWeUArVLKbRXXcJ8Td9WEpKiuBcPtWAaXz33edMj4IEBVUDBr5SDX1lR112mYRshyYVBMbdrFnolH4UUL9z/YJ0fWyVkqKqPGFgunRRVYgezOKaNZuvphzbAAPfR6pWZUFgvI0b/64m+mbl5YVNAsUuQWCAWLDR48tEqGe98T33+JIYfx/ipK4yWIQqdgkCI9ZM5plAt8Me/t73v1HfvoZMx8BtU4SuwrlzI4TC+TB3EF8qyBGs4Qs+sdA/xLcTCocwVeu5iIyA4GYPPRQQhgHgd0qL4dApscvdpo1o20uwPwYZ5Yr0yRQvXtxl6NChO8SECYWDaiH7d4TSCYXBAFnvUAXnn04sL2D5rwGvJH96fA4TCgwWJhUU5NVp6tRgLNnjoMpIBSUYc6fTKepLJQMTTJBY3JipU0UtUyyNUHi3BQt6C4XLDQNfKvgBifxUB6ZHnTqVm6k/P3NmZRXqMHmyXP0vpvOxlsWLF/eAwaBKOXIZow8SS6s6MPmnTlXKWjFpUuX9uBkzFFnNtdnZt/DM5gwb9g1/j/8VkyF9gxTfqw6Mv0YTH3mk0mrkno2Cr2Mo3fXIG0AYynkrWfLixFtqPIXEf1FgPC1aSGQlTP7u3LmVEY8+95wsq+mxcOGtPBPYO1zWsQB8etZ/UWDKgjR+WJnzdGn//ndlEbd/9FE+mOkfrQXehJ8jMVjLJZSZUssnEgUmWKtQqrgvfdZHPvbii5KspltW1m28PLCWTP5e639RYDwNG/6mpvB/9+xZaTWssynQWqCf5zPUA6yl/F8tnTz16wdlFWwnLGz8jAuaWkLkL199BT7TCx19Du+EOXPYrKbisAYUA9ZyiwRxIUnLa8Snn4rSiVqMy+USbRWKcgsRcWvLlpLHfZAlWMvBEKwlR4dyFaLAgMPbJFlaiATHfv+d858tESJJeTRYS1MWOik07latgvYEiAIjRYgU2hdTUvL4Vuvfr7yy0u/48pj/yivneRr8942Tc188YEBAMqjSQWuEJGAu5OSsD5CgIGDfDz8Ips4eNSpWMEJm4NDVqwN8Wu3atYcHYxcUGADiDd/E8Ia4xffZSvfeunUr1S25916uf//+hZUBAjdBgQEgBsBruzzZhRdecAukt0xQ4YwZXXllh7zzToAF8XH8f7DXdTnNoKNHLzJ57DE+jSX/oZB/BMVDAsJnLqjF8ETV8Z+AESl1AoaAEUFAJJgshoARQUAkmCyGgBFBQCSYLIaAEUFAJJgshoARQUAk2C4W01skf7KDVQdGz2PKMNc4kqDmDAgeSdWBwWPKeOZ6/I9QeQYEr7PqwCBjvaxGK2vBPGgCjF5Wo5W1aAYMMtbaarS0Fk2B0dpqtLQWTYHR0mq0thbNgdHKajJzcm5G5bW8NHG+vgqr7WvQWmBx6gZfGVrcaw5Mo+bN49RUfNjs2WqyE+WlOTBJSUkFotJlRIRHBJ0FL4OjcBLNgREWa/5QAkakjAgYAkYEAZFgshgCRgQBkWCyGAJGBAGRYMtZDEwqvF4kL6oG6wLMkBdflDW/1z+n4bAqFmZGVVmS40+j1rMuwIx59FGnGgpnzJ3bTA0+LDx0AQYVGb5ggeguaSyK1oBdDmHN0kEWWjVodANmxIgRNZUoPHz2bFW/0kPpohswqMionJzfQykkFH9Z69ac2l/pQnJ8w3QdA0LB/lPgfxaYYupP85PXG4arVnwV1/peV4vBzMBB4JIWb7Tr0YPTGxStQRfl/+y0afwh30uEiHArSDwovP+NN+pqJUK6UBghQAgQAoQAIUAIEAKEACFACBAChAAhEAwB3btigikjNQ52zf/gj1Wr7jq1eTOHh7Cb+YqFXYBbDh7MRdar1wLmav9hZl2D6WZZgxndtq03f+/eYHkzbdw12dk/gdF0Mq2CQRTTvU8ziC7MUeBZzljVWDCT28eP77hmzRpVBtmYQVOJMORmFyrJUY0NAB2xLjk5XjWGBjAqy8/nTp08iQOPpjhZSAoElvMwp06cOO8uDLoVjpT8G0a7bfTo6NzcXFU3VNIjM5byMLgP2ldDhoQLAVP3hhu4xv37R2VmZhYLxRsZBpvUffVdRkaV2TzYSM/Py8MNuS31arKUhynIy8vzuoX3xzr55Zfcj5mZRdC++dpI4/CXPf2BB7z+xsLT/DBmTBjs1NyAf7bCv2UMZsmSJc1+GDs2JKZb09Ove/Kuu2ArT6+heQPDnTYYZmUceP11UZ29sH9oYV7eUVECE0ZY5rN6LuzFvsNn23EWLOHz9RzMGtG9wVP4118Nfpo2jUXFcprrly5tN3jwYMEDQZiZ6ERoiTbMokWLum4eJv0IP3gV4Ew/RbP99CiHc3/+uRvkWKLyGuq2WQsj/8AB4X1bWRmYnO6nqVM5PHXC5GqWq2d6D7Nw4cLeW9LSrIClIh3P/PorTv03vZcxvYc5u3t3+dkMikrDAol3P/88B6/ePmZX1fQGc37/frNjqJp+brf7WtWYacTI9AYz/d13HV1mzdIo++ZgG3P55Vz3hQvHwIDkVHNoRFoQAoQAIUAIEAKmR8CwzzicpnDq1KlPjqxd2+vw+++bHiijFYyoVYtrP2ECF1279gOwS9lqo/TRzWBgbGXN8U2b/g1TKo3Kq+3kxjRtysExkqWuqKg7+INEtc6kJgYDnW2vnN6+feSvOTlwnhitd9W6EH35x3fowCWOHHk2zOnsCZ4IVq+reyk2GPAck/P37396N+xb6C0VPQtZXa2JmyQE6sDS/ZbJyX9GRUV1T0lJUTQ6LslgYCLQ0OKTJxf9Av0iZefPS1KaiM2FwGV/+xvX5B//+CE2NvZGKbuGMBtMqgqHVZoLMtKGR6BbdjYeU8BkC6bv6eUzRf/mQIAMxhzlYBktmA3mqjlzVNnFzzLIVBNFI2GfPKfT2ZE1u0zvLV9m8FU0G+bLDoEwRfvOleTlcT9OnOjLmu4ZEMDjBa5ZsICBMjgJTF39JSwsrL/UT2/JBhNcDWmxYHybtqSn3yAtVfWljqhdm+syc2YTaKAeNgoFxQYDXfxxp0+fngJepxdYLWxpyB2HH1rvfLDe/4XKGBhN3+9GjfrQQ304QaGqfdVV3Avff+8EjIM2DZSWR1AlIFKyweBqvQsHD56PmTw5FO/KeHfbtlzx2LGLYQdiwZnckEnndy+/XHby228r09DNJQQuv/9+buobbwiWlRblcUly4J2gEoFkF0MWPv64N/q558SiQ4fD+7cQOv9g3ENw/8xZo0d798yZE5pPNaJIHD2amzBnjmA5aV0eQjAzfyUtGjVKmbGgdFi4FZ2WthheQ/cLKRPfrt1bQuHVOaxmYuIyofzrUR5CcpkNJiorSyi9rDBo76wUShgZGTlKKLy6hoXB8Vl16tQRfI3rUR5CuDMbjKdJE6H0csMEl7fgwFijvn3l8rRdupaDBnH9+/cXXkwussZcDgjQkN7Bmo7ZYMo6d2blqYiu8T330KhmBYLwZbRWEZjsid9lJWU2GHeXLqw8ldLRa6kCwejo6CSlYDKmV99gPI0bH2AUrogMOqVexQ0Eq/vVbMAALjk5+ZTWOHhgaAC6O35klcPsYYAhsxWyChejw36H6n41uPnmbXpgIPXNwWwwLpdLN4Op0bLlG3qAZXIZD+uhn2YGM3To0M+9cF6cHldERES1bsdc1qcPviZ+0QNr6IWX9JHB7GFQeanWKDfDqampJxrffbfc5JZP17RfP90GF+GTWtKbw5QGgyUOBnPW8iUvMwMwP0WvryM81007g9GrLwZxhtHuavlaqtuzJ4evf5m2JjlZ06ZN35OSSJKHcbhcH0lhLkYLNWiwWBwfDlMjXotr2ZJ/rDb/LQYOZDo0oeixxxRj4u7Ykevbt6+kbWolGQxoKMl9+efIU78+516+/DIwBsEBNX/6y/v39w+y/TO8IgaxZHLYCy84CubPx31+ZV9y2qSSDEbq+843J6V33skNOn7cIWUhFXTg/Z8vD7vfJ8DwC3wdie/T6gdAxsiR8RdycmRXYjlNDMF5Fn56VXlc3ry51/nHH1XCQj0UwtzdtGeekSwL9uatXVpaytTbuXXEiPLpE6F0MSK+8/TpeOwNk2jW9UG+zHC6SMzw4atx+oiUqyA7eyvI6y4ljeCocTAG6MakGExpv36yjAV1GDJkyGn4YzK08s0TMzI+x82SzXShsYx+6immPMjVG7zSG7AqtXVsRsYMiTwkeydJryRURs57T2ImZJHj7gXdsrL+hrPqzXJ1gs2dtTYWJXkNDw+XbDCSPYznssv2g5ItlSgqNS3sYXvL0QMHPvvx88+5kqKiyuR9hw3r6jtwBvefgnvusyUj439G7xqBxjJmypQAz/Ly8897vli9ujK8HmzZ0a1Pn52guz7zRyrQ88ArEjz4T5VgMt5INhjoH0GrHMPIXzHZmNRU75yhQwX5zB8+fDtsVXo7fHWt4wkA+I8g7J5v09LeN8poxIzl2WnTvEvHj+dVLf/ft20b9+2773aC5RbeUTk5j4H+L1Yh0Oih/E2xrhI2ZimS/beSLyVmrXwIP1km/gWO7ZW5w4Z9Cu2XB32ScGBAH1ybk/MP3zC97jtOnSroWaaMH+9dOWVKUDVg6uoLQQlUjJTbtJBsMFAYG7wx5jpIbF5a2iowmtG+eEKb5p3uOTn/9g3T+h6NZezUqZWvG17e+IwM71uwcbOZLk+bNmfl6CPZYFCIXOuUoyBrGjCa2dB+ecaXHtz7W2A0A3zDtLoXM5ZRAwd6P4TtNEx4YdNC8mUbg8Gcv5Ke/gQYTZU1T2A0b8D+JwMlIyMhQScRzzK4Xz/v5ytXSuCkK6mOBtO5s2k3rgOjGQxGU2VADTqnVl27cOEgLYoDjWWMwGvowVtu8UJjVguRynk6HFxiYmIVjFiZulgJq9CFha2F57uqhJnoAYzmHujI+gYM5TpeLWjTrABDcp3dtWsJjOlz2F9T3mfD//uEYbjX77mctiIMhtLL0+K6oeEjRgS0Wf7RrZsXuwDMerk7deJ69+5dJkc/WQYDrXmsOqY1GARifkZGDzCQvfBKassDA/dL4R5/mlzr1693PZeRUbp361ZN+KvFtHwMaccOWexktWFgIz2T+tqqGICnaQOe5ljVUG2ecFH81IcfLj20e7c2AlTkquSjRZaHgV0Xjy+HuSpOhqNp3I0bq5hV6azA09TPuP/+Km2uCJib3LZ79wKYO9wKJitJMigwwKwjv/2WcfLQoSrKZMGi+fzTOPRl2MU8rdMbFyd7mwxZBoOQlF1zTUiDKb3jDm5YVlbAO15vSDe+EbgIYd2KFbGgx1HoUOOmPf98SB3h9TYQepZfAwPUW30medBeexV07B2Tnp4UKgH01gcCEipRRbysVxKmDbvjjpq474vY5W7dmkv96CPZ/MX4qh3O2qEG7bbXzDYS7o8FtNGSYX7Mr/7hvs8Qfwg+AGTvqSK7QOHY3PyUvXsdhU884avPxfvoaK5o3LgmMIxQ5VUQSEghaiOAjfwLc+YEfgHBl10hdC1AfFMlMmUbDC807dlnHTARJ6X4oYc4d9eu3IUXXvA+fOGCE1wk8zuV50X/6iCQPnp0OJTJSyX/+hfnvvpqrmDevMIkj8eBXQtKJYR8dysVoDR9Bx12IP+ZYZIWNHa9WrdfRkrYkVsprnLTK/YwcgVTOmsiQAZjzXIzTGsyGMOgt6ZgMhhrlpthWpPBGAa9NQWTwViz3AzTmgzGMOitKZgMxprlZpjWZDCGQW9NwWQw1iw3w7QmgzEMemsKNr3BlM+ltSa2ttTa9AYzYsGC3tXBaB6GXR5ghN/0g8GmNxgA8Qu7Gw0ay+MabwmilrszvcFgRu1sNFYyFiwLSxiMXY3GasZiKYOxm9FY0VgsZzB2MRqrGoslDcbqRmNlY7GswVjVaKxuLJY2GKsZjR2MxfIGwxvNqOzs4Xhv1uv2lBTL9LOEwtAyn9XBMgLrbUy5xROvc2J3SXsn88lM+W8LgzElsjZVigzGpgWrVbbIYLRC1qZ8yWBsWrBaZYsMRitkbcqXDMamBatVtshgtELWpnzJYGxasFplyzYGUx2mcWplBFL42sZgYHjgahdstGy2K3XWLK8V5uqy4mYbg4HhgW2jsrLaRJropJWhL79cNm7CBNtgjEZlq8zACWO/jVqw4LLYhATWCqMZXTrsKzd67NhwzQQYxNhWBoMY4jHHg2fNSkho0MAgSDluRFZW3qjMTHMdKqUSGrYzGMQFXk9nhzz3XHT9Zs1UgomdDRzDd3j48OG12VNYi9KWBoNFAJ6mKOOFF1xN27fXrURgF8w9sA9uE90EGiDItgaDWPbv39/90a5djtawV63YFQGbUDNe54LRgbHgoeHtgtFQnIUQmPjII17c89f/B/vvMh+Hgyfc+qfvGBbmBR6vWggKUlUqAmvWrImTmsafHg4ltWWj1j+f9EwIEAKEACFACBAChAAhQAgQAoQAIUAIEAKEACFACBAChAAhQAgQAoQAIUAIEAKEACFACBiPgOm3KheDCOagNC8+ceL3/UuXcgUHDoiRmSI8DJa/1Ln2Wq75Qw99CDPy7jaFUjKVsKTBzJs3L/Loe+8VHVu3Tma2jUt2TXb2TzAzr5NxGiiTbMkpmuHh4d9Z0ViwqPbMnt1RWZEZm9qSBnPiyy8tC3r+3r0czNYbbWyxy5duOYOB6ZXOw++9Jz/HJkjp9XqnmkANWSpYzmDy8vIeK8vPl5VZsyQ6+tln8WbRRaoeljMYj9v9lNRMmo3+yAcfcOApzbdzAANQljOYvz75hHkhEUP+DSFxFxZyp0+fnmSIcIVCLWUwubm5sX+tXaswy+ZI7nW7nzCHJtK0cEkjN5a6sLDwKU9JSYASHadM4cZMm2baPqWcnJyB32dmvuar+5G1ay25s4OlPExZUdGjAdYCAT9Nm8ZBoWwXijM6DL/qDr75ZhVjQZ3++ugjbvny5cbvSyIRIEsZzJEPPxTVd9uYMV3AaP4pMf+akx87eLD42GefBciBVxJXXFw8PSDC5AGiBWA2vRcvXtwgWO8uNiQPvvXW2+vXrzfNaxbGu1Ztf/RRpxiWZRcujBKLM2u4ZQzG7XY/7fV4guKIBvXTli2BjZygqbSJBANv8cvMmQ8G4374/feDRZsyzjIGU3Lu3FAWBLdPmOCAV5Pho5KnduzYf+HQoaAqH1+/nluyZIn+ux4F1Sp4pGUMRspwwPbHH78VxmtuCJ517WLBYH//9ZVXmASUlZXNYCI0CZFp3vfB8Fi6dGni14MHByOpEld65gwHHXyboOCOVYnQ4QHGiRzwCV2fVVTxqVMDgfZhVnqj6SxhMKWlpZJr4Z9vv83Bz7idERlLVornZGSpKZklXkmFR4/epykKBjI/tXkzt2jRoq4GqiBJtCUMxmq1UFIJALHH45HsQaXKUIve9AYDn6c98rZtUyu/puRT8Oefd5lSMQGlTG8w0P9imdongC9TkJU8qOkNJn///luZULcw0dmdO3HaZm8rZMH0BmOl2qekwK3SjjG1wWRlZV2dv3u3knKwTFqYHH69FZQ1tcGUnT17ixVAVEPHU99+qwYbzXmY2mCcERG699RqjriIgMj6zJ3DIhz0CTa1wZzIz19Z78Yb9UHCYCmN+vTZabAKTOJF52owpdaY6IsvvvA+PGnS2fMHDtxZfPy4xtKMY99l1ixuxOjRDY3TgF2yaefB+mYBPjnjYVDvAwjriYN7vnEWvz8SFhb2ApzvNMfi+SD1CQFCgBAgBAgBQoAQIAQIAfsgYPgXB3wBxcA4ysZD7713NU6KdhcV2QddhTmJadqUaz1sGBdVr94Q2OqM+ahBhWKDJjfMYGCW2YDC06df3wV9ECV5eUGVpEiOa3zPPVyjvn031KlT529w+KlhS2l0NRjoQwkDj/L+X+vW9f3zrbfIDmQggEMIV0yY4ImsUaPfsGHDsG9K10sXg8G5HrAu+uNdL74YfuHPP3XNoJ2Fwa6cXP0bb3wTXlf99cqnpgYDyzyWndyyJWX/smV65adayolr1YpLHD26MDwyshd4na1agqC6wUDbpAPsEvXVnvnz48/+/LOWuhNvfwQcDq5NejpXu2vX+TDcoMm6bdUMBhaeP3tu9+7H986fz+HOBHQZi0CtK6/EL6wTLpfr2qFDh/6uljaKDAb2N2lYVFS0Zf+KFU2tMgFILeCswscRHs61GzOGq9Gy5ZPQ1lE8oV6WwUAjdnTBoUOzd73wAvWbWMVyQM/6vXpxzQYM2ANfq9cNHz5cVl8Gs8Hg/nIFBQWbDv33v1fCumULwUSq+iPgiovDT3Musm7dYbCN/WL/+GDPTAYD7RPv9iee4HCRO132QqDR3XdzMz74gMkOMOfMUzTJWOxlKHxucM9gKRezwUhhSrT2RYAMxr5lq0nOyGA0gdW+TMlg7Fu2muSMyWAcDscvmkgnpoYjgHNupFxMBgNLIfpH1qkjhS/RWgSBduPGBd/L1i8fTAYDI6A/d54x43MyGj/0LP4II9xc/UaNJJ0Ow9xhg9iUj0R7PGuga/kKpVh9D8p6iouVsql26Ts++SQX3aiR0nyfh2bGEhhbGiOVkSSDkco8GH3WggUnvxsxgt5zwUDyi3NGRXHXzJ17NUxdMGwPN8MMBpe8PtGrl+f4xo1+sNCjGALXvPLKheGjRsWKxesRztSG0UIRcIneZg888JwWvO3IM7Z5cy4uPt7wPUEUexho1/SBZSIjoZCwXVMfPMfPYAwbateuPQ1mt58PVXhzpk/37njK8sc4hsqm4vjucB4UtDmuDMVIaXmE4i/LYPBgKDjrZ3fkK680cIpNw4SJO8VpaZy7Y8egE3dgW/hG2yZNOgybN4fStdrGN7z9du6ZTz8VLSs1yyMUyKJKiCWEid2LIl9+eagTDuxmvS7MmMHFXH55XFJSUoFQGpg+8d3WjIyrheIojOPAu7wC3iVTCAstykNIDh8myWCgYDfGDh9+I+f18umZ/0tgSUTx9dfXGDFihOBravrAgd4/Vq5k5lddCNsMH849kZUlWE5alocYvsyNXpiWOSR2xAhZxoLCI1at4lx//pkvpki9nj3xVA+6/BCo07XrA35B5Y9al4eQTAwTtFwh4qX9+nnD331XKEpSWAFUC5gWOFwo0dCoKC+trb6EDE6lXHT+vGAZ6VEelzS5dMfkYeA9eb8axoJinbt2ZVwSX/UuvmPHqgHV/KlWV+FDTvQqDyH4mQwGEgp6BCGGocLC4fhdsSu+QwexqGoZjmuLRC5dykNINpPBQN/K9UKJ5YSF7dsnmowMpio08VdcITjYpld5VNXm4hOTwUBHnKDiQgxDhTmCrIqMqFlze6j01SkecBdrNLrUwgEXukm5mAwGGO6RwlQB7f8UpLVdUpiH9F+tM+VpIO2UQyaDAReoywkRUKPWag2QZfiHhXEJCQliHka1bGhiMFCQungYGLb/0hktaT6PasCZjVECfDHCWFyh1nppYjB6eRgEB4Gii+OCfCGpCo+3obQd65leSXp5GESiJn1alxtErS5dVDUMMWaaeJjIyEhdXkmYKfIwF4vWFROzUayQ1Qz3atHoTUlJKfLotGogPC7OsOmHahaECrz+owKPkCy8LteBkEQ+BEyvJKSX+q7zkSHpFl5/9GkNiAEOmn9SVxSMpC9gZoOR+q6TZCU+xDB7r9obDE7HhC/Ggz6waHkrqblhOoOBkeyvnDExWgJket5ig45aKA6dg9p4GL1eSQhKdW/4JoiMUmtkMNb2MAhKdR+EjG7QQFIhKjEk7TxMfLzg1EolyoqlpXkxnC4NXi8sjBs8ePARsXIQCmduw0CrXdK7TkgYaxj0QXzPSmtTOn0MRmIvL2LNbDBAq5ubBFnVdhAyonZtDhr+W7BwtL7kfPlKMRjdPEx17ovR8wtJzocMs8FAIermYWANzjeuWEOXEGtduUX56zXoiArYxsNgZqrrl1LNNm3OYv71uNwSx5FQJ2YP07RpU/aljirkthp/KenS4MUikjrwiGmYDaZv377F3rp1MY0uV3X1MACuLoOOWIgOl0vyKSfMBoMCPDI+wzCd71X02GO+j6L38Gmt6UFRooINjMAJ2bDrRcgvRKfTOVglNSW3S6UZjIx3XpWMQUeRo23b66qEiTxUxy8lOBgLp2WGPGwK9hxcVjhrlvQF7oFYS/7ylWQwcj7DfHUsePHFc3DY07e+YWL3YDAha5pYWquGS/mkjqhfv5EHDgxVeJnXw7g7deLCwsOZG0EwvL8Z1xZXpwumZTJ7DZjUdrRw2jTJBe6Lp5y52pI8jJzvdl7B4hEj3gUjKOWfWf6r26g1NEI/ZsGFp4Ee4Xald9zBP0r+h4FHyQYnyWC8NWuek6wVJChOTeWgM+5eqWmr25cS1HjJX0hl//znTKm4Ir0XlvNABf5LalqpSy7RIrtJEgILstzduw/gZBxFXPuaazj8hbqKT5zgTLtPHuS/24IFobJQHi9npSMU+uSFEydOin7mGSYZPFH52+KPP/hH5n+pBoOtakkGU/jCC27wLm8wa+RDCC5XcG8UH5LyW9gIsBcXFvYF55G0C7o/G02eO0+dioOJTPmQq0BYixZduNjYH7mCAmYW5R8wMgxG0isJtJH8zvPExExhzoVMQvjM3NDRjDtxgneJrFevt8xsMSeDL88dpbfdxkyPhHLbo5IMBjqMJH+3S8qFAuKYhg1vc0ABmemq8C5fmEknXhe5XSSSEJbTquYV1PofXnuf4T78prl08i5y86uLh3G73ZJfSXIzJCddbOPGd8KCHjlJVU/TacoUbLt8oTpjlRjKGXhE0ZIavdiP8mq9elwYfJXoecGebju2/u9/nU78+Wel2JsHDPCOHT++ioeEtszHL4OX+enppyvpDLkB7wKvyFv8ZUM+uqxdtKhy06QIGCrpcsstXMNmzW6Fdsjn/vRaPnvDwvbL4S/JYFAAujI9DeYlGDOBXY0D8vb7jh2OxYsX9/Afaohp3Pgu8DIfytlLOECIzAD0LlC51vsnP3fq1PZ926quBN719ddcjTp1PgNjGiD3a9JfDsszDL3Iao9WqaEsguQ2llh4+9MAiI8ugxPchS5PWRl38siRb/zjAPS1HSZO9A/W71nEu8Cn/225Im2s/FOnuL1bt67WT8nypbiymheSDUZuY0kOGNDzOT5YupXQxwFG1c+fpkazZgFh/jRaPYt5l2MHD37qDdJPtHHNGq1UEuNrPw8DOa0nltvycNjC/q/9+9/xp4G2zHtXPPGEf7D2z+Bd4ho1utVfEOza/eBqOG8h2FWYL7pJerBksuPkztE2tYdhQeOt55/nYHPxof60cc2a/cs/TOtn7DwUarwe+OWXVVrLlspftzYMV7OmbpOUWUGABvAif1poy/znCpH2jz+tGs/YaVijcWMh7zL63blz1RChGg8vbHYAhn1MDkPJHgaEyHr3yVGONc2H2dnoZSb508O2Gff7h2n13EHEu+zevHm2VjLl8lXy4SLHYGS1ruVmjjXdL199FdBIgI6zNe0Z5xCzyhGiQ++CQxP+cdAgf+YTGaP0/nzUflby4SLHYEznYRDQz+GsJfAyAb6/RqtWD6oNuD8/bLvg0IR/+A+ffWZAy9tfi8BnvQ3GlB4GYfnuo48y/eGBgnwdTn/3D1btGb1LtLB3WfLlm2+qJkdNRnq/kkzpYRDQb+E8J/Ayr/uDm5CYmOQfptazmHf5+p13BqslQ20+unqYxMTEvWYZ4BMCctObbw7wD4d+mdcSx4zxD1b8jN4ltlGj2/0ZQdvlve+DHPPjT6/3Mww8Mk8299dNchumd+/eZV4YgDTr9ePnn6OXCWhPxCcmpqqtM3oXMMZ1/nw/e+21e/zDzPTsdTj2ydXHJSchroB0Hj8uJ6kuaeDL5BZ/QdCWWT5n5sxlxag3eAb0DvhDb8nf4z+AWeWZpxFKExEbG+BdwFi/mZ8heuicv1qGPMvt5UVl5RkMjFg7Dckqm1AYyEMv8yN8VnfxTTF60iRNJ8vA2Jfjni5devjKNOO9nPVIfD4kv5IwoZJGEy9Y6/935s7tvH79elkVQq5uMGa0B3qd5SbXM53sL13bGsyh3bu53bt3y5okJKfk5s2bF7lm1qw2ctLqncblcsn+0pVlMEq+4/UEZ/XMmU1zc3N12coqIiLiwLHff9cze7JlKTlsRJ7BxMXlydZWx4QnDx3i8vPzD2ktcvny5Qm5Tz3VQGs5avD3wlZwSUlJsr9Y5L7j8R3I2rg7rEZG5fJ47cknEzLuv79Kv0PdJk24Rq1bix64LiYLpoQ2KCkp2bd3y5bYkqKiSrIt0Ody1uCvRnfjxlx4pUbiN+Xtz/3y39SyDKZiLkVIgykeMABnzr8qrr72MfmnT3Mb3xBceJkx/5VXkkaOGsW0RQR0xnV5Pytr+74fftBeaRkSPJ07z4Bkk0MlLW9OKDAYea8kr5fpU6CsV68VoTJgZHzOI4/Ewuf3Qyw6wMw+0xoL6g/9TE+y7OTgBu+q5JJlMLCgbaEnRG9vWbdu6F0GKVFO67Q4xxa85SwWOR8tXsxCZihN6T/+EbBSwV8hd+/ep/3DpDzLMhhYQnGh6OmngzYmSwYP/lWKIkbRQidWYxbZ5/PM386HcrnV3aqVaHbcbdty4RERzUUJGCJkGQzyBRfYtORe4S1fcLfNmJiYKxnkE4mKCIC39BaNGydq2cVjx74Bh1Eomm0u22Awn+4+fQbhGIv/VTh5chl8urHvPeHPgJ5lI+AKD+/MCZz9XQirKKCSD5DNuCJhYGlL4AgucMWFuXMv+CbB73wuKir0LkC+ieheNQRgcvehC9Onu30Z4mBxeJs24u8qX+IQ97I+q315po8aFZs9b96FqBUrot3Nm3OwT8lLGenpP/rS0L2+CKQ9+mjEQo4ri1y1ylEG54CX3XBDSkZqqvzOFx/1FRsM8srIzIwp5/k9HHP09ts+7OnWCASgLeMBuRffHtth7f+qVaqpoeiVpJoWxMgyCJDBWKaozKEoGYw5ysEyWpDBWKaozKEoGYw5ysEyWpDBWKaozKEoGYw5ysEyWpDBWKaozKEoGYw5ysEyWpDBWKaozKEoGYw5ysEyWpDBWKaozKEoGYw5ysEyWpDBWKaozKEoGYw5ysEyWpDBWKaozKEoGYw5ysEyWpDBWKaozKEoGYw5ysEyWpDBWKaozKEoGYw5ysEyWpDBWKaozKEoGYw5ysEyWpDBWKaozKEoGYw5yoELc5p5I9tLIJndYHqXb6x8SV/b3j0EJ9Fa4TK1wcCGRF8MnDrVCjgq0hErRXy9er0VMdEpsakNBjFAIO3uZbBSYOXQqcwViTG9wdjdy1jJu6Clmd5gUEk7exkreRfLGIxdvYzVvItlDMauXsZq3sVSBmM3L2NF72Ipg7Gbl7Gid7GcwdjFy1jVu1jOYOziZazqXSxpMFb3Mlb2LpY0GKt7GSt7F8sajFW9jNW9i2UNxqpexurexdIGYzUvYwfvYmmDsZqXsYN3sbzBWMXLoHep3bDhzQi41S9LjFYHA9kKI9noXYYNG7YhWD6sEmd5g0Evc1tysqnxrtWgwXBTKyhBOcsbDOa1ZdeuErKsP2l0dHSu/lK1kWgLg4FzDLVBRyWudjqdzhYGo1K5EhsGBMhgGEAikksIkMFcwoLuGBAgg2EAiUguIUAGcwkLumNAgAyGASQiuYQAGcwlLOiOAQEyGAaQiOQSAmQwl7CgOwYEyGAYQCKSSwiQwVzCgu4YECCDYQCJSC4hQAZzCQu6Y0CADIYBJCK5hAAZzCUs6I4BATIYBpCI5BICZDCXsKA7BgTIYBhAUkJilf13WfNoC4NxOBzXh7lcrHnWle7h6dN1lae1MFsYTHp6+jeDZs70ag2WVP4umGscX7fu1VLTmZneFgaDAMfGx3cMj4oyFdaDnnnGk5aWts1USilUxjYGA17mFyigMoV4qJY8MiaGq5GQkKgaQ5Mwso3BIJ7RsbGtomvUMAW0yc88UzJkyJDfTKGMikrYymDA/R9MnjmzUEV8ZLGKTUjgasbHN5OV2OSJbGUwiDUUVNMadeoYCjsYbX5KSspRQ5XQSLjtDCY5OflU0tNP52mEV0i2CQ0acC6Xq2lIQosS2M5gsBzi4uKa1mnc2JAigZ0ajsOr8awhwnUQakuDwbXMDz755GEd8Ksion6zZlxUVJQt2y58Rm1pMJg56P1tcVnr1nw+dfm//4knfoe2S5EuwgwSYluDgddC6b/GjdujF65N27fnateu3UYveUbJsa3BIKDQmde+RefOumDbLzNzR//+/d26CDNQiK0NBl5L3rsyMraGwPdciPjy6IjoaFGy1ldfjUfwdRElsFGErQ0GywkKsnu7Hj1EiwyMaqVopE9El97iZ3j2GTp0ow8p3Vodgezs7Fc7hoV5O3Bcld+Y1FTmEW7gsdQ/PT5PfOQRZh5Wx7Fa6Z+Tk7O6/403lhtM94QE73NPP+1dsGBBnBQQgMeSAb16VfJ4dto078KFC+Ol8CBaiyEABRyjVOU1a9ZIMjSl8ig9IUAIEAKEACFACBAChAAhQAgQAoQAIUAIEAKEACFACBAChAAhQAgQAoQAIUAIEAKEACFACBAChAAhQAgQAoQAIUAIEAKEACFACBAChAAhQAgQAoQAIUAIEAKEACFACBAChMAlBByXbulObwQWLVrUy+PxpHq93g6wd0R7+Fe8eFfvPJhJHmB4ATDcBf8/h4WFLRs2bNgGM+lXHXUhB6NzqS9durRRaWnpl3/+5z8tjn32Ged1236nKp0RvijO4XRyDW69lWv6z3/+Hh4efsPgwYOPGKJINRdKDkZHA4A9ZVLyduxY9ltWlo5SSVTr4cO5Wp07p8I+h8sJDX0RsP22dvrCKS5t8eLFnQuPHyfnIg6RZjHo0BF7LAPNhBBjQQTIwQjCon6g2+2eceTdd9VnTByZEEDssQyYiIlINQTIwagGpTgj2KO1e8GhQ/ec/v57cSKK0RQBxB7LAMtCU0HEvAoC5GCqwKHZw8wj772nGXNizIZARRnMZKMmKjUQIAejBopBeOBQdMGBA7ed2bEjCBVF6YEAlgGWBZaJHvJIBseRg9HYCmCey4zD1PeiMcrs7LEssEzYUxClEgRomFoJeiHSwpvyjjO7d3+05+WXQ1ByXPOHH+bqXn99SDoiCI3A8Y0buYOvvy5KmDh2LJfQrt2dMBHvY1EiilAFAZcqXIiJIAIwajHzMGPfyx+vvcYd+/xzrv2ECQVRsbFXw8Qw3Q4zFVTeYoEwBN2ipKho+65Zs2oWHjoUVHsskxpt2mBfDDmYoEgpj6RPJOUYCnKAM7vuPfvLL1ef/+03wXihwMLDh7ltmZmxR7/5ZjdMylsgRENhgQjAyNDUUzt27AfsQjoXTI1lgmWDZRTIjULURIBaMGqi6cML1sTMkDtytH/JEu7YunXDsxYseDAiMrLrkCFDDviwptsKBFauXFnz/PnzP/6aldVcaic6lk1Chw7YF/MOAaodAtSC0QBb6HsZkLd9ewcYsZDNveCPP7jvR45MOPnDD39Aa+Y52YxsmhAwGXji11/Pfp+ZKdm5ICRYNlhGWFY2hcgU2aIWjAbFIKXvJah4r5f7dcECrkbbthPgMyAlKiqqS0pKytGgaWweCUc9O0+fPr3p4JtvXoeLRZVc2BeT0KUL9sWsVsKH0oojQC0YcWxkxcCbNeX0d9+1LDyi3uLd/L17ue9HjKh/YufOv8DRTJKlmA0SQd57Hjt4sHj7hAmKnQvCgWWEZYVlZgN4TJkFcjAqFwv2vbCOHEkR7fV4OBzuhhbNDKhoB5csWVJbSnqr00KeVx3fsOHL7Y8+6iw9e1a17GBZYZmpxpAYVUGA5sFUgUPZA4xKZBz/6qusP3JzlTEKlTosjAuPiwtFZat4d3Ex54GfFlfzpCSufs+ew9PS0rK14F+deVIfjEqlD29BBzS1n9ai9RKgIrRmSs+dCwimAHkIYJnVve66p6EMc2A3PK88LpRKCAGnUCCFSUfgsssuGwszSO/N++476YkphaEIeIqKOFfNmjG7T54898EHH3xjqDI2E059MCoU6Pr167ElOPXI+++rwI1YGIFARdlNrShLI1SwpUxyMCoU6969e8cfXbeuRtn58ypwIxZGIIBlh2WIZWmEfLvKJAejsGTXrl0b6XG7nzz8wQcKOVFyoxHAMsSyxDI1Whe7yCcHo7AkDx48OPmvjz+Owu94uqyNAJYhliWWqbVzYh7tycEoKIvly5dHuUtLHz+ydq0CLpTUTAhgWWKZwozh6jUPQKNCIAejANiCvLx7Ybq6y1taqoALJTUTAliWsNDUBcsRxppJL6vqQg5GScmVljYrPn5cCQdKa0IEii6WaXMTqmY5lcjBKCgyR1zce3h6IF32QqCiTF+1V66MyQ0tFVCIO+ykdktxQcGnPz/9dFjJqVMKuVFyIxGIadqUSxw3zuOMjLw1IyPjCyN1sYtscjAqlSQsE7gfppovgNW5dU5+/TV3AbZtLJ8XA1su0GVCBBwOLjw+nou+7DKudvfuXN0ePU46nc5RsE8vbd1gwuIilQgBQoAQIAQIAUKAECAECAFCgBAgBAgBQoAQIAQIAUKAECAEDECARpH8QIdd5rvB0aIPQfDtMCp0OfzTlHE/jOixHIHzsDnVQbj7NCwsbBWMPm0lXAIRqNYOBoaWrwBI0mFT1qS8HTvi8chROJCLg+dApCiEEBBDAIa846+4gqt/001crc6dz3IORy6Q5qSnp4MxVe+r2jgY2DS6ObxxhkGrZPC5PXvqnwBnkvfjj5zX7a7eFkC51wQBh9PJ1erShasHTqdmYuJxsL2lYHuLYALfH5oINClTWzoYWOXcsKioaDA6lPz9+y8/sWkTdwq2sqRFiSa1wmqiliM8nKtzzTVcvRtv5Gq0bHkQHQ6cdbXUzmddWd7BZGVl1YJvFjIHawAAHTxJREFU4CQorAw45yYRP3NObd7MuWl/lmpSba2dTWdUFFfn2mvLP6+iGzXaAy/FbOgDzB0+fHietXN2UXtLOZjc3NzYwsLCB9CZFJ04cdVxaJngtHzaqtIOpkh54BFwwZE0da+/nqsPLZ2oevW2odOJjo5+PSkpqYCnscq/aR0MbPgTAXty/AuATC8+c+amk199xZ348kuuJM8Wjt0q9kF6mgSBiFq1uHo33MDV7dmTi0xI2Ahq5dSuXfvt/v37l5hERUE1TOFgKs4b7ostk7ILF+6AVkkYtk5orxXBMqNAQqAcgcj69ctbOdDa8bhiYj7Glg44nbXgdEwzcmGIg8EtDuCA+HQ4re/eU1u2hB/bsIErhNXHdBEChIAyBKKbNOEa9OrF1enevRS2nXgHVojnDB069HNlXOWn1tzBwPBwd/CsGbDP6f1527ZFYyfs+X375GtMKQkBQkASAnGtWl2co3PVVYXO8PA34EshG4bLt0hiIpNYVQcDs2A7QA94BhzU/jBMXKuJc03O7tpFE9dkFg4lIwQ0QQAnBrZvXz5HByYGnnOEhb0GI7HZMBv5Z7XlqXo2NXz2/LQ1I0NtHYkfIUAIqIkAzFTHGevls9Y5riawHtEtO3sE/Kva4ECVaU9eRIEuQoAQ0AQBcjCawEpMCQFCABEgB0N2QAgQApohQA5GM2iJMSFACKjtYM7j2gq6CAFCwDoIVNTZ81porKqDgfkuS+ggMi2KiXgSAtohgHUW664WElQfloJNnOaf3b17xJ65c2n+ixYlRjwJAbUQgPkwiaNHc/GJiQtgc6yRarH15aO6g0HmFQsVXy4rKso4+umnYWd27OCKT5ygLRR8kad7QkBnBPBTKLJePS6hc2eu4e23e1xRUbh2aayWCyY1cTA64yZJHCxdePXoZ58l//nWW5LSETEhIAcBXAHd/KGHNsDU/JvlpLd6mmrnYLDAYElD6rl9+5bueuEFDpY1WL0MSX+TItCkXz+uUZ8+ufD5kWxSFTVXq1o6GEQV102VFBT8sHPKlPDSc+c0B5oEVC8EWqamcnW7d58OzmVK9cp51dxWWweDMEBfUTRsavXz7rlzW5zDRZl0EQIqIND+0Ue5Gq1bp4JzWa4CO0uzMMTBzJs3LxI2O34IFkcO5kpLu4ft3+9y7d3LOQ4e5Bz5+VzYeRiSh//yq0YNzgNbCHrh33v55VxZ27acp2XLMi48fAvsdbEUNvdelZmZWaykFGDk683DH3543+H331fChtJWcwQcLhfXacoULrZhw1uV7MFitvqhpFh1czDwSdIHHMoS19dfNwr/9FMu7OhRJXpXpvU0bMiV3n47V3b99UfA4QyBJef/q4yUcLNw4cLMM7t3z90ze7aEVERKCFxEAPfR7TR9ellMfHzHwYMH75GKi9nrh9T88PSaOpgFCxbEwT4Ta12bN98YuXo1x2m90z8MwxUPGMCVXXvtJtiXpu+IESMkzU6Elsw1Jfn5m3+aOjWsrMBy+yvzZUr/OiMQDS+5Dk8+eSY2Lq51cnLyKVbxVqsfrPnypdPMwUBl/Z9r48Y7I15/Xf8JdzCBqOSBB7iym276CL6D+/hmONT9ypUra+bn5+/a9eKLjWjnvVBoUXzNdu24dqNH74P5JFdImU9i1fohtcRVdzAwz6Sxw+P5OWrmzPiwI0ek6qMqvadRI65o0qSz3rCwDjAP4TArc/hcuqz47Nkj28ePZ01CdNUUgStffJGLio9vCH0ux1ggsEP9YMknT6PqWqS1a9dGwrnOO6MnTzbcuWAG0cGhLqhTuW58rkP8p6Wl/RVRs+aPMdCpTBchIIZAXOvWXHhc3DeszsUu9UMMD6FwVR3MwYMHF0WuWlXLYaKzi1AX1Al1EwIgSNja+A4dgkRTVHVHoPaVVyIE/2HFwWb1gynbqjoY2K28l3P3bibBehKhTqibFJkwIvW/hI4dpSQh2mqGQK2uXXEV8n9Zs22n+sGaZ1UdDIDdxEytFx4Ex5kzeNuYf2b5h2bvphqtWhXQ/jYsaFU/mlj4fI6sU2cnfE4zn8Fj5vqBumlRiqo6GFDwsBeOuDTd5S4/6E7OCQpr46kVY7riNINCCV26YKuY+fMIdQZ6J2fCtW/ehARUj3kQBIlZL7UdzG6c+Gajiz6TbFSYamYlQeLnkZqy1eZVUWc16dtQ28Hs8TZooHb+DeMXGRn5P+roNQx+0wrGM6FjGzf+HeZY/WhaJSUoVlFnJc8+ZhGhtoPZ7baRg0lJSTkKU8B/iG3WjAVLoqkmCGDnrtTPIzNDU1FnrdGC8djIwVQYxf+oH8bM1UN/3dDBwMU8eqS/htIkVtRZ87dgwKvv9tqrDwZLiubDSLNXW1OHx8dzcS1aHIeZ4V/ZJaNYZ7HuapEfVT+RyqfjJyQUcDY6ugQNqUbLlvnO6Ggt8CeeFkMAWy+wgNc2rZfyugp1VspSGilFpqqDQcHoCe3UD1MBJn0mSbEqG9PWgtm7UibXmR0KrKtatV4w76o7GOBpq5EkBAkMij6TEIhqfuGky/h27QpgEuYndoFCyxEkxEh1BwPNR7vNheGio6NpPoxdapSCfODcF7jegReOVwEbUyXFOTBYZ7VSSnUHAxs92a4Fk5SUdBxWzW6Lbd5cq3IgvhZAABc32qr/BTDHFgzWWa3gV93BuFwu27VgKsCnzyStrNACfB1OJwfTFcoSEhJstXEztmCwzmpVBFo4mL0emOlotwveXPSZZLdClZAfPA0xzOn8UMqudRLYG0aKdRUczF6tFFDdwcDs1yJHePgf3rp1tdLZEL6wmfjX8Il0zhUba4h8EmosAjh6BJekxY3GahxaOtZRrKtYZ0NTy6NQ3cGgGjDstceGM3oxa/SZhChUtwv2eK4Fq6fj4uLesVPWsY5iXdUyT5o4GOhlt2U/DOSL5sNoaY0m5R1/xRWcMzLys4EDB9rqCFDsf8G6qiXsWjkY240kYSFAYVALRktrNCnvirVHtvo8QqhxBAls2notGNDdli0Y2L3sZHhs7HexLVqYtCqQWloggJtLQUW0z/KACpC03AeGLwdNWjDQK23XPhj8ZqU9YnjrqQb/ca1acXDCxGY8acJu2cU+GKyrWuZLEwcDR2ce4eLj82EKrJa6G8IbCmQtbQZuCPSGCLXb3i+VIGLdhDpaXlcrA9W/0cTBVKhpmlaM5+L5RsfVgA/WoXwb17z5GTyLmC77I4AORsXPo+MVtmg4cFruAeObOS0djCn6YeCcaq5o4sTvYHvDhr4ZV3IPn0nU2asEQIukjW7ShIusW/cnsJ1f1VAZbRBtEW3S6EuP/hfMo5YOxvCRpJJ//IMrHjRoBRRsN3gLqbZADXjRrF6ja4gO8itGj1Tr3EUbRFtEm0TbNPLSehU1nzctHYyh+8IUjxzJue+881HYSGcQn1m1/nF1NW0Grhaa5uWDixvDw8NVczB8TtEm0TaLRozgg3T/13IfXt/MaOZgwFsb0wfjcnGF06dz3s6d74Se/5d8M6vWfXJy8ilXTMyWuJYt1WJJfEyGQGS9elxM48Z/DBky5ActVCu3zS5d7kRbhaEcLUQE5Yl9MFhHgxKpEKmZg6lVq9YeDmYK6nnhAVIFL71UHN6kSStYO/SxlrJpuFpLdI3nrXLnrmCG0EbRVtFmKw4/E6TTJBDqZnkd1YT5JaaaOZjyVadO5+9eeBPocblhvkLhc88dCouKqp2amrpfa5m4uppOG9AaZeP44+JGPfZ+QVtFm0XbRRvW4yqvk1A39VgZrmnbDN7y2A/TwnXihKa4ld54I1f60EMboQNN0gH3SpSCJu5mSO9QwsM/bU5Ozuf7V6zoffKbb/yj6DkIAnV69OBaDRr0BZR/7yBk0qKef14avQJqsKULkLwplP+G8FWrbgrftEkBt9BJtd6H11cDzVowKAS/8Sp6q31lqnpfeuedXMmDDy7T07momgEfZpCHW1omJ2+sCxWGLjYENHEubKJVp0IbRltGm9by0mMNEq+/pg4GWzAV4+28PPX/IyORp+afROorLswRjazloEFf1uneXZiAQisRQEcMDnkDYKZey6WSu2E3+7mLNq2ZAlgnsW5qJsCHsaYOBuRo3oLxyYttbqHC3NgyJeXr2t262SZPamcEnUsLcC4w5Huz2rztzk+vOTCIo6YOJioqSvsWjE2tASpOz9aDB39T+5prbJpD+dki5yIfO0yJLRism8q4sKXWtJMXD4/Pzs4+542OrukoLGTTyMJUU6dODatXr15iaVFRt7LS0kZet1twwVJETMyeR8aMeS1UVqElcz10/H37m9d77envvw9FXi3iyz+LBg3CDv2bWTI8d/bsh0suXEgUog1zufKdLtdf4VFRW0+cOLEHys8jRGenMKiLnLdGjXNYN/XIl6YOBjMAHb14XnV3x++/65EfQ2QsXLhwdHFh4Utfvv122M8MIwCdbr6ZA8dxP1SSu0MpDDQ9wElvgY/mbqe3bQtFbuv4OrCGB/qnmEcLAeMPvli9+q6dX3wREpcOMBI5b84cT2R09DgY1ZkTMoFFCfAcaqyTeqmvuYOBziSc0ds9zIYOBhxLPJwps++9+fPr/LFzJ3OZocGXlZTcBY7jM/gUujVUQqDpDpVl668LF16T94MmE0tDqWB4PDqXVikpzM4FsV2Xm3vLrq+/ZtIdXwzwC2veqdNsSDsZ5sC0AkdzlimxhYhwBi/WSb1U1rQPBjMBBWXbfhgoqA/enTdPknPhCxYN/6MlS24Bx4HzaUJe0JLp1iYtbVvFAryQ9HYikOpcEFPEltW5+GKFLwosUyxb33C73GP/C9ZJvfKjuYPRYy6MXmAJyOn55275ZfUb9Ku8v2ABtk52gEGHnLQHTubqNunp23GH++pyVXwWbYK8h5xEiRgilogpYiv3qijTnnLTmzmdnnNgEAfNHQzIsHMLxgHtTUX2hG/M/86e3Qk+t/asX78+5CcrNNuvapOR8SMeBGb3C+cCQZ/LJvhEvClUXhE7xBCxlPK5KsgXypTF4QumNXlgxbw0+W9FifnT3MFAQdnypEeJOAclP7RnD7dm1qw2u3fv3j9v3rzymYNiCaBF6AUnc2Xb4cN32nktVLlzSUlhci6IGWKHGCKWdIkjgCc5Yp0Up1A3RnMHA5WhFM713ee14XGyahbFMegEf33GjKaw/8jB3NzcoMdHVjiZLm1HjPjJjvvSSHEuiBVihtghhnSJI4B1EOsi1klxKnVjNHcwFeoaszeMulhpzu3U4cPca1Om1M/Pzz+0fPnyhGAC0clAv0SXxFGjfsGDwexyoXNplZr6JctnEWKEWCFmiB1dwRHQax9eXy30cjC27YfxBVON+7PHj3OvPflkQsH584fg7Vw/GE9wMh54G3VqO2rUrprt2wcjtUQc71zAcd4YSmHEBjFCrBAzukIjoHf/C2qki4OBikBrkkKXfyVF/unT3IpJk2LPnDlzcNmyZU0rIwRu0MlAheyYmJm5p2a7dgIU1giS4lwQE8QGMUKs6GJDQO8RJNRKFwcDnUqG7s/LBr+5qC6cO8e9+vjjkWfz8vbD0GubYNqhk6lTp06HdqNH762ZKDgrPlhyw+OkOBfEAjFBbBAjutgR0HMfGF4rXRyM0+mkPhgecQn/xRcucCsmTnRdyM/fs3jx4qDj0rA7mbt27dpXJI4e/VuNtm0lSDGWVIpzQQwQC8QEsaFLGgLYB4N1UVoqZdS6OBg4rOyYo2bNM1xs0MERZTmxaerS4mLu1YkTHWdOnPgRKliPYNlEJ9OuXbv27ceO3VejTdBGTzA2usXhdhTQofsVS58L5h0xQCwQE7okIgB1D+sg1kWJKRWR6+JgKjSkVozMonKXlnK5Tz7Jnfrrr2/gEyHo2qXevXuXJSYmtms3dux+PFfZrBc6F9iOAp3LDaF0xDxj3hEDxIIu6QgYMYKEWoacOSo9K8IpsB8GMnlt2H7bbD4nnFGNQj1uNw5hcwMmTVq3aNGifrAj/XtiotDJwKzWdh0nTLgFFmN6YO2JF/tp4BL8h2azt6yszIP/QnS+8cALVHF7ff8hbfkzzEfxFhcXeyIiIsqfMRzSekpLS8v/4Twp7/nz5z2xsbFe0MWdlJRUIJYHPhzy+vdjBw++u3rmTE7prGmeZ3X8RweDdVDvvOvmYMBwqQWjtHRhCvvqGTO4+8aPfxfe6g/C2/91MZYVk6k+Fou3Qjjk8YHDv/32f2/puAG3FXCRoyM6GKyDctIqSaPbJ1J5CwZWctKlHAGscLAg7/+glTJEOTdzcsC8YR7JuahTPjgHxogWjG4OBr1nxV6g6iBWzbm8M2cOt2/79sXwln/EblBgnjBvmEe61EHAiDkwqLluDgaGUPfAblpeaKepgxhx4T7Mzub2bt06B972E+0CB+YF84R5o0slBKDOYd3DOqgSR2Y2uvXB4BAq7BS2z1OvXuswmtrNXEChCD9eupQrKS6eCW993CTmSzF6aB7nu1yug/D7GvZjLRKj0yIc1gxFQYfv9fC7HFqyNYLIuGHnpk39169cGYSEoqQiAHWOg01F9mEdlJpWKb1uDqZCUdyftzWnkoPB1aFwSNVJmMX6slIgrJweKyT8+kMe8Bf0iq5RgxuTmsq17dbtBIwE/RM6g0WdUlBGISKhJXIDjBT9B1oj9RZkZnKF+fkhUlA0IoC2fPrOO0e7vvmmrkOtenKx71P3ESTMj94OBkeS7naiZKUXTBwqnDSpJDIqqhN4ZvsfWaAUr4r0WNE/WbYMf/Wu+tvfNkHL5xdoOndW6+22Zs0a5+nTp3fABuhXbPvkE5W0rj5s0JahxdcJbPtAzMSJEVxByJH8kODgCBJcun8eoVDd+mBQGDSP33N37Yq3yi6nk7sweTIXFh19rV7HLyhT2Jyp0QF8tHTpFadOnfqPWhoiL+RJzkU+omjTaNto4zC3Xz6jipRY57DuKWYkg4GuDgbmbWz0tGo1pTg5WYaql5IUPvYYx9Wq9XeYbLb9UijdyUFg38WjUPrKSSuSpm8FT5FoCmZBoNy2wcbLbZ0lgQgN1jWsc1j3REg0DdbVwWBOIKPTvT173lM4fTrnDQ+XnLnitDTO27z5CODzvuTElCAAAZwhDJean8quCp4BsihAGgJo42jraPNSL6xb5XUM6hrWOanp1aLX3cGg4uCdP4Ce7QaFc+ee9jQNut1JlXyW/PvfnPvKK2cBYFlVIuiBELApAmjraPNo+6wX1qnyugV1DOsaazot6NR8c0nSD7ZExG3I6sDQ9acR//nPbeGffho0feltt3Glt9zyfxnp6Y8HJaRIQsBmCICTeRzqSVNHXt6D4evWBc1d6e23cyX//Oc6qF+3ByXUKdKQFoxv3hCI0n/968ELzz7r8cJ4vf+FZ+kWjRnDld5334tA+5B/PD0TAtUBAbR9rANYF7BO+F9Yd7AOYV0yi3NBHQ1rwfgCBB4aF+29vmLFijoXCguHwH0XmBgWAT3fP8P/cgDsD196uicEqiMCUE9gdIN7DFozzaFupEDd6AD/JRD2I6xUX5KenHzKbLiYwsHwoCRfBGgW/0z/hAAhEIhAxQt3SmCM+UIM/0QyHySkESFACKiFADkYtZAkPoQAIRCAADmYAEgogBAgBNRCgByMWkgSH0KAEAhAgBxMACQUQAgQAmohQA5GLSSJDyFACAQgQA4mABIKIAQIAbUQIAejFpLEhxAgBAIQIAcTAAkFEAKEgFoIkINRC0niQwgQAgEIkIMJgIQCCAFCQC0EyMGohSTxIQQIgQAEyMEEQEIBhAAhoBYC5GDUQpL4EAKEQAAC5GACIKEAQoAQUAsBcjBqIUl8CAFCIAABcjABkFAAIUAIqIUAORi1kCQ+hAAhEIAAOZgASCiAECAE1EKAHIxaSBIfQoAQCECAHEwAJBRACBACaiFADkYtJIkPIUAIBCBADiYAEgogBAgBtRAgB6MWksSHECAEAhAgBxMAiaSADe2uu05SAiI2PwJYpnBi4hfm19T8GpKDUVBGcMLezbclJZGTUYCh2ZKic7k9OfkLOKa1t9l0s6I+5GAUlho5GYUAmig5ORf1C4McjAqYkpNRAUSDWZBz0aYAyMGohCs5GZWANIANORftQCcHoyK25GRUBFMnVuRctAWaHIzK+JKTURlQDdmRc9EQ3ArW5GA0wJicjAagqsySnIvKgIqwIwcjAozSYHIyShHULj05F+2w9edMDsYfERWfycmoCKZKrMi5qAQkIxtyMIxAySUjJyMXOfXTkXNRH9NQHMnBhEJIhXhyMiqAqJAFOReFAMpMTg5GJnBSk5GTkYqYevTkXNTDUioncjBSEVNAX+lkevRQwIWSSkGgHWBNa4ukIKYuLTkYdfEMya3cySQnb0DDp0tbBMqdy6BBtHBRW5iDcicHExQebSLJyWiDqy9Xci6+aBh3Tw7GIOzJyWgHPDkX7bCVypkcjFTEVKQnJ6MimBWsyLmoj6kSjuRglKCnQlpyMiqAWMGCnIt6WKrFiRyMWkgq4INO5vZBgzY369BBAZfqnRSxQwxpJzpz2QE5GJOUh9PpTOl5330m0cZ6aiB2iKH1NLe3xuRgTFK+Q4cO3VW7YUOTaGM9NRA7xNB6mttbY3Iw9i5fyh0hYCgC5GAMhZ+EEwL2RoAcjL3Ll3JHCBiKADkYQ+En4YSAvREgB2Pv8qXcEQKGIkAOxlD4STghYG8EyMHYu3wpd4SAoQiQgzEUfhJOCNgbAXIw9i5fyh0hYCgC5GAMhZ+EEwL2RoAcjL3Ll3JHCBiKADkYQ+En4YSAvREgB2Pv8qXcEQKGIkAOxlD4STghYG8EyMHYu3wpd4SAoQiQgzEUfhJOCNgbAXIw9i5fyh0hYCgC5GAMhZ+EEwL2RoAcjLnK9/MrevY0l0YW0KYCs88toGq1U5EcjImKHE4XuPXWhx/+sNPNN5tIK3OrglghZoiduTWtntqRgzFZucOxG3f3uv/+t6+8/XaTaWY+dRAjxAoxM592pBEiQA7GhHYAb+P7bvjXv1Z269vXhNqZQyXEBjFCrMyhEWkhhAA5GCFUTBAGb+WHr73nniU9+vUzgTbmUgExQWwQI3NpRtr4I0AOxh8REz3D23lotz59XrmBDmSrLBXEAjFBbCoD6ca0CJCDMW3RXFQM3tKZV9522wu9HnjA5Jpqrx5igFggJtpLIwlqIEAORg0UNeYBFWp85169pt+alKSxJPOyx7wjBoiFebUkzfwRIAfjj4hJn6FiTbni+usn3jF4sEk11E4tzDPmHTHQTgpx1gIBcjBaoKoRT6hgzyZ27z6mb3q6RhLMxxbzinnGvJtPO9IoFALkYEIhZLL4tLS0Oa26ds34+6hRJtNMfXUwj5hXzLP63ImjHgiQg9EDZZVlwNs8p3nHjoP+MXasypzNww7zhnnEvJpHK9JEKgLkYKQiZhJ6eKuvaNK27YB/T5hgEo3UUwPzhHnDPKrHlTgZgQA5GCNQV0kmvN3faNSqVb8BkyZxnMOhElcD2UAeMC+YJ8ybgZqQaJUQIAejEpBGsRk2bNh79S+//I4Hn3qKc4RJL856l18OvsmxTS39kRfylHqh7pgHzAvmSWp6ojcnAtIt0pz5qNZawafEJ/WbNLkpecYMLjI2lhkLV0QE9/eRI71Op3Mgc6IQhMgLeSJv1gt1Rt0xD5gX1nREZ34EbNCuNj/Iemm4cuXKmufPn//0py+/7L7xjTc4d2mpoOjwyEjuxv79uQ49e24uKSnplZmZWSxIKDNw3rx5kRERERt+/uqrazetWcOVFguzd4aHc70GDEA9tsTFxd0+cODAczJFUjKTIkAOxqQFo1StRYsW9fJ4PMO9Xu/NpSUl9Tmvl4uIijoGz+uhlZEDnyEblMpgSY96uN3udPh06l1SVNQA+4oiIiOPQdoNYWFhWXrpwaIr0RAChAAhQAgQAoQAIUAIEAKEACFACBAChAAhQAgQAoQAIUAIEAKEACFACBAChAAhQAgQAoSApRH4f9pyM5AukEEOAAAAAElFTkSuQmCC;" parent="1" vertex="1">
                    <mxGeometry x="528.66" y="129.87" width="71.92" height="118.13" as="geometry"/>
                </mxCell>
                <mxCell id="12" value="" style="rounded=1;whiteSpace=wrap;html=1;arcSize=5;dashed=1;fillColor=#f5f5f5;strokeColor=#666666;fontColor=#333333;" parent="1" vertex="1">
                    <mxGeometry x="40" y="80" width="270" height="170" as="geometry"/>
                </mxCell>
                <mxCell id="3" value="" style="shape=image;verticalLabelPosition=bottom;labelBackgroundColor=#ffffff;verticalAlign=top;aspect=fixed;imageAspect=0;image=data:image/png,iVBORw0KGgoAAAANSUhEUgAABLYAAAQTCAYAAAB5t6DIAAABg2lDQ1BJQ0MgcHJvZmlsZQAAKJF9kT1Iw0AcxV/TiiIVh3YQUchQnSyIijhqFYpQIdQKrTqYXPoFTRqSFBdHwbXg4Mdi1cHFWVcHV0EQ/ABxcXVSdJES/5cUWsR4cNyPd/ced+8AoVFhmhUaBzTdNtPJhJjNrYrdrwhDQATDCMnMMuYkKQXf8XWPAF/v4jzL/9yfo0/NWwwIiMSzzDBt4g3i6U3b4LxPHGUlWSU+Jx4z6YLEj1xXPH7jXHRZ4JlRM5OeJ44Si8UOVjqYlUyNeIo4pmo65QtZj1XOW5y1So217slfGM7rK8tcpzmEJBaxBAkiFNRQRgU24rTqpFhI037Cxz/o+iVyKeQqg5FjAVVokF0/+B/87tYqTE54SeEE0PXiOB8jQPcu0Kw7zvex4zRPgOAzcKW3/dUGMPNJer2txY6A/m3g4rqtKXvA5Q4w8GTIpuxKQZpCoQC8n9E35YDILdC75vXW2sfpA5ChrlI3wMEhMFqk7HWfd/d09vbvmVZ/PwzEcn6+gl+tAAAABmJLR0QAAAAAAAD5Q7t/AAAACXBIWXMAAC4jAAAuIwF4pT92AAAAB3RJTUUH4wwCEycw0YF55gAAABl0RVh0Q29tbWVudABDcmVhdGVkIHdpdGggR0lNUFeBDhcAACAASURBVHja7N15YFTl+fbxazJLMlnJnkA2JKyKsgqBWKiICygo6ovlp1UrxValUKlbEcWFyq4Uiy1FLdZSKchiQbBKC4oiKFGJAkaQsCYQQsgCgSST8/7BIiDLAJNk5pzv5y9JYjLnPs81Oc+d5zzHdt3wGwVYwZxnZ+ndd9/V17m5ys/PV2FhofaX7FfJ/hJ5PJ7jX+dyuRQWFqaoqChFREQqISFeKSkpaty4sRo3aaLUlFQ1b9FcA0YOpKgwc14MH+fFRlXNY96Y2fou7zvl52/RroIC7dq5UwUFBdqzp0jFxcWqrDyoAwcOqKqq6vj/Y7fbFRkZqdjYWMXHx6tZs2a6rG1b9enTR7c/NYiiwsx5MXycF95PAQA4gY3GFqzixmbXadLEiT77fhkZGWrduo3aXNpGrVu1UtvLL9fPX7iPQsMseTHqIS9MzgLAG0+8qrWff671GzZo03ffaePGjcrPz/fZ9x/xu99p0eb3KDTMkhejHvLCeycAACegsQXLOPxFuU8vLk+nceMm6tK1i7p06aKsrl015KWHKDwCNS9GA+SFyZofmD78ZX20cqU+XbVKaz9fq4LCgjr9eRkZGQpuH0HhEah5MRogL7xXAgBwAhpbsITnBj2l/3f77fX+cxs3bqKrrsrW1b16KTs7m9sXESh5MfwkL0ze6sHs0W/qk48/1ooVK/Thig/rfGJ+Ov986y2Nnj2Gk4FAyIvhJ3nh/REAgKNobMES2tpbau7cuQ36Gux2u7KysnR1r17q27cvty3Cn/Ni+GFemMT50OuPTtfSpUv1/n/+ozVr1py0b1pDuGXAAK03vuPEwF/zYvhhXnhPBADgKBpbML15Y2arU8eOqqys9KvX1aFDB/Xp00d9+vbVveOHcKLgL3kxAiAvTOgubHKuf7/zjhYtWqzc3HV+9drcbrc+X7uWVa3wp7wYAZAX3gsBAJAURAlgdsuWLfO7Sbok5eTk6Pnnn1e3rCw12hmquzrdodmj3+SEgbycOy/GXZ3uMGaPftPgjJ3drFEzNaj97Qrb6lS3rCy98MILfjdJl6TKykq9/5//cMLQ0HkxBrW/3Qjb6jTICwAAgYMVWzC9lLIELVu2LCBeq8vl0rXXXqvbbrtNP/nJVbphxM2cQNR3XowAzgurFyQtmjBfH374oebOmatlyz5QVVVVQLzunj17qiC6mBOI+s6LEcB54T0PAADR2ILJzR79pjp26NDg+2FciOSkZN16+20aNGgQtyqivvJimCQvlpzszRjximbPnq25s99S4Z6igHv9drtda3NyNHD0nYQR9ZEXwyR5obkFALA8bkWEqS15d0lATtIlqaCwQC9PnaqrsrOVUpagJwc8qiWTFnBSQV7OnRfjyQGPGksmLTD9rYpLJi3QI32HKbkkVldlZ+vlqVMDcpIuSR6PR0uXLiWIqMu8GI/0HWYkl8Qa5AUAAPNgxRZMLb4oSitXrjTN8WRkZOjnd9+tgQMHssky6iIvhonzYqpVDXOenaW5c+fqjZkzlZ+fb5rjys7OVlF8KWGEr/NimDgvrNgCAFgejS2Y+UJW7du1C9gVKGcTHh6un/3sZ/r53Xdr8KRfc7Lhk4mfRfIS0JPAGSNe0Yy//lVvv/22KioqTHeuuB0RPs6LYZG80NwCAFgatyLCtP67bJkpJ+mSVFFRob/+9a/q2aOHmlena/Ivx3HCQV68y4sx+ZfjAu4WxQn3jlHz6nT17NFDM2fONOUkXTpye9WyDz4gkLjYvBjNq9MN8gIAgDXQ2IJpvfee+R+F7fF4tGjRIvXt00fJJbF6btBTnHiQF+/yYjw36Cm/b3CNuvUxxRdFqV+/flq0aJFpm48n+uCDZQQSF5oXI74oyiAvAABYC40tmNKiCfP10UcfWuqYly9frv93++0K2+rUE/1HMAhwPnkxLJwX44n+I/yuwfVE/xEK2+rUnXfeaap9Ar3x0UcfatGE+QQT55MXI2yr07BwXgxGAQDAymhswZRWf/qpaW89OJecnBzdc889NLhAXs4vL37R4Hr4hqFybbLpnnvuUU5OjiXPSUVFhT5dtYpgwpu8GK5NNoO8kBcAgLXR2IIprVixwvI1oMEF8nJBeWmQBtcT/UfItcmm+4cMUW7uOsufj+XLGZM4a14M1yabQV7ICwAAEo0tmHai/iFFOGXC3mhnKHtwgbx4n5d62YNr9MCRCtvq1D333MME/QQfffQRRcDp8mKEbXUa5IW8AABwIhpbMJ3XH52uvLxvKcQpVq9Zrf93++1KKUvgKYo4MS8GeTlrXurkKYoT7h2j+KIo/eyOOyx7C9XZ5OV9q9cfnU4hcCwvRnxRlEFezpoX9tkCAFgWjS2YzprVqynCWSxbtkx9+/RRq9pmmjHiFQpCXiiCd3kxZox45aInjjNGvKJWtc3Ur18/y21yfb4+/vhjimBxM0a8YrSqbWaQF/ICAMDZ0NiC6axiE1WvLFy4QL2uvlo94rtp9ug3KQh5gXd5MWaPfvO8G1yzRs1UdkwX9ezRQwsXLqCgXlj96acUwaJmjZppZMd0McgLeQEAwBu264bfSBVgKuWr92nXrp0U4jxER0dr6G9+o7vuuks3PnILBbFWXgzyclF5sZ3taxdNmK+Zf/ubXnrpJcs+efJCNW7cRBFdYiiEhSyaMN8gLxeVFxuVAABYESu2YCqvPzqdptYFKCkp0bPPPKPe11yjR/oOoyDWyQtNrYvPyxlXb/2uz2/U+5pr9PzzzzNJvwC7du3kdmkL+V2f3xjk5aLzwj5bAABLorEFU/n8888pwkXIz8/X4MGDFV8UpWlDp1AQ8gLv8mJMGzrl+IRy6gOTFV8UpV/+8pfKz8+nUBfhyy+/pAgmN/WByUZ8UZRBXsgLAAAXisYWTGUtE3WfWLlypa7t3Vs/ieuqOc/OoiDkBd7lxZjz7CzjhuuvZ6NrX03Uv2CiblZznp1ldI3sQF7ICwAAF409tmAqrk025eauoxA+FBcbpyd+/4Smr/wbxahH88bMVkVFhaqqqlRVVaVDhw4d/9yhQ4dUVVV1/N+HDx3S4RP+LUlhoaGyOxw/ZMPlUkhIyPF/h4eF6aGHhhrkpW7yMmLECPa68YEOHTroQHq1N3kx6jovTpdLoaGhGjj6Ts7tRRqSfY/xwh9e0N7ivRTD93lhfAIALIfGFkxj4di5urRNG3k8HopRRxfMY8eN09BpD1MML8x5dpZK9u3T3uJi7d+/X8V7i1VSsk/FxftUWrpfBw4cUGVlpSrKK1RWXqbKykodOnhAFQcr62V/mY3ffmuQl7rPy7W9ezPJ9MK63FzDn/NyKpfLJXdIiMLCIxQa6pbbHapQt1vhEeGKjo5WdHS0GjWKVlSjKMVERysyMlJxcXGKjIpSTEyM+j9+myXHxeRfjjNGPfmkcnJyGPR1wO12a11u7jkfagEAgNk4KAHMYuOGjUzS61BOTo5uuP563XffYA0bPkwDRg60ZB1mjZqpwsJCFezapcLdu7Vjxw7t3r1bRXv2aM+eIpXt36ei4n26fH5b8kJeNGTI/caw4cN0aZs2lpxors3JMbzKS9u2AXVcx1aGlZaVXWgDwkhMTFRycrISEhKV3DhZCQkJio+PV+PGjY//t1kaYHOenWW8+OKL6nfTTbzv1KHKykrl5eVRCACA5dDYgml8/c3XFKGOeTweTZ/+Fy1atEhPj35ak5dMNd0xvv7odG3dulXbt23Xtu3bVFhQoMLCQhUWFmrbtm3qOL8DecF55+Uv06cb9w8ZYrrm1ierVhlnzUuHDgyEMzQg8vPzz7lZelxsnJGWnqbU1DSlpqUqPT1d6enpSklJ0b3jA2M8Dev9a+O63teqoLCAE18P1n3F7eUAAOvhVkSYRoeQy/TPf/6TQtSjXr166bnnn9e944cE1OuePfpN5eXl6fvvv1d+fr6+y8vT9u07lJ+/5aS9eMzsZz/7mUFeGiYv3bKyAqrB9eVXXxlWz4s/crlcSktLU3p6utLS09WieQs1y2ymFi1a+MU+YK8/Ot0Y9eSTWrZsGSerHg0cOFBfVq3nVkQAgKXQ2IJ5LvLZOL5BhIeH6/EnntDfP3/L717bsQZWXl6eNm7YoO/yvlPed3kqKSmx/Hlr2/ZyNo5vwLw8OXKk3008jzWwyEvgS0qIV2aLlmreokW9N7wWT1xgvPHGG5o8aVKD7H9mdWwgDwCwIhpbMI1tSzepsrKSQjTgxfSEiRP1wNRhDfLzpw9/Wd98843Wb9igr3Nz9e3Gb7n15SzcbrdBXho+L72uvrpBJqArVqwwyIv1JCclq82lbXT55VfosraX6bLLLtPPX7jPZ2Nw6gOTjREPj+CPTA0oPDxcTXo3pbEFALAUGlswhRkjXtFV2dkUooG5XC49+OBDeuDBB3TjI7fU2c95/dHp+vKLL7QuN1dfffmlcnNzWRlwHj5audIgL/6Vl+aZmXU2Ef1k1SqDvOBMkhLidWnbyy+q2bVownxj2p+m6U9/epnbU/3A6jVrfNqwBADA37F5PExh86ZNFMEPVFVV6cUXJ2vp0iWaPGmSHv7rYxf9PeeNma1169YpZ22OcnLW6qsvv1K3+VkUm7yYKi+L333X6Nunz0VPRL9Zv974UV6yyAvOrHBPkQqXLTtpL6zGjZsYnTt3VucrO6tTx45q0aK5bhhx82nH56TBY41+N92kDRs2UEw/8R1PRgQAWAyNLZjCJibqfmXDhg3qd9NNemjoUD300EPntXpr1qiZWv3pp1q9erVycr7Q5W3b8nh48mKJvAwbPtx46KGHzmv11tqcHIO8wNd27dqphQt3auHCBZKO3N7WqVMno2OnTurUqZMuv/xy2e12vfzyy+rfrx9jzs9s/v57igAAsBQaWzCFcz0yHfXP4/Foyksv6T/vvXfW1VtvPPGqVq9erVWffKLPPvtMHTt0oHjkxdJ5OdvqrdVr1hjkBfWtoqJCy5cv1/LlyyVJdrtd0Y2itbd4L8XxQ6zYAgBYDXtswRTii6K0cuVKCuGn7Hb78dVblZWVWrN6tT7+5BN99OGHrB5qANnZ2QZ5IS8ATPser6L4UvbYAgBYBo0tmMLhL8pZhRIA4mLjVLK/hNtWGlhGRoZBXsgLAHPKzMyUva2bxhYAwDKCKAHMYPv27RQhAOwt3ssknbyAvACoQzt37qQIAABLobGFgPfGE68y+QO8tHrNGoO8AIB5VVZWavboNw0qAQCwChpbCHi7CwspAkBeAABHFRYUUAQAgGXQ2ELgT9R376YIAHkBABy1c9cuigAAsAwaWwj8ifqePRQBIC8AgKMKWLEFALAQGlsIeKX7SykCQF4AALzXAwAsiMYWAt7e4r0UASAvAICjSktpbAEArIPGFgLevuJ9FAEgLwCAo0pL91MEAIBl0NhCwKuoKKcIAHkBABxVVsZ7PQDAOmhsIfAn6uUVFAEgLwCAo/bvL6EIAADLoLGFgFdWXkYRAPICADhq/35uRQQAWAeNLQAAAAAAAAQkGlsIeKWlrEAByAsAgPd6AIAV0dgCAAAAAABAQKKxBQAAAAAAgIBEYwsAAAAwkbKyUooAALAMGlsIeLU1VRQBIC8AAAAALIjGFgJexcFKigCQFwDAUSHBIRQBAGAZNLYQ8MJD3RQBIC8AgKNcwcEUAQBgGTS2EPiD2OGiCAB5AQAAAGDFOQ4lQKCLioqkCAB5AQAcFcrqXACAhdDYQsBzOJwUASAvAICjnE7e6wEA1kFjCwEv1M1fJQHyAgA4xs17PQDAQmhsIeCFR4RTBIC8AACOio6OpggAAMugsYWAx18lAfICAPhBeHgERQAAWAaNLQS82NhYigCQFwDAUY0aRVEEAIBl0NhCwIuLj6cIAHkBABwVEckTcAEA1kFjC4E/UY+NowgAeQEAHBXPHzEAABZCYwuBP1GP49YqgLwAAI5JSkqiCAAAy6CxhYAXw55BAHkBAByXmJBIEQAAlkFjCwEvOTmZIgDkBQBw7L2+Me/1AADroLGFgHfv+CFyuVwUAvBCt6wsG3kBAPOy2+08ARcAYCk0tmAKaWlpFAEgLwBgeampqer7u5ttVAIAYBU0tmAK6enpFAEgLwBgeRkZGRQBAGApNLZgCikpKRQBIC8AYHlNL7mEIgAALIXGFkwhnb9OAuQFAKDU1FSKAACwFBpbMIXWrVtTBIC8AIDltWjenCIAACyFxhaYqAPkBQBglvf4Nm0oAgDAUmzXDb+RKsAUylbtVUFhAYUAvJCclGyQFwAw3Xu7IrPieCIiAMBSWLEF02hzKX+hBMgLAFhXy1YtKQIAwHJobME0WHoPkBcAsLLL2ralCAAAy6GxBdPo1LEjRQDICwBYVvv27SkCAMByaGzBNNpxMQeQFwCw8nt7u3YUAQBgOWweD1Px5FZq06ZNFALwQmZmpkFeAMAcMjIyFNw+go3jAQCWw4otmEpHbq8CyAsAWFBWVhZFAABYEo0tmEr2VVdRBIC8AIDlZHXrRhEAAJZEYwum0o2LOoC8AIAFdenShSIAACyJPbZgOkEba7RhwwYKAXihdevWBnkBgIB/L1dtKwf7awEArNkDoAQwmx49e1IEgLwAgGX0uuYaigAAsCwaWzCd66+7niIA5AUALKN79+4UAQBgWdyKCFMq/bhQhXuKKATghaSEeIO8AEDg6nJlF732t9c1YORAbkcEAFgOK7ZgSj/txZJ8gLwAgDWsXrNag++7T/PGzDaoBgDAamhswZRuGTCAIgDkBQAsY9WqVbp/yBAtmjCf5hYAwFJobMGUOnXsoOSkZAoBkBcAsIyVK1dq6EMPafHEBTS3AACWQWMLpnTDiJvV/5abKQTghUsuaWYjLwBgDkuXLtXjjz1GIQAAlkFjC6b1szvuoAgAeQEAy5k7d65+mpTNqi0AgCXQ2IJpvf/++xQBIC8AYEl/fuUVDWp/O80tAIDp0diCKT3U6349//zzFALwwtSXXzbICwCYz7PPPKOHbxhKcwsAYGo0tmA6zw16SiMefphCAF7415w5BnkBAHPyeDwaPmyYJg0eS3MLAGBaNLZgKlMfmKxf3HuvqqqqKAZwDv95/32DvACAuVVWVmrwvffo9Uen09wCAJgSjS2YxhtPvKq77/q5KioqKAZwDqvXrDHICwBYQ+GeIt0/5H4tHDuX5hYAwHQclABmsGjCfA24ZYAKCgsoBnAO323aZJAXALCW3Nx1euzRx/izNgDAdPjVBlN49NFHlZu7jkIA5AUAcAYLFy7QgFY3smoLAGAqNLYQ8G6/tL/mz5tHIQAvPPnkkwZ5AQDrGj9+vEYPHElzCwBgGjS2ENBG3fqYXnjhBQoBeOHNN980yAsAWJvH49HQBx/SG0+8SnMLAGAKNLYQsGaMeEUPPvCAPB4PxQDO4aOVKw3yAgCQpL3Fe/Wbh4Zq8cQFNLcAAAGPzeMRkI5tFl9aVkYxgHM4tlk8eQEAHLN6zWpNnTqVQgAAAh4rthCQxo8bx+bXAHkBAFyEl6dOZb8tAEDAo7GFgPNI32H661//SiEAL8yYMcMgLwCA0/F4PHp4+G81e/SbNLcAAAGLWxERUF5/dLr69ulDIQAvfLJqlUFeAABnU1BYoCdHjpSc1AIAEJhYsYWAsXjiAv122HCVlJRQDOAcNm3ebJAXAIA3Fi1apF/3uI9VWwCAgERjCwHj1RkztHrNagoBkBcAgI8988wzeuOJV2luAQACDrciIiBMGzpFN1x/PYUAvLDsv/81yAsA4HyUlJTo9088IUVSCwBAYGHFFvzeognzNXzYcFVVVVEM4By+27TJIC8AgAuxbNkyPXj1EFZtAQACCo0t+L0///nPys1dRyEA8gIAqGPPjn6GpyQCAAIKtyLCr025f4L69etHIQAvLF261CAvAICLsbd4r174wx8oBAAgYNiuG34jVYDfCtvqVE5ODoUAvNChQweDvAAAfOHtefP0+78/baMSAAB/x62I8Fv3dr2TphbgpbHjxtHUAgD4zJMjR2rxxAXckggA8Hvcigi/NGvUTF3TqxeFALywNifHIC8AAF/asGGD/vGPf1AIAIDfY8UW/NL4ceNUUlJCIQDyAgBoIJMnTmQjeQCA32PFFvzOH+56RrcOGEAhAC+8PW+eQV4AAHWhtKxMU6ZMoRAAAL/G5vHwO65NNuXmrqMQgBfatr3cIC8AgLpit9v1n/ff1wNTh7GRPADAL3ErIvzKQ73up6kFeGnqyy/T1AIA1CmPx6OJEyZSCACA3+JWRPiNRRPmq8dPelAIwAvfbdpkkBcAQH1YsuRdLViw0Hhs5pOs2gIA+B17ZtcWVAF+wbO7WosW/ZtCAF6Ijo4eTV4AAPVl69atqgyveoZKAAD8DSu24Bdmj35TP+3Zk0IAXvjyq68M8gIAqE+rVq3SP996yxg9ewyrtgAAfoUVW/ALxRv3aOVHH1EIwBs222jyAgCobzu2bdehyGpWbQEA/Aqbx6PBzRo1UzP/9jcKAXhhbU6OQV4AAA1h9ZrVGj1wpEElAAD+hBVbaHAHtpZr5cqVFALwgtvtHk1eAAANZXdhoQ6GHWbVFgDAb7DHFhrU7NFvKrt7dwoBeOHLr74yyAsAoCGtXLlSixYvNkbMeJy9tgAAfoEVW2hQh7Yf0IrlyykE4IWw8PDR5AUA0NDKysq0z17Kqi0AgF9gxRYazLwxs1mtBXjpm/XrWa0FAPALS5Ys0fIVK4zBk37Nqi0AQINj83g0mNmzZ6ukpIRCAOQFABBAPB6P3pg5k0IAAPwCK7bQIJZMWqCrr+5FIQAvfP/9ZoO8AAD8yT//+U+tXrPGGDByIKu2AAANihVbaBD/W75C+fn5FAIgLwCAAFRRUaH58+dTCABAg2PzeDSIvI83aNu2bRQC8MK+4uLR5AUA4G8KCgpkxAWxiTwAoEGxYgv1buoDk7Vy5UoKAXjhP++/b5AXAIA/2rBhg/5w1zMGlQAANCRWbKHe7V1fqHXr1lEIwAuGYYwmLwAAf1Xr8WiPUcyqLQBAg2HzeNSrhWPnqlPHjhQC8MLGb781yAsAwJ8tXrxYn69dyybyAIAGw62IqFdLlyxRRUUFhQDICwDABCorK7V40WIKAQBoMDS2UK/mzp1LEQDyAgAwkbf5fQUAaEA0tlBvXn90OpvGA176ZNUqNo0HAASE1WtW6/VHp7OJPACgQdDYQr2ZP28+RQDICwDAhP79zjsUAQDQIGhsod7MmfMvigCQFwCACS1iny0AQAOhsYV6MfmX45Sfn08hAC8sfvddg7wAAAJJbu46zRjxCrcjAgDqHY0t1IslS5ZQBIC8AABM7L2lSykCAKDe0dhCvfjPe/+hCAB5AQCY2LvvvksRAAD1jsYW6ty0oVOUl/cthQC8sOy//zXICwAgEH311VeaNWomtyMCAOoVjS3Uuffee48iAOQFAGByHo9Hn3zyCYUAANQrGluocx+8/z5FAMgLAMACVixfThEAAPWKxhbq1KxRM5WTk0MhAC+szckxyAsAIJCt/HAFRQAA1CsaW6hTLEcHyAsAwDoK9xRpyv0T2GcLAFBvaGyhTq386COKAJAXAICFrFjBqi0AQP2hsYU69dFHKykCQF4AAJb6fcYfagAA9YfGFurM9OEva9eunRQC8MKKFSsM8gIAMIO1a9dq8cQF3I4IAKgXNLZQZz5ayeoTgLwAAKymsrJSGzdupBAAgHpBYwt15tNVqygCQF4AABa0du1aigAAqBc0tlBncnK+oAgAeQEAWPH32tocigAAqBc0tlAn3njiVfbXAry0es0a9tcCAJjKZ599RhEAAPXCQQlQF9Z99RVFAMgLAMCidu3aqdVPzDd+/sJ9NqpRPxZNmK+ioiLt2LFDJSUlKikpUfHeYu0t3qv9+/erZN8+VR6sVFl5mUpLy1R1+LAOHT6k0tJSeTweSVJFecU5f054RLjsdrs8Ho/sdrtcLpfcbrckKTIySqGhbrndoQoPD1NoaKjcbrfCwsIUGhamsLAwNYqKUnR0tGJjY9WoUbRi42IVExOjASMHchIBXBAaW6gTa3NYfg6QFwCAlX355ZcUwYcWTZivbdu2adOmTdq8ebO25udr586d2rFjh3bt2qX41+JUW1tb56/Dm+bXhXA6nWoU3UjxsTGKT0xWSkqKEhLilZqaqsSkJCUmJh79WIL6/u5mBgSA42hsoU58nZtLEQDyAgCwsI0beDLihVg0Yb7y8vKUm5urr3NztX79em3etElJCYmqrq427XFXV1eraE+RivYUSRu+PePXBQUFKSU1RU2bXqL09DQ1y8xU04wMZWQ0VUbTDA0cfSeDCLAYGlvwuSWTFujyy6+gEIAXvv9+s0FeAABmtHHjRimEOpzN4okLtP6bb7RmzRqtXZujDRvWm76BdbFqa2u1bes2bdu67bSfj4mNUdu2l6tlyxZqc+mlat26tVq3bk3DCzAxGlvwue3bd6iiooJCAOQFAGBh332XJ3tbN4U4wbwxs/Xpp5/qs88+08crP1Zaamqd3dpnVfuK92nF8uVasXz5SR9vktJErVu31pVduqh9+/Zq166dfv7CfRQMMAEaW/C5TZs3UwSAvAAALG7Lli3auPRb48ZHbrH0BvLj7n5eHyz7QMs++EBpKamsxmogO3fs1M4dO/XB+x8c/1haepratWunzp2vVPZV2briiivYvwsIQDS24PuJ+nffUQSAvAAALM7j8SgvL89yxz3n2Vl67733tOyDD7R06VL9ZMZVDAY/deyWxncWvqNaGYqMiFDXrl3VrXt3de/eXZ07d6bRBQQAGlvwue+YqAPkBQAASd9ZpLE1e/SbWvLuEi2YP19N0zNYlRWAgmRTRXmFPnj/g+OruqIaRalXr1766dVXq3fv3rp3/BAKBfghGlvwuW+/zaMIAHkBAMDUt9wvHDtX7yx8R2/PnatmTS+hmWVCpftLNe/teZr39jxJBRZsHgAAIABJREFU0mVt26pf/34aMGCAhk57mAIBfiKIEsDnFzCbWIECkBcAAKT8LVtMd0wT7h2jtvaWap6ZqcH33aclS5bQ1LKIr3Nz9Yfnx6hTh44q/bhQP4nrqmlDp1AYoIHR2IJPvf7odFVWVlIIwAufrFplkBcAgJnt2rXLFMcx59lZuv3S/ipfvU/Z3bM1/S/TVbq/lBNsYes3fKtxY8ep/RXt5Mmt1MDLB2jOs7MoDNAAaGzBp3bs2EERAPICAIAkadeO7QH9+qcNnaK29pZq1bKlHv7tw/o6N5eTih9Zs3qNhv9mmFq1bKlWtc00afBYigLUI/bYgk8VFhZSBJxRQnTU8f9OjIk67dcUlVeqtrpKkrSnpJS8gLyQFzSAMHeIwkKCTxp/oSHBCgl2/vA1ISFHPu4OVtEJ429facXx8VlxsFIVFRUU1MrXhnuKtHzsSqP/47fZAul1PzfoKb04ebLaX9GOkwivVZRX6PXXXtPrr72mHj17avhvh2v8v1+kMEAdo7EFn2IFijXY7Xa1yWii1MQ4JcREqUlCjKLDQxXhDpbD6VCITQoKOrIgtLa2VpJkGMYF/zyb7Ydr4VO/7yFDqqmuUVV1tQ7X1OpwjUcHDx1WxcFKlVZUqqLykLYX7tXBQ4e1rWi/SsvKyAvISwDmBd4Jc4coOa6RYiMjlJoUp3B3iKLC3QoPdSs0JFiRIU65nEeaU2FOu2w220WNP5vN9qOvPzYGT/z4iT/H4/HoQLVHVdXVKtxfoYqDlfpuW6G2796r3M3bOIkmtDuA/pDz5IBHNX78BF199dUKko2Thwu2YvlyrVi+XB06dtDIkSM18d0/UhSgjtDYgk/t2rmTIphIeHi4fnJ5CzVPS1Jm43iFhroVag9SbW2tDMM47eRFMmQYRyYuvnLi9z/1+wZLCnbaFea0n/DRiLNOwk6cxBmGcXyCVXao+qRJ/p59pSouLVdxWbkKSyp8vuqAvJAX8oIzSUqIV3yEW6mJcQp1ByvcHaImCTEKDQlWsMN+xsbomZpSp2tAHRsvFzP+zvQ9z/Vzwo6Ow+jQI6u+OmemnjTmDnpqVVJ2QF9/v0MbtuzQ5xu/92lOUL+2b/f/2xFH3fqYxowZo759+koSTS34TM7aHN064FZ1z+6uCRMnasSMxykK4GM0tuBTBQUFFCFA2e12dWp1ibq2ba426Y0VGeI6zSTi5InJxawqaSinm8SdPMGKOGkieOJxnjrJP3H1y6mT/IrKQyoqKdWhw9XaVlyhstISHag8RF7IC3m5wLwEmqjISMVHhSo2MkKxURHHm1PHVk9Fh4cq2BEkl9N50sqpE5tTJzajLrYxGijj79iYC5aUFBmq5PYt1bt9S0m9jrxvlh5pdr37cQ633waQXbv89/fdpMFj9dSoUepzQx9OFOrUxys/Vna37ho2fJieHDVKNz5yC0UBfITGFnx84bKLIgSQzNQk9e3eQW3SGyvc5TjrSg8rOnUieOok/8TVL6dO8k+dlJ460ZekZ//1PwYheSEvXublWMPn8NFVFKe7pfKYioMnP220tMK7p49GhbtP+nd46A//PnYbnyS5nE45nEcuoUKOLuo416qp0zWuzlavU2saiI3RuhhXSZGhSmrXQte0ayGbzab84jJ9/OVGvbf6K3Lox3bv2e13r+mNJ17V0089pW5dszhBqDe1tbV6cfKL2rOnSAqhHoCv0NiCT7EZtv9r2yxNd1yXrYzYSCZNDTzRJy/kBd7n5ZhgHfm6E2+pPP1qph+c6/Pn+prT38ZnHP36I/86V1PlYm/5w+lrmh4TofSrO+uu3l21t/yAlnyaS5PLD+0v2e83r2Xh2Ll65ZVX1L5dO1WUc8s0GsY/3nxTH370kR6b+STFAHyAxhZ8qoyNhv1SQnSUfnZdd13ZPO345IyJOXkBeTGLc50fb87f2b6G8+//PB6PokNDNOhok+v7ov16672VbEbvJ0pL/aOx9eSAR5Xdrbvy8vI4KWhwHyz7gCKcxZJJC7RzV4G25ueroLBQ+4qLVVVdrfKycrlD3XI5XYqJiVFMbIyaNm2qtLQ09X/8NgpnUTS24DPzxszWpfPbUAg/0uXS5vrFjT2O3zZVX5Mzu90uh8N+0r/PNSE5pqbGc9YNkM2i/aBhhuf5vzBIyQt5gd87dhvlsXF6bIw6nU5VV1cf/+8zOfY1x8ZvXY9bj8ej9JgIPfazG3RYNi1Z9ZXmLlvFiWxAJSUlUmTD/fxZo2Zq5O9/f3xjeMAfHDhwgCKcYPboN7X8f//TqlWrtHbtWqWkpKqsvNzrBzkEBQUpMzNTnTp3UqdOndS7d28NeekhCmsRNLbgM6WlbOLqL/p066BBV3c+/m9fTB7sdruCg11yOp1yOhwKCXbJ4XJJkoJdTjmdDgXZ7Qqy+eYpQrWGodqjE/jq6prjHz9cdWSCVFNVpWpPrTw1NaquqTk+eaqPSRN5IS/kBYHmWAPVbrcfH5eSZHc45LQHnTQ+Jcl5dA8xh6PuLhVrDUOHj+6Ndriq+vg4PXTokKqrq3X4cNVF31IYLEM3Z12uW7Pb6721G/T3JR9ym2IDaMjG1kO97teVnTuraE8RJwJ+pXOnTvrk/c8sXYPZo9/U3DlztHDhO8pIS1dtbe1Jnz+fp5PW1tYqLy9PeXl5mvWPWZKkFi1aqP/NN2vgHQM1dNrDDDoTo7EFn9m3bx9FaGA9OrTRkL4/uagJqs1mk9sdolC3W+ER4ccn4XU5uTmdIJtNQY4fT6zcbu932qypqTk+yT9x0nTi5P7QoUOqqfHU+0SHvJAX8oKLYbPZ5HI5T2pUna5J5esmqq/H7bExeqaxemxcHqg4oEOHq1ReUaHDh6vO+2d5PB71bt9S13VsrffWbtDfFvHwjvpUVlYmu9z1PmEe8fDD+r+fDeIEwC916dpVev8VSx77pMFj9fLUqWrTuvV5rco6X3l5eZowfrwmjB+v7tnddf/996tfv5t0w4ibGYAmQ2MLPrO/pIQiNJC2zdL00G3XKsxpP+9JenCwSyEhIYoIC1VYeJiCQ4L9cgJ0QW9wjh8aDN5M8L2Z2B9bRXCxK1zIC3khLziRGRpVdTkuTxyTtYahsrIKVVYeUnl5uSorD3m9j5rH49E17Vqod/uWmr74Q63IWc/gqwfFxcVKUEq9/bxRtz6mrK5dtXPHTooPv9SmdUsNeu5uyx33hHvHaPTo0Sc9jbSumlqn+njlx/p45cdq2jRDI58cpdtuG0CDy0zXC5QAvsJG2PXP5XLp6cG3KT0m4rz+v9BQt2IaRSksPOy8VnRYZQLl7cT+1NtoJO9v+SIv5IW8mPMWyWP7UQUHH2lGneu2P6s1qnwhyGZTo6gINYqKUHJS/PFGV0nJflVUHPBqRaFhGBrS9ye6KbujnvvbQpXynlzn14gJ9fBzFk9coPHjxuvGvjf+6JYmwJ90yequjdpsmeN9/dHpevaZZ5TdPbvBX8uWLfkafN99eumllzRp8iSNnj2GAWmG61JKAF85cPAgRahH53sb1bHJeaPoqHq/TcrMk6tz3UZzpgn+e9vIC3khL97m5dT9w441xqQjzTFJqvYcmcR6amrO+L2qz/A551nOsf3o55z2oCMXTqfsRSX9sB8VDaqGG1vHGl0nNrnKysrP+bTLpMhQ/fm3d+rtlV+wwXwdqo/bl9944lXdcvMtWrF8OQWH38vqlqWNn1qjsTWo/e3q1LGjKsor/Op1fZ2bq+t6X6t7f/ELPff8c7r9KW5bDmRcrcNnaqprKEI9sNvtevb+gV6tOrHb7YpuFKXY2GhWmvjZJIy8kBd4n5dT9w/j/OBs4+VYk6umpkb7S0pVVLzvrPtyeTwe3Zx1ubpemqnf/3m2qqqqKGQdmDdmtjFg5MA66fw+N+gpXZWdrcKCQgqNgNC9e3e9/umbpj7GWaNm6oFf/VpDZ/j3kwlff+01LVv2gV57/XWNmvUsgzNA0diCz1QeqqQIdSwzNUmj7+5//N9n+kt0cLBL8bExiomLYfUAeSEv5AWw5kWuw6G4+FjFxMWorKxCe/YU6eDBM7/3JkWG6vXHfqGxs95V7uZtFNDHqqur6+T73tXpDt1w3fV19v0BX2uS0kSDJ/3a1Mc47u7nld29e8Dsc7dt6zbdcN31+sMLf9C8jYsYpAEoiBIAgaFPtw565p6zb3AYHOxSRkaaWrbMVFx8LJN0kBfyAnCxe3QVV4vmlygjI02hoWd+Op9hGHp8UB/16daBwvm5xRMXqEPIZXrgV7+mqYWA0q1bN1Mf34NXD1GfPjdo+44dAfW6q6ur9cjvHlEbW3MtnriAgRpgWLEFn6k8yAqUunLPjT9V7/Ytz7jixG63KzkxnhUn5AXkBcBZHLtNcX9puQoKCs94i+L/9bpSzdOSNOWtdymaj5SXl/vse80bM1t33XmnFi9aTGERcLKysjTnm4WmPLZB7W/Xz++8S7W1tfX2tENfe/WvM1RYUKCFf5ur/o/fxoANEKzYgs9UVbMnRV0Y+Ytb1bt9yzN+Pi42Rq1bseKEvIC8APBWo6gItWyZqcTEBNlOeS8wDEOGYahzZqrGPMBmwv7mjSdeVd8+fWhqIWB1zcoy5XHdfml/DX3wIVM8kXTxosW6+66fa+HYuQzYAEFjC/BjE39zl1o3jjt+kX2i4GCXWrZoppSUZJ7aBpAXAOd7EWyzKTkpXi2aX3LG2xPTYyI09eG7KZYP+GJT/hkjXlHfG/ooZ20OBUVAimoUpTatW5nuuAZ3v1u/G/E7Ux3TkiVL9OADDzBoA+V3OiWArxw+fJgi+NDUh+9WUmToaT8XFxujli0zeTIYeQF5AXCR3O4QZWY2VWJiwmk/Hx0aor88Nlh2u51iXYRDhw5d1P8/begU9br6auXl5VFMBKzOnTvrhhE3m+qYRt36mH415H5TrNQ61Zx/zVHnsCsYuAGAxhZ8Jjg4mCL4gN1u118eG6zo0JDTfi4jI00pKcncRkVeQF4A+OqC2GZTYmKcWrZodtoGVpjTrmm/u5fmVgOZ/MtxuuH661VYUEgxENC6de9uquOZMeIV3XnnnaZ+gMMfp/xR92X9nMHr77/HKQHgX6b97l6FOX984Rwc7FLrVpmKjAynSAB5AeDri2KbTW53iFq3yjztrYk0ty5OeFjYBf1/kwaPVd8+fWhqwRS6m6ixtWjCfN17zz3aV7zP9Odt+PBhmvrAZAawP/8OpwSAf7Db7Zr68N2nnaRHRUWqeWZTORwOVp4A5AVAHXI4HMrMbKqoqMgffY7m1kVMOi6gZtOGTtGNfftaYuIM83M6nWrfvr1pjmfC+Alas3qNJc5dRXmF7rn7Hi2aMJ+B7K+/YygBfDaYbAyni/HSsDtPeztVXGyM0tNT2PCavIC8AKi392ibmmakKi425kdPTTzW3ELdmj78Zd1w/fU0tWAaHTt1Uv/HbzPFsUwaPFaTJk601Pn7OjdXU6ZMYSD76+9tSgBfiYiMoAgXaMwDg047SU9MTGB/IPIC8gKggaSkJCshIf5HHw9z2jXxN3dRoDryxhOvqt9NN3H7IUwlK6uraY5l+LBhpt5X60xeGPMHTR/+MoPZD9HYAhrYsDv6KD3mx02OlMZJSk6Kp0AAeQHQgJKT4pXSOOlHH0+KDNXIX9xKgXxszrOzdMvNt2jLlnyKAVMxy8bxg7vfbZlbEE9VXV2tkSNHMpj9EI0toAHdc+NP1Tkz9bST9Lj4WAoEkBcAfiAuIe60za02TeJ1z40/pUA+smjCfP3foP/T17m5FAOm06VLF1Nk9Plnn7X0eXxn4Tsad/fzDGg/Q2MLaCA9OrRR7/YtmaQD5AWAvzMMxcXHKqVx0kl7bhmGod7tW6pPtw7UyAd+O3y4VixfTiFgOpdeeqkGjr4z4I9j9uzZrKaUNG7cWAa1n6GxBZ8JDwunCF7KTE3Sr27qKcMwmKSTF5AXAAEiLiFOTZITT/qYYRi6q3dXZaYmUaCzCA0NPevn+2T01hsz36BQMKWu3bJMcRwvT3mJkylp8aLFmvrAZArhR2hswWdsQWzY7A2Xy6Vn7rlZHo/npI8nJiYwSScvIC8A/NkJK7dO5PF49NwvBig8nD9anIndbj/j5x6+YaiefuopigTT6tatW8AfwxP9R2j9hm85mUdN/8tfKIIf4Xno8BmeROadSQ/97EcrT+JiY0yx8bXN7lRQWJRswWEKcrklu1M2h1NGzZGnphhVB1V76IBqD5TIqD5MXkBeyAus8H4XHCabO0JBIWGyuY6s2jk+1j3Vqq2qVO3BUhmHDsjwBMZTtuLiY1XtqdXu3XuOf8zj8WjSg3fo/nEzOOnnYdrQKerZo4dqa2spBkyra9eumvHxzIA+hr///e+cyBPMnj1b323apP6P30Yx/ACNLfhMeEQERTiHYXf0UXRoyEkfi4qKVOMmgXv7QlBYIzliU2WLiJMj1PsxYNRUyVO6RzX7dslTtkey2AUteSEv5AVmZbM7ZY9KkL1RouxRCbI5XF7/vzUHy2XsL1DN/kLVHtjv18eZnBQvT02N9hbvO/6xMKddw+7ooylvvctAOIXT6fzRx+aNma1rru6l0v2lFAimlZaepsGTfh3QxzBvzGw1z8xUrQwFiT/OSlLp/lItXbKEQvgJGlvwmbBz7J1gdV0uba4rm6cdX31is9nkdocoPT0l4Fbv2OxOOeLT5Ei4REHB7gv7Hg6XHLEpcsSmyKipUk3xTtXs/l61hw+QF5AX8oIAFBQcJmeTlnJEJ0tB9gu7MA2NkEIj5GzcQjUHy+XZ871qirf7bTO3cZMkVdfUqLS07PjHOmemqkeHNlqRs55BcYIBIwf+6M17xMMP65tvvqE4MPc1TZcu2qE9AX0My5YtU0V5BU2tU/z73/+WIqmDP6CxBZ9xM1E/cxPDHaLht/U+aZ8gl8upS5qmBdYkPShIruQWciRknNdf4L2ZtDsTm8qZkKGafTtVtf0b0996RV7IC3mBWQQFh8mVdpnsjRJ9e5EaGiFHxhVypbRWdcF3qt79vXTKrckNfuw2m1JTknXo0CEdPlx1/OO/uqmnvty0Q6VlZQyQM7jnyv/T/UOGUAiYXlZWluZ8szCgj2HJu6xMOp1ly5bp++8364YRN1OMhv59TAngs8koE/UzGvvrgSdN0u12uzLSU+VwBE5v2d4oSe7LesnZuIVPJ+knz9htcsSmKPTya+Rq0koy8T5U5IW8kBcE/lVkkFxpbeVue7XPm1onDXWHS67UNnK3vUb2yDj/K4PdruaZTU/aHN3j8ej5wbcwRo46dVP9qQ9M1ogRD1MYWEKWCTaOX778f5zI09hXvE/r1n1NIfzhdzElgM8m6jwJ6LT6dOugmLCTbz9KTW0id6g7IF6/ze5U8CUdFNL8ygu+jeoCZglyNm6h4DY9FRQcZsoJO3khL+QFAX0BGdboSPM2MaOexpxNQcFuhbTsJldaW78a50E2mxwOhzKbZZz08ejQEN3WK4vBcopFE+brnrvvUUV5BcWA6UU1itLDf30soI9hxohXtHPHTk7mGaxe/SlF8IffxZQAvhLKCpQfCQ8P1129u570VLeUxklqFBXhd7dT/HgOYVNQcJhCLu0pR2xKg7wER2iE3Jf1lCO6MXkhL+TFwnmBf3EmNZO79VVHm7f132ByJjb9oZHrR9zuEKU0PvnhFrdmt1dCdJTlx0xE+A8Pyxj7wlh9nZtLkGAJ3bICf7XWl19+yYk8iy+++IIi+AH22ILPhIWFUYRTvDDk1pNuqYqKilRcfGxAvHZ7VKKCm3WU7QI3APaZILuCm3VUkDtCVTs3khfyQl4smBf4CZtNrtTL5Exs2vAXsKERsre5Soc3fy5P2V6/KVFcfKzKDxw8vpm8x+PRc0Nu1/3jZlh76AQd+Vv6c4Oe0rXX9CZLsIyu3bK0dOuygD4GHvBwduvW5SqiS4zpjmva0Cn67LPPVFNTExCvl8YWfKb/47dRhBP06NBG0aEhx/8dHOxSakpyYLwxxDRR8CUd/OpWD2fjFrIFh+rwli/8f/WOF2rWvWeTZJAU8kJeEBCCghTSrHOd7qV1vmwOl0Kad9GhzWvl2V/oN6/r1M3kw5x29enWQe9+kmPZ4RMa6tbCsXOV3a27av30CZdAXejevXvAN7a+y8vjRJ5BrQzl529RW5M1tjqHXaH2V7QLrMsUhiN8KZx9g44b0vcnJ/07Iz1VQXa7379uR0wTBTfr6Jf79DhiUxTctL1p9hAiL+SFvCAg2GwKbpEle6MEP7yStSsks7PsjZL8J3sOhzLSU2U7IXt39e4ql8tl2SHkdDo1YfwE5TFBhsXGffv27QP+OLZv38HJPNOvINlUUV6hWaNmmuaYptw/QX+c8scAPBeAD524h4KVDbujz0n7BCUmJsjtDlGQn08wj0zSO/j3azw2WScv5IW8WCovaCA2m0Iyr5QjIlYNsZ+W96+xs189MdHtDlFCQvzxf3s8Hj1y502WHUZut1svvfgieYKlXNnlSt34SOA/HbWoaA8n81w12mOeGgXqrac0tuDbiXpkpOVrEBUZqa4tM47/pTY01K3ExDi/f932yLgjt1PJ/1d3OGJT5GrSiryQF/JiobygYbhSL/Or2w/PyGZTcPMuCgpr5DcvKTExTqEnPNG1TZN4y24kHxoaqurqagIFS+maZY6nopaUlHAyz2Hv3r2mOZbKQ4cC8nXT2IJPRTdqZPkaPHrnjfJ4PDIMQzabTakpjf1+5YnNGazgZp0C6pYlZ+MWcsQ0IS/khbxYJC9ogHGT1MwvNor3OptBdgU36yyb3ekfF9lBQUpNaXy8cW8Yhh69q58lxxK33sOKupmksVVVVcXJPIdA2WDdzGhswbcT9ZhoSx9/clKyLon/oVmRkBAvtzvEz2cCNrladJPN4Qy4egc3bXfkce8BuocQeSEv5AV+e4EY1kiulDaB97qD3XI1v9I/XoxhHL8l8VhzKzkqTJmpSZYbTzS2YLn30KAgdena1RTHUlFewQk9h/IKatTgmaME8KWoqChLH//vB10rj8dzZBIZ7AqIW6pcqZfJERqhQLil6sfvYHY5M68M2Ik6eSEv5AX+yGZ3KrhZ54AdK46IWDmTmvnN60lMjJPLdaQZbhiGHhl0o+XGVFhYGMGCpbS59FLd/tQgUxxLeASN6XMJDQ2lCA19mUsJ4EvRMTGWPfbM1CRFh/6w2iQ5OUlBQf4dMXtkXEDdZnLaCUxohFwpl5IX8kJeTJ4X1B9XelsFBbsD+xhS2vjNfltBNpsy0lN/mCS6HGrbLM1SY4o9JWE13bplmeZY7AHwlOqGFmzhp976Cxpb8Km42FhLHrfH49Gvbul9/N9RUZFqFBUhnfCkN39jszvlyjDH09KciU39asNg8kJeyAsCdgLTKEmO2JTAPxCbTc6M9n6z6swd6lZU1JHmjmEYGtL/p5YaV6xmgNVkZZmnsRUTHc0JPQcr/7HaX9DYgm8n6nFxljzu5LgYJUeFHb2WtikpMd7vb+FwNmmloOD62c+oprxYpdvytffb9dr77XqV79qhmoPlvj0eP5rAkBfyQl4QmFeFQXKltfXd9zMMVRbvVcmWzSeN59rDlaqPNrYjNELOxEv8o7aGodSU5B8mimFuJSXEW2ZocSsirCarWzfTHAtNG67pA4GDEsCXYi26AuWXt1wj4+hqk9iY6CMbYPvr6hObTUGuUDkTMlQX+wQZkozDldr+2Wrt+ny19m74WlUHD5z+F2V6hqIymin9qp8qrkXri5poO0IjVJt4iaoLN5MX8kJeTJgX1D1XcouLugXRMAx5Kiu0ffWn2vX5p9q3Ke+s4zm21WVK695D0U3rbj8sZ5NWqineIaP6cMNfdDscSkxM0O7de2QYhobe1lsjp82yxNgKp7EFC0lLT9O944eY5ngyMjKUszaHE3um3zNOp37+wn0UoqF/x1IC+FJ8fLwlj/uy1ETV1tZKkpKS/LwGhiFX2mV1slqjprxY3yxcqG0f/e+Mk5kTlWzNV8nWfOWvWKbw+Hi1uOk2ZfS4WragC7uX35ncXDVF22R4qskLeSEvJssL6pbNGSxncvML/v8ri/dq/fzZ2vbxCtV68djzY+N503uLFJ2eoZb9b1eTTl19njVbkF2u1Et1+Hv/mJTFx0Vr795ieTweXRLfSC6XS1VVVaYfX+EREYQMlpGdna0t2mma42nWLJOTehYtWrSgCH6AxhZ8yopLVW/rlXX8yW6JiQlyOPw7VvbIONkbJfp27l/r0eb3l2rDvLe8mqCfTkVRkXJee0V5/56rjvcPU1zL83/MvM3hkjOpmap2biQv5IW8mCwvqFuu1EsvqKlk1FRp/YK3lbd4vlcNrdMp2ZqvT/84QdHpGeo45DeKSsvw7cVubIqqd36r2sMHGrzODodDyYnx2rGrUB6PR4Ou7a6/Lfqf6cdXJJvHm0pQUJBCw0KPbyp+7CnP9qAghYUfaWKWlZX+6P/bt2/fkd9h5RWmrs+VXbpoy7p5pjmeNm1aM+jPomWrlipQMYVo6N+vlAC+9PMX7pPdbj8+cbWCG7KukGTIZrMpPs7/N1d0NG7p0+9XWbxXa/88Sbs3fuuT71dRVKQVzz+pzOtu1OWD7j7v1SjOpGaqLtwcEKtQwrZ+arPb7QZ5IS/kBQ06SQ0OkyOmyXn/f+W7duizaZNVsjXfJ6+jZGu+/vv0o2oz4A61vGmAT4/R2aSl36zaahQdpYLdRfJ4PLqmXQsaW/ALSclJSktLU0pKilJSUpSYlKT4+HjFxcYqLi5e0dGNFB4RocjISN34yC3n/H4R+vEf75rohycLL5owXwcOHNDhw4dVWlqq8vJy7d+/X+VlZSotK9O+fftUvHev9u7dqz179mjfvn3avn27ivYU+X0ts7OzNdtEja127dsTkLNo376DCvLfpxANfc1OCeBriYlJ2rVrpyWONSkhXiHXHybNAAAgAElEQVS2I9sDJSTE+/3qk6CwRnJE+G5fp5Itm7Vm6nhVFPn+ImPTe4tUUbBTXR4cLkfoedzCEGQPqFUo5IW8kBc0NGeTlue9Wmv3ui+05k+TL3jV4ZnU1tTo63+9qYrdBWp376989ph5f1u1FRcXq92790iSMlOTtGl7oanHGBsr+4+09DS1bdtWV7Rrp1YtW+qSSy5Rs8xMDRg5UJJUoGIVHCiWNn8l1eE2jN40xyRJbknpUnB6hDLbt9HGCfO1a+dO7Soo0I4dO7R582blb9mirVu3avPmzSosaNgsxcTGaOi0h001Zh6YOkzxCfEB0VRsCFd2uVLv0thq+N+tlAC+lpqSYpmJ+sCrO8swAmf1iatxSx3Zrvri9zDZ++16fTR29AXfeuKNwnVf6MM/PK3Ojz2jiPPYn8ORkKGqgjzp6D5O5IW8kBdz5AW+Z3MGn/dqra0rlyvn1Wl1Op7zVyzToZJ9yvrN72QLdvvk0Q2OxEtUtS3XL+oeHxetPXuKZBiGBvburjGvvW3qcRbDU9UahNPp1JVdrlS3bt2VldVVnTp31sDRd2qfKvS/wpX6X+FKaUVgHdNpG2JuSa0catqqpdaM/kx5eXnasGGD1n/zjdav36C1az+vt9sfs7KytE/mu9WyZ8+emvOvOYTqFOER4erUqZM0m1o0tCBKAJ9frFno8dWdM1MlSZGREf6/+iQ47OheQRc/PSjZslmrJr9Qp5Oa4z9ra74+G/e0ag9Xej9Rc7jkiE0lL+SFvJgsL6iDiW9C0/NarbV73Rd13tQ6pnDdF1r9yh+lWt/cru2MT5PN7vSLujscDsXGHGnwt2li7t8D4eHhio2OsZG2+tGiRQs9+NCDeuff72hnwS7VtnJo5b7VmrB4igaOvtP0xz9w9J0aNetZzfpijr6sWq+qTENtB3ZU7te5evX11zTk/iG6rG1bBQXVzTS4a9csU9a197XXEq7T6NGjh/erD1G31+6UAL6WkmqNCVJyUvLx/05K9P+LUkecb85LZfFerRw72ue3n5xrsr7qjxNlnMfkxp5wCXkhL+TFZHmBj9lssp9HU7Nky2Z98mL9NGmP2bV2tXJe+7OPrnrtcsSn+U35Y2OPNLYMw1DbZmmmHWbchlj32rRuqd8/OVKf56xV7E+SlXPoa72wcJL6P34bxTlqyEsPacbHM5Xr+VYRXWK0s2CX5i9coMefeELds7vL6fRN0/uKKy43Zf2uv/56n9XITPr1608R/ASNLfh+ApucbInj/H89j2ykGBrqltsd4veTF0dCxkV/G4/Ho1Uv/qFeJ+nHFK77Quvn/cv7xkRohILCGpEX8kJeTJQX+JY9KlFBwe5zfp0hqeZgudZMHV+vTa1j8lcs09aVy31z4RvrPw0ktztEoaFH6t+vR2fTjjNuQ6wb4RHhGnL/EH3y6SpFdU/S/wpXmm5vp7o0YORAjf/3i1pR9IlqWzm0ZWu+/vHPWbr3F79QWvqFvU84nU7TbrQ+cPSduuaaaxg4R9XKUHhEuPre2Jdi+AkaW/C59LQ0Sxxnm/TGRy7YGkX5/+QlIlY2h+uiv8/X/5zps6dfXYiNC+do97ovvJ+sB8DtVeSFvJAXNBRHTGOvvs4m6bPp0+rkwQfeynl1msp37bj4Y/azJm7C0dvRL2ls3tsRo6OjCZsPXda2rab9+RV9t2mTcj3fasSMxymKD9z+1CC9vOwv2hi0WU16N9Waz9boqdFPq0PHDl5/j8G/HGzq2z3vvuduBspRQbKpX79+uv2pQRTDb84J4GOpFpio2+12hbscstlsahTt5xN1m032Rhe5KsgwVLJlsza9t6jBD+fLv/3Z6/2D7I2SyAt5IS8mygt8PNajvRvrOz9bpV1rVzfoy62tqdFXr//pyGNVL5LDj8Z6ZGS4bDabQmxSmL+vZr1A3IroG12zsjTn7bmK6BKjv3/+1vGnGKJuDPvLI3p/x3IFt4/QNxvWa8LECerRs+cZ9+bq0bOnnnr6aVPXpPe1117wajYz+uWQIRTBj9DYgs81adLE9Md4XZcrZBhGQGyCLUmO2Is7J4ZRqy9e/dOPPu4KDVNq12y16n+7WvW/Xalds+UKDavTY6koKtKGfy/wanITFOz2+9uryAt5IS9oCPaoRNmC7Of8upqD5cqZMc0vXvPujd9qy/IPLv7Y/Wh1YpDNpsjII08xvaGbOW9hiuZWxIvSoWMHvfPvd2S71KXJS6ZSkAYweNKvNW/jIlVlGtq85XtN+/Mr6ntjXzXLbKYOHTto7Phxmjd/numbjTc+coseePBBBoSk7tnd9fu/P00h/On6nRLA1/o/fpuSk5JVUFhg2mNs36rpkYu1aP+fBPritqr8Ff896ZaqIIdDLfreotY33fyj/Vlqamq0eck7Wj/vrTrbiyVv8Xxd8tPecsee66/Ahhyxqao6sN9vz0/NuvdsyUnJBnkhL+QF9XoB6NVtiIa+fXfRWfeJc4WGKe2qnyrp8vZyRUSqqrxMe/M26vv3362T/eW+fusNpXfL9mpvsDMJcoUoKKyRav1hrNtsio5upNLSsv/P3pmHN1Wm/f97kjRt0iRN932jK11YylJkERh1FGFGYNSOvI4Mwk/HUd8ZBBxxG2ZQcXAQHR1XcB+V0QEZ2XwVESnQspSl+0b3fcnapk2TnN8fLUihS5om7TnJ/bmuXtA2OX2278nzfM/93A+mJkTjy8MnnW6seSvJMLeFiMgIPPvsn7Hz5EfYsncbNQhHWLG5bzteEBAQFAYA2FtyAHs3HHCJ+q9cuRLb/v53tDS3uPQ4ePLJJ/Hc7q0kCA5BEVuEQ4iKjnLuyYa/NxiGgUIh4/5CfZTbqsxmM0q+/rLfIn322o1IvvOeARcWIpEICb9YjtlrN0LgoOgci8mEgj27rFkx8GJ7FemF9EJ6IcZ8rHsFDPsak64dl74dfLEWmJiAm7a/jcn/swqBk6bCOzoGgZOmIvnOe7Bo+xsImZZu93IbOztQ+n8HR7clkWEglPtyoyNY9sp2xCAfhVOOteCQEBLcSBZnAgHWPrYW2adOYefJj6hBCE6x/KkMPP744y7dBvMXLCBTi4v3TmoCwhHExMQ4df0UHmIoFHIIGIbzZWXko8ttUfHdoX4Jg5OW/xqBk4bfLhE4aSpSf+24JJPVx49C3zR8lJPAXQLGzZ30QnohvTiJXgg7TP48lVZFJubv3Tto1JV3ZBRm/WkzpFIpMIC2RVI5Zj66HoGJCXYvf8m+PbAYu0ZxBRYCDpm4l7cjSoXOOS0PCiLD3BosYJE2LQ0/HvsRWdocyqFFcJb7V69G0sQEl6y7QCDAlhe30CDgYt9QExCOYIITL9SDAvxhNpsh9xx4Ms+pRbrQDSKpfBRzfxbl3/z3yrcyf3/ELPql1W+PueU2yPwdc9KTxWRC+bcHrXqtUO5HeiG9kF6cRC/E6LEmWsnSbUD1sSOD/n7q6ochEg6do0soFGLyqoftHo1o7OzApR++H43aIfJUcuqe5O2thNlsRmqM8yVmDg4OJtFZwYYNG/Dtd99hw/tPUWMQnGbJhmX4+8vbXbLuD/3+ITqJlKOQsUU4ZqEeHe20dZubGguGYeAp87TL6UwOXbxYsdVkKJpyz/eLPglKSx9R8m9GIERQWrrD6ld97MjwJ76xLITKQNIL6YX04iR6Ieww1q0wL6tOZA4ZreUdHWOVMSQLCYN/bIwDxvPh0d1TBEIIpNw5pVXm2btVedpE53rQIRQKKWJrGPwD/PHfr/+LE6rTWLJhGTUIwQs2/+dvWHX//S5V5+joKDz9zDPU+RyFjC3CIcTExjpt3UL9vSEQCCDhwbHcAtnoTiKquuZpvaf/yBe8ilDHnT5l7OxAzelhjqBnGAhkvqQX0gvpxUn0QthhrCuGN7YqDg8e4ScLDrPaVGIAyCPj7F4HVVUlWksKR3UNEYe2I4pEIri7ixEa4AOz2ew0Y83f1we+3j4MqW5gZqbPxImTJyk5PMFLXtjyAuLj413jc1MgwLs7d9IWYS73ETUB4QjWbHsIMpnMKesWG+IPmcyTF2VlpLYlomXRuw2l7kxWv58LxSM/LU7g5ubQOtafyR6+DO4SMEI3zvaTd0MOQ3ohvZBeiDGZ+Ll7ghEMvYVQ39TQ72TPaxG6u1u/jY9lIfKQOKQudaezRvFullMRWwAgl8kQpJRBOMwWTz4REhZOohuEu+6+C/v278d9W1ZTYxC8ZPlTGfjgow8hk8ucvq6bn38Oz3z6V+p0Ls9vqAkIR+GsDr5UKunNF8QDhJ62HbHNAGi4eB4Wk6nfzzvbWkd8rS5Vu0Pr2HjhLEyduuHr5OFJeiG9kF6cRC+E7TCS4fPI1Z06OeTvDU21sHoTIMNAW1vtmPGckz2K6CYGjIRbpxDK5DJ4Sz2caryF0ImIA/KnJ/6EWkUz7njiTmoMgtes2/EE3njjDaeu411334V95d9QZ3McMrYIhxEXF+eU9fJg0JsviOvituKp/EgXNk3nT4/oGizLouXiaYfW02IyoSk/b/j24NiTedIL6YX0QowHwxm41ozDlrJymHVtw49pAKZOHVoL8xxSF31LC7TVlaPQvQQQcGcq7C52c6poLYASxw/Ey9tfxo+tWdQQhNPw5tGd2Pzcc05Ztzlz5+CfTm7cOQtkbBEOIyEx0TlFIxDA3cOd8+W05qn8UKjKi6//WVUlmi6es/oabSWFaCoqdnhdGy/kDN9vHHsyT3ohvZBeiHHR5DCmJWvsQktZ+ZCvsZhMuLDrc7DD5NliAOTv/mLQJPT2oDnvwujag0NjnQ/3ypESTBFb/Xh5+8v4In8vNQThdByo/BZrH1vrVHVKm5aGzz7/nCIr+TK/oSYgHEVKSopT1kskEkLAcD8PqsDWrUQsC31TQ7/T3a7m/AdvwWDFFiudToezb786JnVtLbg4vHEhVZBeSC+kFyfRC2E7w22/aykuum5b7UBUHj2Mgv98PuRryr7Zj7Jv9jl2PBflj077HIpOFDAM3N3F8JQ4z3bE0NBQEl0fZGoRzk6WNsdpzK20aWn4au9eZGy6lzqWJ5CxRTiM5ORkp6tTgLcXPDz4MeFkxDbmNWIYtJUOHjWib2nBj88/BVXF4E/0NdWVOPHn9YMu9u2NvqUFpk7dkNEDArGU9EJ6Ib04iV6IUUz83IY+1KC1pMjqaxXt/QLHX9qMpovnwFp6c12xLIvW4gKcfOVvuPDJTofXp72s5Mrftqk9xBJO9Y9UIkGwn9JpxltkRASJDsDm554jU4twCbK0Odjy4ou8rsPNt9yM/QcOkKnFM0TUBISjWP5UBmJjY1FWVuY0dVLIJLxZqAvcbV+YqisvDbsw/v7ZDQiZlo6Q6enw9A+AUOwObV0N6s9ko/5s9pjXV11TA7+EpCEWL9zuNzb/OyY2NpYlvZBeSC+Eo2CEbsAwueRGmui98eI5NF48B4FIBJHYHSZjt1URX/bC2NmBLpUKEl8/2y7AsRNAhSIRJDacqMpVoqKjXV53Dzz4AA5Ufks3IMJl+G/ZQXy+63OsWbMGep2eV2V/6PcP4fkXXsDi9UupI3kGGVuEQ0lOTnEqY0siFsNNKOg95pxlOV1WVixFb+rekW8D01WVWvW6+rPjsygf2FyoGHKhDoYB4+YOtqeb9EJ6Ib04gV6IkcOIhjdMtNWXbLq2xWSCcQwNratpv1SKUBuNrdGY2g65b0o84OMlc4rxFhwUjAA/f8aVNbdo0SJsefFFLNmwjG5AhEvx6rdv4oejR/Hblb9FXm4u58srk8vw2muv4Z3MD8jU4im0FZFwKKmpzpU3SOrhDpFYzPlFOgAIxe42LdJZlkVHWzvv+kZTUzn8oo5jW05IL6QX0gsxlgx3SIKl2zBmW2Ltib6xwcZ3sn2mNjewsCzcxW5OM96ioqNcWm/R0VF4+913yNQiXJZH33gM3x/5HmsfWwuBgLu2w/wFC3Dy5Em8k/kBdRqPIWOLcCiTJk92qvp4uLvxZtLJiGwrp8Vi4eXCpks1vLnAuHmQXkgvpBcn0Qthwzh3c0dvZOLAdKrVvKyXvslWY4vpM7U5MilnGLi5ieDp4Rzai4mJcVmtubm54V+ffUY5egiX544n7kSWNgc/HD2KmekzOVU2/wB/vPHWmzDGsnjglUeos3gOGVuEYxfqkyZBKBQ62WSFBzt4BQLYEn0CAEa1ipf90q1RkV5IL6QXF9ILYSuDjHWWRRdPx7NRr3ea3hE40WfABBc2tl597R9Yt+MJut0QRB9/+vBpCFMleP+D9xEfHz+uZZHJZXhi40acO38eH5/5nDrHWT4/qQkIR3LHE3ciKcl5Tnvr6u7hxaSTYWwvY0drMy/7psOKqJneaAXuYrr4DUN6Ib2QXgiHjXWhaCghoKOFn+PZ0No0ijbhVlSpgGHQ0dXlFOMtPi7OJXX2yzt+SYtlghiEdzI/wKnT2fjo44/GPIIrNCwUz276MwoKC3G05QTuenYFdYgTQcYW4XCmz5juNHVp0+ogYHiQB3UU+9jN3fxMFm3s7CC9kF5ILy6mF2JkDGfi9HTwc1z0jGY8c/Ae1dXd4xTjLW6cozLGA/8Af2x7+WW62RDEECxatxRvHt0JYaoEJ7JO4uFHHkZoWKjd/44FLGRyGZb/ajk+3/U5cvPy8G3tD7RF2EkhY4twODOmO89CXd9t5sfiRWD79i9TN4+fFA+TpHzIaAXSC+mF9MI7vRDEleE8mnsAx6K2Orv4fxqpTCZDXEysy52I+Mqrr+K+LatJkARhJet2PIGcrjxE3BaLH48dw7Ob/oybb7kZXkovm67n5uaGtGlpePiRh/Gf//wHpWVlaPBuw6vfvkmnHTo5NGslHE76rFlOUxdLj5EnyrZ9km7q5u+E2mTQQySVk15IL6QXF9ELMUKGMHBYloXZyNMIxI5OOJODYjAaeV+H5KRkVFdVu5S8lv9qOV4//DbdZwjCRv704dO9/4kEkiKnYMe6N1FSUoKqqio0NjSivb0N+qtyKrq7e0Cp9EJgUBDCw8MxYcIExMfHY8mGZcjpykPOwTy8fPA1algXgYwtwuGs2LwS8fEJKCkp5n1dOnv4EYECUw8NPJ7iXp7JxMcnsKQX0gtB2B3z4GOdYRheG7XOBF+iXYciKSUZBw8edJk+k8ll2Pzcc1iz7SEawARhJwbUk+Sa77V9XyUADlObuTK0FZEYE264wTmiUPQ8OXmJtZhsfq/Inb8Jo4c7tp01m0gvpBfSi5PphbCXEFi4yxW8LLrYUzq6qpu5ZW7zJtp1CCYmTnQp+Ty2bh2ZWgRBEOMIGVvEmJCenu40dTGZeLDYs1hGsVD34G3fMCIx6YX0QnpxMb0Q1jOkgcPwezMfy7JO00+8iXYdgqTkJJfRVURkBB555BG6wRAEQYwjZGwRY7NQnzULQqHQKeqi7zDwYIJv66SYhZCnEShiqefwtevpJr2QXkgvTqYXYgQjdsgoPBZunp68rJeb1BOMjcYca+JedJTBYOD1OBOLxYiNjXUZXb2wZQvueOJOusEQBEGMI2RsEWPCis0rkZSU7BR1adPx4Dh0myNQGJfdisIl3MszGdIL6YX0QjgGdtDx7KHw4mWN3L28nSZiy2QywWzmd8RWQkIiAvz8XeJExJTUVPzz+3fotkIQBDHOkLFFjBnzF8x3inrw5RhuW59CS5T8XNh4+voM3yY9XaQX0gvpxQn1Qlg5znu6gSHOD/RQevOyXh7ePjZHbHHpJEgLy/IiynU4Jk+e5DKa2vjkRrqxEARBcAAytogxY+HChU5RD61aw4tcJL2T9ZE/wRZJ5VZtU+IaYqX/8Is6o4H0QnohvTihXgjr6DUrBx/nnt5yXtbLQ+kD2BixxRg7uTMpZxh+RLkOw9SpU11CTympqXj98Nt0YyEIguDCZyg1ATFWTJ48GV4KBe/r0arrtHkCPZb0TtZtMxQ8/f151y+egcHDrOhYXuUMIr2QXkgvhL1huzqGHOciuS8vjVpZULBtBjrLcupERAvL8ibKdShSJ7lGxNYTG5+gmwpBEARHIGOLGDMWr1+Kn918M+/r0dyuhoUHC3VLt+1Pob2iYnjXL8rIqKHbw8ivbVVdOfsZ0gvphfRC2BPW3DOs0ewdEca7eilCw217I8OA7eZWxJZWreH1GPP29sb0tGlOn18rIjICSxbfTjcVgiAIrnyGUhMQY8ktTrBQr2tRQcCHY9FtfQrNsvAKj+Jdv3hFDLdQ7yS9kF5IL06sF8I6hjQtWRbyyDje1UkeHjmK9uDOllsLy/ZGufKYtLQ0l9DRg7/7HRatW0o3FIIgCI5AxhYxpsxfsABisZjXdWhR8SRnUIfatjcyDJRR0bzqE7HUE57+AUO/iIf5gkgvpBfSC2FvWIN2mPE8gVf18Y6MglAksvn9lk7uREgJGAbN7Wpej6+ZM2c6vYZkchl+85vf0M2EIAiCQ5CxRYwpy5/KwOzZs3ldh7qWdl7kDGINOtsXCrEJEIxioTDW+E1MASMQ8mbxYnUf5n/HkF5IL6QXwp4M3bcsAiam8Ko+vokpGI113pt3jCN9w7LQ6PltKk+fMcPpNZTx618jY9O9dDMhCILgEGRsEWPO7bcv5nX5G1r58TTV0t0BWMw2vVcoFCIgKZU3feJvxUKMrwt10gvphfRC2HWsD2niMpD4+kHGowMR/BImjkL3Bk4lj++N2OKv9iQSCSa5QOL41atX042EIAiCY5CxRYw5ty26jdfbqzoMXVBrdLwoq6nL9lwdfonJvOmTwNTJwy9gOjSkF9IL6cXJ9UIMA8PAYsW2W78kfpgTApEIgcm2R5gNuS1znPqnpqmVt8Nr9uzZ8PX2cerE8SmpqVi3g05DJAiC4NycgJqAGGvuenYF5s2bx+s61LS08+KkN1Zn+wQ5dOYNvOgL78goyIJDh24Hk5FTT+VHdJMuOsKQXkgvpBfCPoOc7T0YYJjoxLCZ/NgCHTR5GkQSmc3v51xkIsuiiccRWzfccIPTS+ieFffQfYQgCIKDiKgJuMMXf/0UFosFOp0OFrMZ+o4OmE0mdHR2wtTTg05Db94FQ2cnekwmAEBnZyfMZnPfzw0w9hj7XbO7uxvd3d2jKpenpyeEwv75WKQSCdz6okikUimEQiHc3d3h7u4OoUAAT1nvRFMul4NhGHh4eEAsFkMoFEIqlWLv3r04fPgwb/vqUk0DUmMjOV9Oi74dCLQtsbUsMBjekVFQVVVysm4/f+ND9rJeaqqrnVovN85Xk15IL3YhNH0umGGS+Zs1zfSB7MywLEwdaojkvoO+JCB1CsRSTxg7OzhdlZDp6aM6nMKs41Z0lMlkQrOKx8bWNTkh29UqVq/Xw2w2o7OzE0ajEV1dXegx9sDQZbjyWX3559d+TlvMZuj0+n7XNHQa0GMavfF+7We1XCaD4KrvZZ4yMAIGbiIRJFIpBAwDmVwOAFi4cGG/z2qxWAyJRIK7nl3B0A2GIAhifCBjaxTsfn4XNBoN9Ho91Go1dDodOjo6oNVqodVq0dnZiY6ODui0WnR1dcFgMECv00Or06Knpwcd+g7o9DoYDAaYzWZM2pNKjcoTSqsbeFHO0U7aI+bdBFXVTruUZdHbn7D21AtSSS+kF+fVi6OwJrLMrGujQevksLo2QO4DDJJ2nWEYRMxbiLJv9nG2DmKpJ0LTpo2iEViY9e2cqlNLq4rX42rN/asRERnBAoBer0dsTIzLSUssFkPi4QFPmRxSqQRubm5QyBWQSCXw8PCATCaDXKGAp6cn5DIZFAoveMo8e7+Xy6GQy+Epk8HLy4uMMoLTfLRxJ177xz+QlZWFzk7nP0k5MjICdyxdirvvuhOL1i2lAcBByNgCsPfFL9He3o7WlhZoNBqo1GqoVCqoVWq0t7dBrdagra0VGo0WOp0WqvZ2aLRaJO9JosZzUSrqm/gxw+rphqXbAIG7ZOTvBRA170YU7v6831P7JTs+Y23Ry/ok0gvpxfX0wiWCJk2FLDB42NdZtK00aJ0ck7oRbiHxQ74m5pZFnDa2IuYthEgqt70N9O2AxcKdCjEMLtU28HpcNTQ2uLy2jEYjjEYjNNrR528TCoWsQqGAl5cXfHx80Pt/JZRKL/j4+ELprYSXQgGlUgkfHx/4+fvD398fSzYsI0OMcCibMp7C9GnToFG7Tj7OvNxc7N+3H//etQt7P/sSdzxxJw0EjuG0xtbeF79EU2MjWtva0NraipaWFrS1tqGlpRltbe1oamrsNbNaW5G4J2HcyimTySCXyeHu4Q6JRAKRyK1v25Ib3N17f+YmFsPD3R0eEglEQiGknp5X3u/l5XXl/xIPCURuP3Xp5RBpe6C95gO6u7sbRmPvNq4eoxGdfVE0HR29Czpd3+s7OjphNPZu7zKbzeju7u6LuLFAp9XydhJUWFHHm7Ka1Y0QDLO9qru7mx1ULwI5mjo6ruhlfQLphfTi2noZcE0KQCSVI2TGLFQe5ea20dhblwz7Gku3ofeESMKpsXRqevNsCYSD328DgxE0aSoaL57jZB0m/Ozno3o/y7XIRJZFdYuK92NLJpPBzc0NEokUYrFbv89qiVQCoVAImUwONzcRPD09IRAK+20LvHpLoFgshru7+5VrX70dcLRcm3rA1GOCoeunqJOurq4rn8XXflZfjioHAL1Oj06DASZTDzQaLYzd3ejq7oL+mi2UNn0emc1QqVRQqVSorKy0+n1eCgXr7eMDHx8fhISEQKlUwtfPD/7+/vDx9kZgUBCCg4PJBCNs4v3H30H6zJkuZWpdzXfffofnNm92Ot/k3LlzOH78OE4cP47Hd22ABSwE4NftgZfG1q5Nn6C5uRlNjY2oq69HU2MTGhsb0NDQgKamJjQ2NiLRgYtvWV/osEwmg7dSCZlcBplMDrlcBplcDoVCAYVCAZlnb2ixTC6Hp1QKD4kEEokEcrkcHh4e1zm9FgBGsDDimpO5WPXIUb8AACAASURBVABdfV8AwKeH6R59X9cMOwbA8W2ZmDv3RtTX1/FuDDarNFBrdFB6yTlf1k4PH7a5tHRIvahUKs7rZd+ae/rdXb0jo/CzzduGza/S01QBY3WuNUu9q0Q2SryvNchGb5hJpy1mSS+Ox6xtgZuNebYAIOEXy1F9/CgsfXnduIJ3ZBQCU6cMX391I83aXQGWhVnbCqEycOjx/MtfcdLYCpmWDnlI2KiuYeLYWLewLOqa23k5nMRiMc6cPYuwkFCmva3dKSUz64YbwCT3fZa79X0BgOKnua0cPtcuFtmuri50dnbCYDCgQ69HR2cntFot9Dod9B0d0Ov00Ol10Ot0vb/TaK6kYVCr1FBr1FdMNGvRaLXQaLWorKxETk7OkK/18/Vj/QP8ERISgoCAAAQFBSMwKBBBgYEICgpCUHAwMjbdS+YXcYWXXnrJZU2t3tUCi/feew+lZWVY/lQGL+uw+/ldOH3qFI4dy8SJE8cRGhyCnp7+uQv5Zmr13oU5yKfPfIi62lrU1taipqYG9fX1ff+vRU1NNabsmWy3vyWTyeDn5wcfHx8EBgZBqfSCl1IJb6USXkolfH184KVUQqlUwsvLC76+vli8/qd9tWp0Qo1OAM1AB3q/aF1gFYvWLUVGRga2b3+Zl+XPL63AnBmTgXE+7a07Zi47lF5GOiGyt16++u1dV90ZewCjCmhXAdfMfU0ANH1f1pB892+sShpsVjvH1ojOs/uZjIwMlvTiWMyaJrAWM5ghIlmG1EhgMCLmzOdc1Jar6YWwwthpqx3W2PJLSOJk1FbK3f8zuoVJtwGWDjWn6iRgGBRW1PJyLM2bNw9hIaFObX4sXrwYByq/HdF77njizpG3iaLvCyIo4AcF/LD3xS9ZjUYDjUYDtVoNjVoNlUoNrVYDtUaDluZmtLa2QqVSob29HU1NTVbP/VrbWtHa1orCwsKh5n5seHg4QkJCEBYWhpCQEISHhyMsLAyhYWFYsXklGV8uxJ7du126/gIw0Ov0KC0p5U2Zd236BCeOH0d2djaOHj2K0OAQWLi0Fd9OjIuxte+lPaiurkZlZSWqqqpQVVnZbyE+bU/aqK4vFosREhKCwIBA+Af4wz8gAH6+vYvxgMAA+Pr4IiAwAD4+PleipjrQg0uoAbpqeo0pMqfGhLvuvgv/+MerV07A4RMFVfWYM32Sw/+O+9Tb2aH0MlrjaiR66Rc1pW/s/bpqHn7ZmKp2cJsEJiYgcNLUYV/HmoxOlQib9DIGsCzMqgaIfG2PBklaloH601mcybXlqnohhsasae41mocxPJPuXMEpYytq/k2jjNZiORuZWFTTxMuxdOutt+GLf3/h1HpZdPsiHHjj23H521YZZH2GmHukHBGQY++LX7Lt7e1obmpGW3sb2lrb0NrWm2qipbkZ9fX1aGxsQmtry5VUCYOh1+tRWFg4qPklkUjY0NBQhIWFIXrCBISHh2NCdDSio6MREhpK2x2diN3P70LwjiBqCAA6nZazZfto406cPHECJ0+exLFjmYgIC3eJPnGYsbX/71+hoaEBlRUVKC0rQ01NDSouXUJlZSUSExJsXpjJZDKEhIQiJCQYgYGBCOrbIx4WGgr/gAAEBQVhxeaVAC5HU1WhVFUFqEiAXGTV1gewYMECHD58mHdlz8otxf+7c5FdIlA80hazg+mlpmatQ/Xi4+Nj1YSj7Jv9nGh3gUiEyasetuq1prY6p9KLovY0s2DBAtbV9eJoTO31ozK2JL5+mLj817jwyU7SC8FZWHMPzJrmYaO2vKNjEHvrEk4kkhdLPTF5xX1gWRYMY+tamYGprYZz/aHW6OyScHysEQqF+PmtP3dqrURHR+HRNx7jVZmHNMPcAEQC8kgfyOGDT5/5kG1sbERLczMaGhrR2NSI5qYmNDQ0oLa2FnV1dUM+RDUYDCgrK0NZWRl++OGH68ZHeHg4GxUVdZ3pFRoWhsXrl5LpxSOu3a5GcIOPNu7Ejz/+iOysLGT+eBRxMbEu2Q6jNrb2vbQHFRUVKCstRXFJCcrLylBeXo6E+HibFuMymQyXw10jIiMRHh6O0NBQXH4SkLHpXgBAA9rQYGwDqgqAKgBnaFDzld/+9re8NLbyLtXAYrFAMILJtfvU29mB9FJSstYhehGVHO0tHMNAOuVWMCLbcz3F/Px2VB87DFVV5bi2e/ziZVY/rTerG3hhpJBeuIVZ0wTWZCS9EE6PNdsRASB5+V1ozMmGvqVlXMs76TerR3USIsDNbYgAUFxZw8sxdMMNNyAiLNypzYkFC3+GIpQ7bf0G3UroDQi9JYhIjcWnz3zINjQ0oLqqCvX19airr7/y//q6ukFNWbPZjMrKSlRWVl5neonFYsTExLAxMTGIi4tHXFwsYuPiEB0dTVFeBDEEO9a9iaysLGQey8TxzEzE7YilRsEIjK1rDayS4hKUlpbYFH3l5+uHmJgYREVHITIqClGRkYiMikJoaCgyNt0LC4BaNKNW1QyoTgMXqaOcmed2b0VUVNSITnzhAh2GLuSXVyM1Luq6xeC1BtZlvVRUrLWrXq4YV/3oAjrLgZKrJmEsC1Nb3aiSYjMMg5mPbsCRZx8fty1WgYkJSFh6l9WLF7O21en0MtVDxURFRbHOpBfOQXohXASTqh5iU+qwJq5IKse0B/+Ao889PW5lDZ81F5Fz5o/6OuY2bhpIF8uqeTmGblu0CP/d+1+n1snceXNRdLzcpe8VA5pfCgAKEYISI3Hsr5+y1dXVqK6qQvmlS6iqrERNdQ3Ky8vR2jbwZ4vRaBxwi6NQKER0dDQbFxeP+IR4xMbGIi42FjGxsWR4ES7JjnVv4vjx48g8dgzHfvwRyTuSqFEGmqsM9MPdz+9Cfn4+8vLyUFxUhIKCQiQnJQ27B/tqvBQKxMTGYsKECYiMikLMhAmIiIxEdHQ0lj+VATU6cd5YgPMlBUAJdYSrc9/KlfjrX/7CqzILhUJkXSjEpDtWs9fqpbh4vd30wuZ/d82HuAnoKANKykayyoap6dKoFupAb2LstDW/R9Y/Xhrz9hZLPTHtd+sgElnnx5uaL5FeOKiX1NhI7heW9EK4CiMwcf0SkpBy973I+/cnY15Mmb8/pq95yKoDEIarb09zBSfvOaXV/Ezuessttzi9TG688UbsOP4h3S+G4K5nV1wvzlDANzQYR5//ka2oqOhnel26dAnlZWUDRnqZzeYrWxsPHjzw0+eaWIyEhEQ2KWkikpKTMXHiRCQnJ2P5UxlkdhFOxe7nd+Hrr7/GD0eOIDMzk4wsaz9K6+vr2cLCQqagoAAF+QUoLCwYUeSMt7c34uPiERcfh7j4eMTHx2PChAm4b8tqal1iRAJOnzkTer2e82Xd+d57rL314lmVNSYfyu6JcyCS+476OvlffoaivWOXKFYgEmHeE5vgl2Dljd1iRuf5/wNrds5cAEzyzSxf9HI189OS8M+Nv+NNeUkvhCsgcPeEZNLPAGuO9mZZnN35xpie+imWemLhX7dCFhg86muZ2mrRfSmHk/3wsweeQbNKw6uxM3fuXPx373+d2lSIj4+H743BdKNwEB9t3MmWlpSgpLQUpSUluFR+CSWlJVCprE+OHBUVhYkTk5CUnISkpCRMnDgRq7Y+QGaXA9i16ROXSUQ+HPsP7Mdzu7fa/brb1ryIX2dkoLqqmhp5pOujlORkVq/XDyt+mUyG5KRkJE5MxISYGMT3LcovJ2oniNGyMGgu3nrzTT4UlbVVL+7lmeP6QStUBsEjbqZdrnXhk/fGJJmwQCTC7LUbrTrV7TI9TRUwVuc6tV5e/76Q5YleflqgisU49eGLVkcRjTekF8JV8IhLtyrXFgCwFjOy/vF31J/Ndvw9Q+qJG5/aDK+IKLtcz1DwI+fya1lYFlqtHnPXPMW7cbNt2zas+u0qpzYQVt1/P4oE5XSTGGM+feZDtqSkBOXl5SgtKUFRYRHyC/KteqAnk8kQeks0GVsOgIytn3CEsfXpMx9i5owZaGluoQa2AVFqaipOnjzZ74chIaGYODERKampSErqdb/XbHsIanQiS5uDrHM5wDlqPMK+3HfffXj3nXdsPgFwvBhIL94NOdd8oDYD5c3jXlazuhGmTh1EUhmsejo/BJP/ZxVEHhKHRqKIpZ6Y+fBjI1qkg2XR01BCeuEgRqMR2ecLMGfGZF4kKSe9EK6Csb4YEiuNLUYgxMxH1+P8+285NHJL5u+PmY8+bjdTy6xu4mTSeAHDIOtiEe/GjEQiwW2LFjm9NmbNmoWiU2RsjTXX5fQKBUJDo/HOH19n8/PzUVxSgrzcXBTkF6ChsaHfS1NTU9EOPTUiwTvefuttMrVGgeiWn/8cQcHBSE5KQnJKCiZOnIiMTff2Jm+vOoxDVYeBg9RQhONZtfUBLFu2DF9++SWny7ls+fJ+ennusd8xm353R99vu4CGHE6X31RXCJE9olAYBsl33gOprx/Of/QuLCaT3Rc1s/64ccSLmp7mSrA93U6vF0XtaWbZsmUs1/VyLd+eycec6ZN4U17SC+EKWDrUMKubrI7aEgqFSLv/d5AFBjsk55Z3ZBRuWPskJL5+drumsb6Ym43PMMjKL+PdmFm8eDGCA4OcPipm2vRp+ODUv+gmwREeeOWRn8acAlDc4IeDmw6xebm5KCoqQn5BAVJTU7Hr4m5qLIJ3HDv2IzXCKBDturibAYCC/FJ8kb+XWoQYVx599FHs2bOH01Eoe3bvZvbs/ukDM8Dbi1dtbFY3wqRrs0vuIACIXngL/BIm4vQbL0NVVWmXa0bNvwlTf3M/GHfJCFdnZpeKPuGDXq7lx5wC0gvpheAgxuo8q6O2gN7IrYRfLIdvfCLOvv0q9C32ecqceMddSFr6q2FPahyZjrkZrQUAYFmcL6ng3Xi5OyMD77z9jlNrQiaXYcKECXRz4DgZm+7tZ7AWXCylRiF4iUajpUYYBQJqAoJLPPDKI1iy5Be8KnOzSoPcsipelbmnJt+u15OHhGH+X15C2v0PQebvb/N1AhMTMP/p5zBtzcMQuEtGvPmrp7HcpaJPfJsvMKQX0gvphbAHFmMneppGbrD4JSThli2vIOXueyGWetr890OmpePm519G8p332NXUAsvCWJ3H2XZXa3Qoq+HXiYixsbG4+Wc3OX201uTJk7F4/VK6ORAEQfAAETUB4Wh2bfoE3d3dMBqN0Gq16OrquvJ/Q2cnjMYe6Dv0MHQaYOgyoLCggHd1/OZ4DpJjIiBg+DHPs3SoYWqrhcg3zG7XFAqFiF54CyJnz0XN6WzUnjyGxovDJ+MTSz0RMmMWIucthG/8RJuPc7d0G2B0gugTU/x8diR60et1pBfSi8vqhbAjLIueuiKIfENHbCwJ3CVI+MVyxNx0C2qys1Bx+KBVEYliqSci5i1ExJz58I6OcUi1eporYenu4GyzH83J5+VwWf3/1rAKuRwikRtkchnc3d3h4eEBmacMYrEbJFIppBIJRG5uUCgU8PDwgFgshlwuh4eHBwL8/Dn/ATBt2jSc7rhA9waCIAgeQMYWMSj7XtoDrVYLtVoNnVYHtVoFrU4HlUoFvU4PnV4HvU4HnU4PvV4HvU4PrU4LjUaLDr0Ohr4F+ZQ9k52+rQ4cz8Fj9/HrqZ6xJh9CrwD7PhnvW+BEzl2AyLkLYOrUoa2sDOqqCnRp1DB1GQAAHkofuMsV8I1PhCIiCkKhcPT1qc4FLJZxa0/3qbez9tCLK0B6Ib0Q3IQ198BYWwj3KNs+t0VSOaIX3oKohbfArGtDU1EJ9I0N141nqa8ffGLioAgLByMQOqw+lm4Deuq4nZj9+Hn+JY4vKytDWdno8oL5B/izCoUCEokUXl4KKOQKSKQSyGQyyOVyyOUKeHl5wUvpBYVCAYVcDrlCAaVSCZlMBh8fH/h6+zjUHJs8ZQpOHydjiyAIgg+QseUi7HtpD9rb26Fqb0draytUajXa29uhVqnR3t6GtrY2qNVqaDRatLW1QavVIC42lhrOSppVGpy+WIj0yUn8WcD0dMNYlQv3mGmOu8FI5QicNPX6U9oun4hnp4gdU1stzGr7beVwn3o7O1K96PX/S0IgvbikXgjnwtRSBaFvGERyH9h6GigDQCT3ReiMGwCwV/10bDFWngNr7uFsW1tYFsfzylxynJnNZqhUKqhUKtTX19l0jdCwUNbb2we+vr7w8lLA19cPSqUXlN7e8PHxgbe3N7yVSvj7+8Pbxwf+fr5QenlbPRBTU1KA43RPIAiC4ANkbPGYg9u+QktrG1paWtDa0oLm5ha0trWipaUFLc3NaGvr/V1bW9uYm1QymQwyqQQeUk9IJBIo5Aq4id3g7u4OmUwODw93SD094enpCTeRG+QKOcRiMdzd3aFQKOAuFmPfvn3g04lv//n+FK8W6gBgaq+DUBlo1y1W1q167LfAsXQbYKzKHfZ10mmLWWv1olL9L+mF9OLSenFWDIYutFXUoKNdg87OHkilbvD08YJvdDgkEg+aWPRhLD8DYcpCO0Uojs+Os56mCpi1rZxu53MFZdBo+ZUs+OOPP4bU0xNGoxF6nQ49PT3o6Oy8knJCp9Whx9SDjo4OdBkM6OnpgV6v7/1Xp0enwQCdTouuzg7oOw3Q6/Wj0LMBBkPdiIyxmNgY1tfXF0FBQVAqlfAPCICfrx98/XwRFBiIoKAg+AcEID42jomhB7wEQRC8gYwtjrL7+V2oq6tDU2Mjmpub0djYhIaGerS2tqK5uRn1tTWIi4t32Glo3t7e8PLy6gsF7w39lsvl8FIqoVAo4K30hkwug9LLq3fBLZVC4eUFqVSKjE339l9IAVCj86qfNANG9H6pBi/Dp898iEOHDo1q0jOWfJN9AU9qdFAqFT9FWPBhAVOVC4HMF4KRnqjGCVgYK88BifPZ+mH00tK2lpN6EZUctWnVZzB0oejYWTQVFUMHYOOrO1jSC+nFGr1wOYLFUfTq5RyaiooHfU1gYgKi01Og9JK7/ByE7elGd8V5eMTN5GX5TZ06GGu5n7vqyJk8XrXrbbfdhsW3L7a7U1lbX8fq9XoYDAbotDrodFqoNRpoNBpotVpotVrodTqo1Wro9XpotVq0t7dDo9FApVKN6G9djhIbbiul0lvJ3jh3HoJDghEQEAA/Pz8EB4fA398fwcFBCAkNRWhoKO544k4GBEEQxLjD3PrHJdQKY8y+l/agpaUFtbW1aGxsRG1tLerr6tDQ0ID6+nrU19XZ9QmeWCyGn58/fH19ERDgDz8/P3h5KaH0VvbmKPDxgZdSCV9fXyiVSngrvbBoHTfy3yxPXIItW7bwol+FQiEeuetW/L9f3ca7MSnwVEKSOAdwYK4TmxcoJhPLdb10nt0/dhNbhkFbVR3O7vseFpOp36/a5t7Kkl5cWy9DYazJR09juYvNcgbXy4B9KxJh2pKfwTcihCYrAMQRqXALjOZVmVmTEV0FxzidMB7o3YZ484PPolml4U3bfvXVXtw4bx6njBy1RsWq1Bqo1eorX+3t7Whva4NKrUZrSwtUKhWam3sjsltbW+yaz9Lb2xtBQUEICQlBcHAwQkJDEdL3b3BwMIKCgrBkwzIyvwinYNemTxARFk4NAWD/gf14bvdWu15Tl92OvNxcalwboYgtB/HRxp2ora1FTXU1qqqqUVNTjZrqGlRXVyMxIWHUkSNCoRDeSm8Eh4QgIMAfAQEBCAgMhL+/P3y8vRHYF2IdFBSE5U9l9C5qwKIWzag1NgMt6P3iOPevXo0PP/zI5vwLY4nZbMau709j9fJbeXPa25UJdoca3RXnHZo/aCiam5vZwfTS3NI8pnph878bpvMMvV9tDUAb+sUijgWtza3IGWSRTnpxDb3Ygqmt1vVMrWH0MmDfmkw4/dX/Yfo9v4Cfv6/Lz2WMNXkQuEshVAbyo8Asi+7yM5w3tYDebYh8MrXSZ6ZzztQCMKKcWZdpaGpkW1ta0NrWhva2NjQ1N6OlpQXNTU1obm5Gc3MLGurroVKrhp1/XI4AKywsHHT+ERgYxEZGRiAiIgJh4eEIDwtDeEQEwsLCcN+W1WR6EQRB2AEytmxk30t7UF9Xh7LyclRVVaGqshK1tbWoqqpCXV0d0vfYHr4vFosRERGBoKAghIaGwj8gAEFBQQgMCIC/fwCCQ4Lh6+uLxeuX/mRWdTUDVXlAlXO185INy/D000/h97//PS/K29jcgqNZOVh4wzTetbWpvQ6M2APi8GT7X9tkYofSi8FgcLheunIGi6oyAeZaoK0WbBv3t4Vc3Dv4In3vqruZp59+iiW98Fsv9sasbkJ3xTmX/KweSi/Dve/G3y6DSOTi0ySWRfelHIjjZkIk57rRx6K76iLn82pd5utjZ3g1FB76/UM4ePCgUwzr4MCgYc2kt995BxkZd13JzdnU1ISGhgY0Njai8fK/jY2orq4eMgLMbDajvr43D9jJkycHmsOwEX0mV/SECQgPD0dcbCyioqMRHByMxeuXkvFFEARhBWRsDcP7j7+DS+XlqKyqQsWlClRWVqC8vHxUUVfBQcEIDglGSEgIwsLDe0OXg4MR3BfGvGLzSgBACzRoMWqA2gKg1nX74NVv38SCBQvwww8/8KK87+w9goWzp/Mqb9BlehrLwQjd4BYSb9P7Gxoa2IH0UlNT4zC9uJdnDjLpMwA9VUBVFbqcxPCtPJcPY+fQkQidn+1gFixYwJJeuK+XscCka0N3+Wletu9Y6GUwjJ0dqM0tRtTUZLg6rLkHxtJTQOJciKTczT/WXXkRphZ+3OxNJhMOnuCP2ZyWloZf/uKXLmWwxCfEY9G6IUwlf0DoL0F0agI+feZD9rLR1dDQgNraWjTUN6Cmphr1tTVobB58i4TRaERZWRnKysqum+cKhUJER0ezkZGRiIqKRvSEaERFRiIyKgprtj1EhhdBEMRVkLGF3uiriooKlJWWorS0DKWlJSgvL0dlZSVm77lhxNe7vN8+Kioa4eHhCA0LRWREBMIjIi4nmkQHelCKKpQ2VgGNAM5RPwzFX/7yF9xyyy12zYvgKHLLq5F9Pp93J75dmWTVFQHAoIt1k8nEDqYXWyKvhtOLu7s702+RXnISsBiAznKg3IW2VjEMaosqSS8808u4Lp6v6MXieh8aI9DLYNQWVZKx1Qdr7oGxKJOj5hbLK1MLDIPvTp5Dh6GLN/2/4fHH8d2337nUmA8Ls/702xWbV15vMgkARAJekUH44cVMtq6uDjXV1aitq0N1VTXq6+tQVVWN2tqaQRPgm83mK6bXtUgkEjYqKgrx8QmIjYtFzIQJSEhMREREBOX0IgjCJXEpY2vvi1+isqICJaWlKCkpQVlpKcrKymyKvvL29kZ0dDQmTJiAyKgoxEyYgIjISISFhSFj072wALiEGlxqqenNZUXG1ah44JVH8MCDD+L1117jRXnf2XOYtwv1y4t1i28kO5BeKioq7KoXLy8vqyZgprba3u1ULhh5AgCmnh7oW6xLjHf66bXMAw8+yJJexlAvRgPcoyYB4MZ6gvRivV4GQ9/SAoOhCxKJB30I4ydzi5mQxp2cW31bJU3tdTxqSBZfHM7iTXHTZ6bj1lt+7lJGiZubG+7bstpu1xvw5EQ3ALFAQGwYMp8/zlZUVKC6qgrlly6hqrISNdU1KC8vR2vbwFtrDQYDCgsLr8vtdTnKKzY2FrFxcYiNiUFcfDzi4+PJ8CIIwqlxWmPr/cffQWFhIYoKi1BYWICioiIkJyWNaEHupVAgIjIKsXGxiIiIQHRUFCZMmICo6Gjc9ewKdKAHueZi5JYXA+U0mBzNI488gkMHDw57RDMXyM4vxdn8UkxLjuNF22rDZrDX6qWiYq3d9CKXy0c1meqpL7kSGeOq6DsMpBcuGyktVWC7O+AeMx2MSDyuZSG9jFwvg9Gh7yBj6ypYcw+6yk5BHJ4yzqclsmBNPegqyYKlQ82rNiyvbUR2filvyrtuw3qnya1lLRGREWP695Y/lXH9HCkU8A0NxtHnf2QrKipw6dIlVFyqQE1NNYqLS1BRcQl6vf66t/WL8jp06MrPhUIhYmJi2YkTJyIhMQEJCQmYOHEiVm19gMwugiCcAt4bW3tf/BIlxcUoKCxEcXExCvLyUVRUOKIthN7e3oiPi0dcfBwmxMQgPi4OcfHxuG/LahjBooAtRUFVaW9i9qM0aMaLO564E3/buhW/Wr6cF+X9+8d78dnfNnAqYkI06VZ2IL1otNpR6yUgIMDukyPWZER3+RneJAPmEvvW3MP8betWlvQydpi1rTDkHYE4Zvq4JNomvRBjM9BYGKtzYdG3QxyZOi5GrlndjO5LOWDNPbxrvo/3HYFQKBz1ab9jwaJFt+Pmn93kcsZHWFg4jODGZ9GAplcsEBobjfcff4e9VF6OktJSXCovR2lJ6aBRXmazGSUlxSgpKQb2/vRzL4WCTUyciMSJiZiYlITEhETExccN/HcJgiA4DK+Mrd3P70J+fj7y8vJw4fwF5OfnjSgKy8/XD4kTE3tDcuPiERMbg/j4eGRsuhdqdOJ0xwWcvngBuEgDg6s8+fGfser++/H+e+9xvqy55dX4/tRF/GxG6rj8fSb5ZvZavYwkCmswvVi7dXC0mNpqYazK5eXCxRG4i91G/J6K7c8xq+6/nyW9jOGav6cb3UXHYQmKgTg0ERAIQXrhh14GwlPmSY052Jhrr4NZ1wr3qCljtjWRNRlhrC3kTz6tfh/KDNRqLQ6eOMcLU0soFOKJJ/6Ef33yicuN7bCwMFxCDefLeV20VV+U13ebDrMlJSWorKhEcXExiouLUFRYNKDhpdFqkX0qG9mnsvv1fXR0NJs6aRJSU1ORkpKC5ORkMrsIguA0nDW2rjaxcnNzkXvxIialplo1GRCLxYiJiUFycjISExORmNj7FGLF5pW9Jw2qTuPEqdPAKRoAfGT9+vU48v33qKys5HxZX/jgK9w4daLDj4y/drISPgAAIABJREFU2sS6rBdrTazB9HL9aYMNYCraYQpPhsgnFGAcM78x6dpgqi+mqJNrkEg8IPP3H3HeINLL+NDTWA5TWy3EpBde6aXfvVHqCYlU4rJ5yqyB7elGV2k2hAo/iMJTIZLK4JA8cyyLnuZK9NQV8de8ZVl88d1x3iSNv2/lSqSmpLqkkREeHt6bI5enZGy6t3+/+QO+/sHYv/EAW1pSgqKiIhQVFSE/Px/l5eXXHTRz9XbGPbt3Axjc7IqLjWUuRyDSv/b/VyKRICUlBQ8/8gi2fr2dPnQIYqj18K1/XDLuhdj30h4UFxfj7NmzOH/+fN+i3LoE1UEB/khMSkbixIlISkpCfFwcYmJjsWTDMupdJ+aF3/wFd991Fy+eev7h17fj//3qNrtdz33q7ay99dJ97sCIJq8Cd0+IAidA5B8Bxk4RKWZ1E3qaymmBPgTFmWdQkZM34vdFr32adVW9cAHSC7/0ckU3aSlImDudGnIECJVBEAXF2G0rLmsywtRWh56GErA93bxtFwvLwmI2Y/6Dm0a09X+88PP1w/c/HEFYSKhLGluv/fN1fHruC6ev56sPvoSY2Fi2oqKiL7KrGHm5ucjLzRs0aX0/vfeaXZgyZQqmTJ2K6dOmITYuDj5Kb4rscgBPPv0UjjRmjmsZdm36BBFh4dQZAPYf2I/ndm+16zV12e3Iy82lxrWRcTG2Pn3mQ+ScPYuzOTk4dzYHF3MvwmAYPtFrUIA/klMnYdKkyUhJTUFKSopdTy0h+MVtkTfh1Vde4Xw5PSUe2L/tT/AL8LPpyX93zFzWXnrxrMqy62SDEbpB6BUAkW8YBAq/kS3aWRYmfTss6kaYVY2wdHfQoB4Gg6ELx97/EhaTacTvrZl2I+sKeuH0By7phTd6EYhEmLfqTkocbyMCd0+I/MLBKINHHMXFmoyw6FUwtdXCpG4ALBanaJN3/3MIr35+gBdlfeWVV3Dfb+5zWXPi812f49Vv33TqOh7c9hVmz5qFgsLiAX9fVFLM5ufloaCgEBcvXkB+7kU0Ng8fASuRSDBlyhRMnjIFM2bMwJQpUxAdGUVGF4fNlJFAxpZj+4KMrVHOsx1tbF0djZVzNgcXLpy3aksMmViENWMr4+67kZOTw/myzk9Lwj83/m7Y110djTVavdjbxBr+bsJAIPXq/ZIowIjcwAjdwApFYMy9C0tLdydYYycsnRpYOjSUD8gGGsuqcP7AkRG/7473/806m174/elLeuGyXlJunoOwpDhqQHsMdaEbBHJfCDw8wYilELhLwQp7txszZhNYcw/Y7k5YjIa+sa52Oq0bOg24+ZHneBGtlT4zHQcPHnRpI+K77w/jmU//6tR1fHr541h8++IRvae0vIzNy8tDXm4eLl68gIL8AjQ0Ngz7vqioKEyePAVp09Iwbdo0JCQkwNfbh8wuG1j+q+Vo8G4bt79PxtZPkLHFPeyeyGTvi1/i4sWLyM7ORnZWFialpg4bXSKRSDApdRKmTkvD1KlTMWXKFNy3ZTVq0Yzaym9xoPJb4GvqLKI/SzYswzvbX8fixYsHPPKYSxzNKcChY6dx240z+0WhiCbdyl6tl7Nn/2STXvqbWHqgKmvsK8mysHSonW9RwjGCYiOROG8Gio6dtvo9ifNmwJCzn9m+fTvLZ704FaQXTuslZGIsNZ69hrq5B2Z1I8wu2wAsPjnwAy9MLbFYjM3PP4eDBw+69JhVKpVOX8eCgoIRvycuJvY6M6q0vIw9e+YMLubmDrqroLKyEpWVldi796sr89hf3vFLdvacOZg+fTqmTp1KRpeV5OXmwffGYGoIghiAURtbu5/fhXM5OTh95gyyTpzEpNTU65IQXsvVzv3UKVMwMSkJSzYsw5HGTBw5mAkcpI4hrOOBVx7BtpdfxoMPPMD5sm7+YC8W/W4je7Vezp1fb5NefsqJ1TU+JhYxrkRNTYbc1xuFx88NmRxb5u+PiXOmwjciBADg23yB2fbyyyxf9DJrUiKUXnLqcGJc9EIQ9kCt0WHH3u95UdZH//d/MT1tmssbDAEBAU5fR5PJPlbztWZXm6qdLSwowLnz5wfdeWAwGJCZmYnMzN58URKJBIsWLWJnzb4BM6ZPx9S0NAQHBpHRNQBd3V3UCAQxCCPeirj7+V04feoUsrKzcSo7GxcuXBgyIbFYLMbUKVMxdVoapqWlIW3aNKzYvJJanrArc33SsXPnDs6VK7+ggB2tXq4/nZAgerGwLFQ1DaguqoLR0I2ezt68S56+PohIjIRXSMCAJwxuP3SR5aJersUltiQSnNcLQYyGTW99hi8Pn+R8OVNTJ2H3nt0uHznj5uaG6StnO309fxm7CBufeGJM/lZFVSV7/vx5nDt3DqezT+Hc+XNDPtQVCoWYPHkyZqanY1Z6OmbMnElGVx8RkREIvSV63P4+bUX8CdqKyD2GncHt//tXuHDhAjKPZeLE8eOYlJo65MJcJpNhypQpSJ81C+np6Zg6depP0VgHMoED1OiE/dn45EacO5cz7vmDysrL2dHq5adoLANQnkmdSwyKgGHgGxEC34gQWFgWAoYBmL7hM8QWPq7oZTiO5hTgs4NHcc+i+dTZxLjphSBsgmGQW1qJPT+c4nxRxWIxXnppK20HA6D0VtLYtTPXJo9vbm25Jg3H2X7bF81mM3Jyeucob735JoRCIRYtWsTOnjMH8+fPR0pqCp28SBDEdQxobL3zx9fxw9GjOHniBKZMnjxkPhYvhQLTZ8zAzJkzkZ4+C8kpyViyYRn2lX+DfeXfAJ9SIxOOZ/H6pfjorZ1Y+ss7rEpkadfF99Gj7Gj08pOR1YDucw3UmYTNi3ZrF+hdOfuZN996ix0PvYyUlz75GilxUUiNiyLzgRgXvRCELVgsFryw44shH25xhXXr1mHmjJlkFAAI8A+gRnB0G/v5X7d9MT8vH9nZWTh16hTOnD7dLyed2WxG9qlsZJ/KxvbtL8NLocCK/1nBzp03D/PmzkVqSiqNXYIgeo2tT5/5ENlZWTh27BiOHv0R8+cP/nRcJpNh7ty5mJmejvT0dExMTMCidUtRW7QPu4v2UYsS48Z9W1bj3Z07cNeddw6bgH00nM3JYUejlwkTYpj83ItYPtEb3eeqqOOIccGzKot5d+cO1tF6GS1GoxFrt3+Er/++ARKJB3UcQRC8YNehH5FbXs35cs6dOxfnz18gY+DyZ6PMkxphjLk2UlCtUbGFRcXI7kvjkZmZ2e+hsUarxaFDh3Do0CEAQEpqKjt//o2YN28eZs+Zg4iwcBrPBOGCMLf+cQmiDaFXbg7XIhQKMX3adMyeMwdz583F5MmTsXj9Umo5grM8ctODePSRRxx2/dtuu40diV5iY2IG/ICdn5aE15548KfIAYIYB440CVhH6sVekF4IguALDY0t+OXjf+f0QwMA8Pb2xqFvvsGTGzcyX/z7C+o4APMXLIAx1vkjOccyx9ZoaVer+qX5OHP2zKCRkLfddhs+/denTjtRoBxb3IFybHEPAQAsWLiw3w9jY2Ox6v77sWPHDlzMzYU6tBMHKr/Fkx//mUwtgvO8fvhtrF37mMOuP5xesk9lM9u3v8z8avlyZjBTC+jNH/TyR19RhxHjysJAC+NIvdgL0gtBEHzAwrJ4+q3POW9qAcD27dtx35bVTGdnJ3VcHzKK2OIcPkpvZuH8BcwzTz/NHDx4kLmYm4sdO3Zg1f33IzY2dsg5OkEQroMIAG688UbcccdSzJ03F3PmzMGqrQ/ghOo0Tuw/Dex/lVqJ4B0HKr9FRkYGdu3aZfdrX6uX2TfcwJSVleH9994b8bU+2HcEoQE+uOf2BZTrhRg3Vs+OYurrM1hH6MWekF4IguA6O3d/gzNFlzhfzj/88Y/YsncbAwB6fQd1XB9eXl5oh54agsNce0JiUUkxe/z4cWQey8SNN95IDUQQLooIAFZtfQAQAEXHy7Hj+IfUKoRT8PwLL6CpqQk//PCDXa87+4YbGADYu9c+0SMvfvgVAv188LMZqdRphNPpxd6QXgiC4Cq5ZVV4/YtvOJ8wfsGCBfjD/z6KQ+sOAwAMBorYuoxEKgXouQmvSIxPuGJ02fKQmSAI50BATUA4K4vXL8U/33gDaWlpnC6n2WzG+lc+xNn8Uuo0YtzoytnPkF4IgiBsw2DowtrtH3He1IqKisIrr76KReuWXjEDOjsN1IF9eEql1AgEQRA8hIwtwqlZ/lQG3nv/fcTHJ3C6nEajEb//27vILaNTEonxg83/jiG9EARBjAwLy2L9Kx+gsbmF0+WUyWR45913kbHp3n5buShi6yekUsqxRRAEwUfI2CKcnoxN9+Kzzz+7LsEk1+gwdGHNX/9Ji3UXo626HsWZZ1CceQZqjW5cy9La0oby97YxpBeC9GKdXi6XpbWljTrHhXn5o69wNKeA02UUCoV466238Ogbj113qE1PTw91Yh9eXl7UCARBEDyEjC3CJVixeSU++vhjREVF0WKd4AyNZVU4/dX/oSInDxU5eTj1r73jtlhvq65HzhcHUZGThyN/WMOQXgjSi3V6qcjJQ84XB9FWXU+d5ILsPZKFD/Yd4Xw5n3/hBWz+z98Y6jGCIAjCGSFji3AZVm19AJ9+9hkvFusr//wasi8UAAzNQZ2ZstN5/b63mEyoyM4bl7IUHj8Hi8l05fsTjz/MkF4I0ot1erGYTCg7V0Kd5GJkXyjAU298yvly/uGPf8T7WZ8MeoPUaDTUmQRBEASvIWOLcCkum1tc32ZlNBrx0Nb3cOjHU9RpToyx4/q8Ji1l5TAYusa0HK0tbdC3XJ8b5uJLmxjSC0F6sU4vPZ0d1EkuRG5ZFR7ayv0T2FauXIlDVYeHdP25nvCeIAiCIIaDjC3C5Vi19QHs+ve/eZEge/0/Psa7/zkECEiqzoh3RNh1P7OYTKg+mwcLO3bnjZefyB3w5/7hgVDUnmZILwTpxTq9EK5BblkV1vz1nzAajZwu57Lly5GlzbEqlNUCljoWgJeScmwRBEHwEZr9Ey7Jis0r8dnnnyEtLY3zZX318wPY9Ma/YLpq2wvhBDAMIhIjB/xVRU4etFr9mBSjrboeqqrKAX8XmNprZrmXZzKkF4L0Yp1eCOfFwrKoqKzB77a8i44xjhQcKTfddBNeeuklq16r1+khAG3lJgiCGE98fX2pEUYBGVuEy7Ji80p8/MknWLBgAefL+uXhk/jN06+M+ylghB1hWfhGhEDm7z/gr/MO/Ohwc8Zg6MKF/zs+8CI9MQFKL/mV793LMxnSC0F6sU4vhHOSX16NXz/7GjRaLafLeccdS/HW229j8fql5FYRBEHwhPkL5lMjjAIytgiXZvlTGdixcycyMjI4X9bc8mosfuxvOJtfSh3nLDAMJs6ZOuCv9C0tyP3+tMO2WFlYFme/OgzjIHmBotNTrvcW8r9jSC8E6cU6vRDORfaFAqz56z85H6l1xx1Lse3lbViyYRmZWgRBEDxizZo1CA0LpYawETK2CJdn8fqlOG8swNq1j3G+rBqtFvdvfgPv/ufQmOaUIRxEXxRKYOLAW5iaiopx4dssu/e1yWTC6f8eHTABNgBEp6UMGn3SlbOfeebOOQzphSC9DK8XwjnYeyQLD219j/Om1rLly7Ht5W0UqUUQBMFDMjbdiz179iA+Pp4awwZE1AQE0cuBym/x2uuv4/ENG2AwGDhbTrPZjJf/9TWyckvxt4dXwM+f9mPzncR5U6Gqrh0wGqSpqBinDd2Y9PNZkEg8Rv231Bod8g78OOgiXebvj5hZU4a9zurZUcyEmNdZ0gtBeplCneKkWFgWO3d/g1c/P8D5sq5evQaZ7dnM4vVLqeMIgiB4yh/e3oCT2Vk4ePAgci9ehHYctr4XFBTi6A8/8K7tyNgiiKt4/fDb2LVrFx5YsxqNzS2cLadQKER2fikWr/sbnly1HL9YkA4BQw9o+YpE4oHJP5+Ds/u+h2WAPEGqqkqc/FcL4mdPQVhyPGBDRIqFZVF9vgAlJ88N+Df+P3v3Hpfj/f8B/HV1K6KDSg7lEKWD08gUk/G1MaetJGvLaTk0/BiTHJY5W0SWMcbmNIawnE+jMJEyx+ZYCCmTikp3Ol2/P6xWVEp3dV13r+fjscfovrvvz/2+7tetz7vP9bkAQKNaNbTq8z6qVSvZPw3/q5cjBAQEiMwLMS+kbpTKdEz234CTF65JfqwzZszAjqt7+KFGRKQG+nn1r9TnH/LZZ7JsbPFURKJXeK33RuCevbK4AtxzZTq8V27BqDkr8CQ+gQdPxowam6BFN/sib89Ie46/j51GyJb9iLkWWeKNspXKdMRci8SJtTtx49S5IifpANC+X/dSn1LV7EW0wLwQ80Lq5HbMI3zuvVTyTS2FQgE/Pz82tYiIqMrjrxmJCuHu64H923dh/rx52Lhxo+THG3Y1Er09feHh+D+MGtCLB1CmGrZoDgD4+9jpIu+TGh+Pv4/F49qJMOibNkS9xsaooauDavo6effJepaK9JRU/HM/Hkn3ot/4vBrVqqFNzy4wamL6Vqtb9GLOCQHbt4vMCzEvJHd7jp/FnF92IiMjQ9LjNDAwwOo1a/DtlrlsaqnQ89RUFoGISIbY2CIqQu4yUH9/f0yfPl3S+wgBgFKpxLJtB3Hg9AV8O2Ig2rdszoMo08l6NS0tXPnjVLGrRXKyspB0L7pEE/HiaNWshXd6doZRY5MyTdJfXDwoePVrj3bt2onMCzEvJCuCgKdPk/Hdut9x8MwFyQ/X0tIKa9etxUi/MWxqqVhWVjaLQEQkQzwVkegNVp1ciz1798LGxkYW44168AjDZi/HlO83IO5RPA+gDNW3aAK7QY7QMTYu1+cxaGKGToM+fjlJV9GeUx+aagjMCzEvJCfB4Vfg7OUri6bWBx98gF27d7GpRURElA8bW0QlMH7lJOzavRvDhg2TzZgPnrmAXhO/w5KNu/D0WQoPoszU1tfFe5/1gXWXDtBQ8ebUWjVrodWHndHhk67/XTlOhatPTJ5eF5gXYl5I6p4+S8GU7zfgK9+f8TjpmaTHqlAoMH36dMToPRacvV3Z1CIiIsqHjS2iEnKc5oKzyRewdt06GBgYyGLM2dnZ2LD/OD4aPw8//34YSmU6cjghk88HtCDArF1LdHF3QVPbVtCqWavME3TrLh3w/hf90bBF83K9MmDWlSOCV7/2AvNCzAtJTY4oYuuhk+g10UcWq7TqGNXB5t9+Q+CN/XwTljNlupJFICKSIe6xRVRKvvu+x+EjR/DN9OkICgqSxZifK9OxbNtBrNlzHB6O/8PADzvzal4yoq1dA1YO76J55/Z4fPs+4u7EIul+DDLSnpdocm7QuCEaWzeBQaMGFT45t9dNFQ4fOSIyL8S8kBScvxqJeWt3IOrBI1mM18HBAX5Ll2Kozwi+GSvi8//5cxaBiEiG2NgiegtDfUYAei83lp8zZw6SkpJkMe7cDbPX7DkO1w864os+76NO3To8rUYmNAQB9S2aoL5Fk3+PZzrS4hOhTH2OrBf/XcGrWnUtaOvUQk1jQ2jX1P7vASrpONe6d1ZYNtoRxz7+WGReiHmhynA75hGWbtqNkxeuyWK8WlpamDZ9OgKuBApDfUaU63Pp6OogNYVXAwSANDa2iIhkiY0tojJYdXKt7FZv5U7YN+w/jk2H/sRH9u9gyMf/Q+t/J38kH9raNaDd2KT4O0locv6hqYbQSWart5gX5oXk7XbMI6zecVgWpxzmsrGxwffff48Jq724SquCJSenADVYByIiuWFji6iMcldvrV6zBrNnzkLcozjZjD07OxsHz1zAwTMX0Nq8MT77yAE9O7b9b4NkIhXLXb112tVVZF6IqLzIsaGlUCgwZuxYjBs3Do7TXCqsqaWtrc0VW/9SKtPY2CIikiFuHk+kIksPLcex4CCMGjUKCoVCduOPuH0f3iu3oNuXMzH7p62IiLrHg0rlprNBusC8EJFKCQLCLl/DiNnL4fj1d7JqarVu3QYHDhzA0ZgTQkU2tYCXjS16SZnGzeOJiOSIK7aIVMjZ2xUAcODAAcyaOQth4WGyew3PlenYGRSKnUGhsGhUH649OqPHu624txCpnHj1mDChZ2sMGHBAZF6I6G0plenYfSIMAUdPy2ZT+Fza2tqYOHEiho8YgX5e/Svl1EOFBn/PnSs5JZnTIyIiGeK/ZETlYMJqLzw1TcPKlSthYmIq29cR9eARFqz7Hd3GzsGIWT9g66GTePoshQeYVKphyi1hrdcggXkhopLKEUVERN3D7J+2otuXM7Fg3e+ya2r17t0HQcHBCLyxX6isphYA1NLhVV8BIAcilEqu2CIikiP+SoKoHC07ugrBx4Ox9pe1WLFiuax/YAq7Gomwq5FYuHE33rVuhg/t26D3e7aorc8fiEk13jfOEoKPB4vMCxEV5XbMIwSHXcKOPy8jNvahLF+DhYUFZs2ahfmBvoK7r0elj0dLS5NvLAAaEJCUmIj64Oc0EZHcsLFFVM4cp7kAAE6cPImVP/6IzZs3Izs7W7avJzs7O2/SvmDd72ht3hjtbczxUWdbtDRvDA2BF3Git5d15YgwzK4hXE6eFJkXIoIgIC7uMfafPo8Dpy/IblVWfgYGBhj/1VcYMmQIKnOF1qu4x9Z/EpOSUB+86i0RkdywsUVUQYb6jADwssG1dOlS7AoMVIvXFXH7PiJu38eG/cehr6eHzq0s0P3dlnjXuhn3GaK3VuveWcGrX3uMHDVKZF6IqpYcUcTV2/dx9vJ12TezAEBLSwvDR4zA6NGj4Tp7sBDgJa3Ps9q1a/NN969nT59h/+Jd6OfVn8UgIpIRNraIKthIvzEAgMOHD8Pf3x+HDx9Wnx8Ik5Nx8MyFvCtRNajfAJ1bmqFjS4uXE3djI74BqFQM4i4I8z7vhi89PETmhUh9PX2WgrNXbiD4r6s4/XcUniUny/41KRQK9O/fH5M8PeHu6yEcnx0iyXHWrFmTb8B8EhMTWQQiIplhY4uokkxY7QVoA38cPYofli3D/v371e41xj2Kw85HcdgZFFpg4m7VxAStmpvxVCwqsYYpt4QlI/pgkqenyLwQyV9uI+vvOzEIuXxd9quy8sttaI0fPx4e/uMksY9WcXgqYkFPnjxhEYiIZIaNLaJKNn7lJEDzZYNrzerV2LVrl6z3FCrJxD2XlpYWrBrVR3sbc7Rq1hDNmzZCU9N6nLxTkUyeXhcWDuuJryZMEJkX5oXkISsrCw9i4nD2+h3cvBeLkIgoPHocr5avtV+/fvh60iSMXT5B8PAfJ4sx16pVi2/SfJK4YouISHbY2CKSiPErJwEAToWEYP26ddi6dStSU1PV+jVnZGTk7Tn06uTdyswUVk1M0MzEGFZmjVC7th73H6I8Jk+vC7Nd38ckT0+ReWFeSDqysrJwPfoh/o6Mxs17sbgZ/RA3HzxCRkaG2r5mLS0tfPrppxg1ahQ8/McJY5dPkNX49fW5x1Z+XLFFRCQ/bGwRSUzuKQtnQkOxdcsWbFi/AXH5Vm2ou8Im7wCgr6cH60b10Kh+HZgaG8C8sSmaNDBGk/p1UK0aP8qqKr2Yc8KEnq0x/quvROaFeaGKo1SmI+rhP7jzIA6R9+NwN/Yf3IyJR3xCotquonyVvp4ehgwbBnd3d7jNGyack8kKrVfVNmBjK79//vmHRSAikhn+dEskUQNnugEA/gw5haN//IFNmzYhNDS0ytbjWXIywq4mI+xqZIGvKxQKGBsZoolx7bxJfKO6RjA2rI0mdQ1hWMeQp2pVARo3jguDbBtg+IhTIvPCvFDZ5YgiEp8k4t7jRMQ8TsDjxKeIvP8ICc9ScDf2MR4nPauytbGwsMAX7u7o378/nL1dhaPzTsj69RjUNuAbPp/Y2FgWgYhIZtjYIpK4vEtO13+5D9dvmzfj999/V/vTrkoqOzsbjx7H49Hj+Ncm8fkn8sa62mhUrw7qGupDX0cbdQ1ro45uTdSvXxdGurWgp6fDCb1MZWVlIfW5Egkpz/Hk8hIhLfk57JoYYM7coyLzwrxQMXlJSERS8nM8eJyAh/FJSFO+wIN/nuCfxGdISE6tMiuvSkKhUKBHjx4Y9sUXmB2wQNj01zZs+mubWrw2fX09HuB8YmJiAJaEiEhW2NgikpHcfbjCwsOxb98+bA8IwIULF1iYEk3k8drpWq/9cK+nB2P9mtDW0oKhvg6MDfSho10D+jra0KmpDQOdmjDQq4Vq1TRRW18X+tU1UUunFrRranM/ozJSKtPxIiMTSmU60rKy8fRZCp6lpSMl9TnS0l8gNU2JZ6lKpCrTEZ/0DInPUqHMyEDck6d4rkwv9DFX7DgiZGdn4+q1ayLzwrwwL8XnRaFQsJFVCBMTUwz8dCBcXV3h7ushzA5YoHav0cDQkAc6nwcPYiC01GIhiIhkhI0tIhly9nZ9+YcmQNCSYOzYsQM7t+/AkwRueFoWz5KT8Sw5+a0mfLW0a6Capha0a1SHse7LS6fXrFEdNaprolaNGqipXR0AoKNd42VTQOflfXRq/nff/HR1Cl6lSr9mjXJ97VlZmXie8fprTEl9XuDvaekvCvw9NU1ZsIapL/+e+u/kOU35As/TX/45/UVm3vfHpyihTH+BrMyMIifaZZV7zFq2aJG3tCgoOFhkXpgX5qXovNDLzeB79uwJV1dXdO78Hnp7OgmHfYPU9vXq6XF5Un6xsQ9h2rIpC0FEJCNsbFGxfp2+FhFXriA6OhrR0dF4+vQpnj59isyMzLz7aGppwsioDurVqwcjI0M0a9YMlpaWMG3YEH0nO7GI5Sz36kuhYWdxOiQEu3btxh9/HIFSqWRxKnDC91yZjrCTf4qF5SUhIxMJKTkv8/IiE0ZGdaCl9zIvZvnyYmFuLsitLgqF4rU/S9kH3bsLABAZFSUyL5WbFyjT8SwZePS46tRFbnmpamxtbeHo5IR+/frBbd4wYX6gLxA27PmRAAAgAElEQVSo/q+7Tp06PPj5xMXG4YrfZfT25M+wRERywcYWvWbZl4sRsH07Tv35J+zt7N76cbS0tNCubTu0a2+LDh06oGPHjv+tNCKVy9uLSwP46/x5BAUFYc/u3Thx4gR/E1+ODh8+LKoqL/Z29mL+vORfaSRF+SfmcpukN7ewyKvt1WvXROaFmJeqydLSCo6OjvjE8ROM9BsjbLm4A1su7qhSNTAyMuIbIZ/MzEw8+ucxC0FEJCNsbFGepaMWYf68eejVq5dKHi8jIwNh4WEICw/DT6tWQUtLC++99x7+1707evXqhaE+I1j0cpLXQNQDzl+4gKBjx3Dw4EGcOnUKGRkZLJAKHDh4UCzvvHTr1k3MzYu9nR136i4n+RuIly5fFpkXIvVmaWmF3n16o3evXpiw2kvYG3UIe/0OVdl69J3sBEMjQyQmJPLN8a87t2+r9wSwGpvrRKRmn2ssAQHAmK4j0N/JqVwncRkZGThx4gROnDiBuXPmoFu3bhgwYAB69Oz532ojUjnX2YNf/kEPuHjpEoKDg3HwwEGcOvUnrxT3lvz9/cWKzssHH3wg5uYl/2ojUq2277xTYCUX80KkHmxtbfHRRx+hV69e8PAfJxy+F4TDq4NYmH/Vr2vMxlY+t+/cUevXZ2VlxYNMRGqFjS3CYvcF6N+/f4WefpOdnY2goCAEBQWhfl1jDBo6DG5ubnCbN4wHpBzlreSq8bLJdTY0FMHHj+N4cDCio6NZoBLYu3evWNl58Zw8WXRzc0N7W1s2uMpR/pVckVFRIvNCJB86OjpwcHBA9+4foGu3rhjqM0IIvLEfgTf2sziFMK7XALh+k4XI/cy/dUutX19nBwdYWlrilpq/TiKqOjRYAlqzZk2l7inz6HE8/JYsgUPnznjPoAN+nb6WB6UC9PPqj/mBvjiTdA7V2+kiKDgYM2bMgIODA7S1tVkgGeTFffhwMSw8XORRKX/NLSyEIUOGCOvXrROio6MF5oVIeiwtrTBq1Chs3bYNFy9dwl3th8La0F+FoT4j+EuANzAyMmQR8om8Fan2PwNu+HUjDHnciUhNcMUW4bZE9hFQKpVYv24dtm3dimFffIHRo0f/dxodlbvcqyvC+OVqrr/OnUPI6dM4HXIaERFXWCAJ52X0mDHi6NGjC5xGR+Ur9+qKAHDj5k2ReSGqeCYmpujSxQGdOnVCp/few1CfEcKfT87iz4CzQADrUxoNGjRgEV75t97IVL1r4vnLNJwJDcWihYsQFHQMiYmJUCgUeVdtldL/X6S/QGZmJt+YRFQkNrZIclfDUSqV+GnVKmz97Td4TZ2Kzz77DH0n85LLFclxmst/f7EAzm+8gL/++gvhYeE4c+Y0bt26VWWvHCflvMxfsED87LPPYGFuzgZXBbK2sipQ7/MXLojMC5HqmZmZoZ2tLezt7dGpY0d4+I8TLmVcw6WT17DqJFd7l4WJqSmLkM/du3cRGnZW7feAdff1ADQA0x5NYYqmkh3nJxa9MX3aNL4xiahIbGwRevTsiZCQkAp9zpr6hjCxbgUA+CfqBlISXr+s8rPkZMzw9sZvmzdjkc9CTN04gwerkhTY+8y6Gi5uv4Rz587h3LlzCA8Lw/Xr16FUKpkXieRl9+49opOTI5tbleTVvc+uRESIVTUvRG9LoVDA0tISHTt1gq2tLezs7DDUZ4RwTYzEtbORWH92M4ukQiZcsVVAZmYmbkdFsRBERDLBxhbB1dUVq39ajdjYhxXyfBb278P5m0XQqlkz72s3TwfjyKrFSP4n9rX7X79+HQMGOGPEiJGY5Dmp4GoiqhQDZ7r995cmwJXtEbj691VcvnIZF85fwOXLl9R2c2255MXD40txkuek11YTUcUxMzNDq1atsD0gQGjzzjsYP348nB+F4Mr2CLGq5IWotHlp27Yt2rzzDlq2bAlnb1fhTNI5nAk6BwStZpHKUaPGjVmEV1y6fJlFICKSCTa2CI7TXLB8xXJ8OnBghZwu88HIiahWo0aBr1l17o6Grd/Dhq8GIunh/de+Jzs7G2vWrEZwcBCWLPHj6i2JKbBUXwOo3k4X5wMv4NrVq4j4+29EXInA5cuXK6wZVJ6srayE3wMDRbnkhau3KoaFhQWsra3RomVLtLCxQes2beA2bxgicQ+RV+9hx9U9+fMiFJIXUR3zQlSKvAiF5YUqBvfYet3fEREsAhGRTLCxRQCAbzbNgv+yZZg4YUK5T9Yz0tOgofH6BTlr6dXAh6O+xo7ZXxf5vVFRURgwwBneM2Yg4EogD5yEFTh9sQaga2+IS7MP4u+ICNy4cQM3btzAzZu3EBUVKbvTsgY4OwvLV6wQ5ZKXmbNmiXPnzGFzSwUMDAxg2dwSzS2bw9rGBjY2NrC2toazt+vLJtate9hz6yCwp9R5EQrJi6gOeSHmpZC8CGXJC6le/fr1oaGhgZycHBYDQA5EXL58BbBgLYiI5ED4aGI/VoHyTOgxBhMnTkRGRka5PYdNtz4Y4O1T+CQ+LQ2+jp1K9Di9evXCwkWLeOVEmTvktxt3o+8hKioK165dw+2oKNy+fRvR0dGSn8CvXLlSlFteeOXEkmlQvwHMmprB3NwczS0tYfnvfwUatpWTF1GueaEqmRd+3sjIw6N3cf/efRbiX/q19dHCpS0LIQHcPP6lxk0aw7RH5W3yHzB7Mxo3bMQ3JIADBw9gfqCvWr62Ie9+hrGjx8hu3FyxRQUsO7oKW7dtw/+N/hKPHseXy3P8HbQPdZtaoIvbiNdui4u8WuLHOXz4MKKiorB6zRqMXT6BB0+menu+csVLTQDW1dDY2gLrp6zB7agoREZF4V50NO7du4fo6Gg8ePBAEleZGzt2rPB7YKAop7wEBQeLH3Tvzsnmv5Pxxo0bo1HjRmhmbg6zJk3QxMwMZmZmcPZ2RSJSkfj8Ms5dvAxclExehGLyIko5L6TWeRGkmBcqnaZNm7Gxlc+zp8+wZuIKePiPYzGIiCSOjS16zTebZuHA4SPwnDQJJ06cUPnjKxQKnFz/A64dP4SOLkNgYtUKNXR0ced8KE6sX1Gqx4qKioKzkxN+WrMGswMW8OCpGXdfj4JfMACqG+jiZtAtxMXF4V50NB48iMG9+/cQ8+ABYmNjERcbh8fxjytsIj/A2Vk4f+GCKKe8bN22Tfz8s8/UurmlpaWFOnWM0ahhQxjXNYZZ06Zo2LAhGpqaolGjRjAxNUU/r/54ijQ8zb6JiFs3gVuyz4tQRF5EqeSFZJ0XQZ3yQq9r0oQbyL/qr7/+YhGIiGSAjS0qlNu8YYAB4Ou7GHPnzkFqaqrKnyM+OhL7lsws8+M8S07G4EGD4Ofnh1Un1/LgVQF9Jzu9/kVNAE0AvSZ18OfiU4iPj8ftqChMnToNVyKuQANC3l5VCoWiwLdWr1EdL9JfoHqN6gW+/ur9Xv17rva2tgIA+PouFuWSF39/f3HixImSaW692lgprNGSe4xepL8ocD9rq+YYN2Ei6terh/oNGsDY2BhDfV6ucHuKNDzFPUTG3ANiqmxehDfkRazIvJAk8yIwL2TWtCmL8IrQ0FAWgYhIBtjYomKtDf0VQcHBWLhwIXYFSnez9uzsbEycOBFz5s7Flos7eOCquH5e/TGp93i4DvwUT5OfletzaWpqIjMzE5qamhg0eJAQExMjyigv4v/93/8JJbl/SWVlZRV5W26dMjMzVfp6zp77C6k+Pvjj6NHXV/lRSfIiTOo9XqzovBT6Q0m14n8sKa5ZpoHy69PmQCxVvmSUF56WTHmaNGnCIrzizJlQ6NobshBERBLHxha9+U2ib4RrYiR+DwyE78JFCAsPq/AxNG5jB3vnzwEAj+/dxZU/diPp4ev7QMyaORNeXlOwN+oQD1wV1lphhY8++qhCnit30pn7/2r6Rvj++++F8+fPi3LIy6KFi8T/G/d/FTa5VfUkPdffV6/C3NwcmzdtwpqQDQxB6fIiVlZeKur9IVcVkBdxTcgGNrcIANDcojmL8IprV68i+tA9XqiIiEjiNFgCKs6WhbtxO+XlD9bfbJqFp6Zp2LBhA2xsbCp0kj548WpYde4Oq87d0cVtBMas24Ou7l8Vev/Fi33haNmHB68KClwQgJSwRCzx86uU509IzxJz89K+fXshYMd2QQ55WblypagOx1+pVGKAiwusc8wZhpLlRUwJSxQrKy8kmbyIrAYBQHNLNrZelZOTg7CwMBaCiEji2NiiYsUps3D/ecHfGPvs8UOOdTX8sHw5zMzMyn0MNg7/y9vrJe+Nq6GBLm4j8NHYqYV+j++iRXC27scDWIX8On0tWrZogTOhZySVl27/+59w6PBhQep5Wf3TT2ozuV32wzK8uJiCA0t2MxhF50Ws7LyQpPIiHliymw2uKs7Z2xWmDU1ZiFecOX2aRSAikjg2tqhYd1Mz8TQjBzsX73ntth+D1+DosWNYvGQJGtRvUCnj69DfDRb27xd6m4+PD9w7cul4lZiYfbkYVs0tEX3vniTykpKZ/doE8ZNPPhGknpdt27apzcT2xMmTaGFjgx1ztzAgr+dFlEJeSJJ5YXOrirPg6YivOXr0GItARCRxbGxRkfYs2Ysn6S83wb2XWvg+H/28+uOX0xtx/OQJfP31JGhra6t8HLfPF31FmpycHHQaOLTI272/+QbTHT15MNWY38iFaGdrW+6bXr9JelaO+Ka8aGpqCm5uboKU83Li+HFRR0cHOjo60NbWhra2NjQ1NfP+k5NbkZGwtrLCr9N5tdR8eRGlkJeSyv/ey/0v932Z/7/c92zuf7X19Ev0n5GBYYn/K+z79XR0oYZ5YXOrCrOysmQRXvF3RAT/HSEikjhuHk9FiknLQu66k9i04q/y5DjNBQAQFByMb2fMQFBQkMrGcfev03h4IwKm1q1fu01DQwN1mrYu8nuzs7MxZswY7Ni5E56/TONBVTPz3GaiQ4cOUCqVFTLBBv67aptCoUA1DUXen1/Ni0mDBgWu4Jb/z9ZWVgIAnAkNFaWYl7Nnz4r9+vYtdkPp7OzsvKu/vUh/AeDlRtc5EPHixQvJbAIeGxeHFtY2uHbjOob6jKjqeRGlkhcAqF6jOl6kv0D1GtVfy0hxVz+UIxnmRRzqM4KbyldB1tbWLEIhjh49yiIQEUkYG1tUpEfK/y5D/jAtEweW7kPfSR8X+z3uvh6AHrBy5Up4e3sjKSlJJROC3+dPgbv/RujWqVvgtpycHORkJBf7/UqlEl8MHYYDhw5W+YmtOvEbuVAlTa38E3BNRbW8v+efbJdkkv1qXu4/jBUtmpoVOzF8r1MnAQBWrlwpSi0vYeHhor2dXZHjz18XLS2tYifzuRP5F5kZlTKJT0hKrPLNLb+RC0Up5SVXUe8ddSPTvLC5VQW1bNWKRSjEsaNHAQPWgYhIqtjYoiLdz3c6VbYIxKaV/IfrZUdX4VhQEKZ4ealkNUryP7FYN24QnKZ/h0at2+dtjq2hoYGQLW9eHv4k4QnGjB6NAzt2o+9kJx5cmVszcQVatmpVqkm6trY2FAoFqmtq5U3EVTmpLktexo4dK5y/cEGUWl6ibt8WLczN33pimzuZz62zbr7bMjIy8CL9RYVN3hOSEtGubVtcu369yl22fc3EFaLU8kKyyYvoOnswm1tVSEVexVdOgoKCcDc6mj9DEhFJFBtbVKgtC3dj1/3UghP351mlegy3ecMAPWDO3LlYMH8+MjIyyjSmlITH2DR5JIzNmqOZ3f9ejulyKOJuRpTo+y9cuIB5c+fy4Mr9vfntRlhaNEdqamqxk/LqmlpQKBSoWatmuZ/WdP7mbbGseWlvaysAwJy5c8WqkBctLS1oaWnlTd6zs7OR9jytXCfusXFxsOvQAVevXUM/r/5VJS+i1PJCssuL2M+rP5tbVYTr7MFo3KQx7t+7z2Lk8+zpM4ScOsVCEBFJFBtbVKjCNr/Of6pVqSZWF3dg+/YdGDN6NOIexZV5bPHRkYiPjnyr7924cSOWr1iBFUGreZBl6MCS3WhhY4OEpMRCJ+Y1a9WslFUlqszLrJkzhd2794gSyos4fty4cp/UKhQK6Orp5k3cc1eoJKemqHTSfisyEl3f7wpde8OqkBdRinkh5oWkrWWLlmxsFSIgYDtQg3UgIpIiXhWRCvWwkEn504wc7Fy8560eb+rGGdi9dw9sbW0r/bXN+OYbrJ+yhgdZhvo79cetyJdNGk1NTRgZGKJRw4aoV7cuahvUrrRJelF5iYi681ZXF3NychSklJczoaEVfpU0LS0t6OrpwtTEBI0aNkRtPX2VXWXuTOgZNFWaMi9saqmNCsgLr5RYhbR5pw2LUIj9+/dh/+JdLAQRkQSxsUWv2bNkL/5RFn4VxMJWppTUUJ8R2LJ1K3r37lOpr+9ZcjI8J03CIb/dPNgy0tX4Pezbvw86OjowadAApiYm0NXTrfTTpm7cviuWR17s7ewEKeXlzp3blTaxVSgUqG1QG6YmJjBp0ADa2tplfsyfVq/GkHc/U+e8iFLMC8k6L2xuVRHt2rVjEQr79/DpMwQHB7MQREQSxMYWvSYmrehTqGLTssv02I7TXLB8xXIMHly5mzeHhoZiw8ZfebBlYrH7AvguWgSTBg1Qx8hIUitNyjMv1lZWAvNSkJaWFurVrZu3KqUs3N3dsXzsUnXMiyjVvJDs88LmVhXQlo2tIm0PCGARiIgkiI0tek1xewM9TMvEgaX7yvT4fSc74dzzy/Dw+LJcX0f1WjpoYNUaevVMCp/8+frylESZmDp1qmRPnXpTXqLuRpdpImhhbi5s3rxZkEJeKuOUxKLkrkopy4Q9MzMTH3TvjgNLdjMvpNZUnBc2t9Scu68H6jeoz0IU4tChQwiYvZmFICKSGDa26DX3izl9KlsEYtNUszHtyfgzGD1mTLm8hvYff4avd/yJESs246vNh+C+fDMaWLUucB+lUolvZ8zgAZe4Ie9+huvXr1f5vKxZs1pgXoqfsOvp6Jb6+x/ExGDkiBHqlBdRynkh5oXkoV1brtoqTGpKKnbu2MFCEBFJDBtbVMCWhbuRll38L2PvP89S2fMdfxSCzz//XKWvwcC0MT4aNxXVNP/bS8bUujXcf/gVNt0K7lcUFBSECT3G8MBL1C+eq7Bg/nzJju/8zdtiReblp1WrhMrOy8qVKyW5WkOhUMDQyPCt9hTasHEjpjt6qkNeRCnnhdQqL1y1peY62NuxCEVYt249i0BEJDFsbFEBJdnsurhTr97GvPnzVbpBdjPb96Ch8fpbW0NDA/2nL0DjNgV/WJv57UzsmLuFB1+Cpnh5QalUMi8Sy8uViAjJTmpz9xQyMjAs1fcNcB4g+6tdST0vpHZ5YXNLjXW0t2cRivB3RAS+GzKHhSAikhA2tqiAhyWYhD/NyMHOxXtU9px9Jzvhe//vYWtrq5LH06lTt+g3vIYGeo+fVuDKYE8SnsDnu+948CXGw+ELhIaGqkVeIqLuqGwCaGFuLjAvb6arp4tGDRuWeDVKQlIiRo0cKee8iFLPCzEvJB/tbG2hqanJQhTh5zXco5WISErY2KI8e5bsxT/Kkl3FrSQrVUrDcZoLVv30ExrUb1Dmx3p8N6rY243NzNH03c4FvrZ161b+9k1CAhcEwOc7H0mP8cbtu2Jl5cXaykqo7Lz8Hhgo+dUaCoUC9erWLfFm2Rs2bsSyLxfLMS+i1PNC0veWeeGqLTXl7O2K1m1asxBF2LF9B37xXMVCEBFJBBtblCcmreSnTMWmZav8+Yf6jMDqNavLfCWvmIi/3ngfmy4fIju74GuYOmWK7E9FUhdL/ZbiScIT5qUY9nZ2QmXnJTIqShaT2toGtUt8qpWq9zBjXkhu1D0vVHKdOnViEYqQmZmJFcuXsxBERBLBxhblKc1eQA/TMnFg6T6Vj8FrvTd8fMq28iDtaQIuHyn6VMmcnBzUrm9S4PQqAIiKisKyZcv4Rqhkv3iuwoYN69UuL1F3o1XeBPrkk08E5qVkdPV0YdKgwRtPrbl46RLGdB0hp7yIcsgLyUsp88JVW2rqvc6dWYSi/m2EiE2bNmHLtxtZDCIiCWBji/LcL8XpUtkiEJuWWS7jWBOyAS4uLm/9/dnZ2TixfgWeJ6cX/qbX0EB6akqht61auRLz3GbyzVCJlvn7v7Y6iHkpmqenp1CZedm+Y4dsJrVaWlqoX6/eGyfr48ePZ16oylPHvFDpdOnSpdCLixCgAQGpKalY/dNqFoOISBKfy0R4ub9WWnbp5qfJmTnlNp45c+fCzMzsrb8/JeExtn0zEhlpaa/dlpOTgzvnw4qc5E+cMJFXSawky8cuxc6dOyU/zhu374rMy395kfJVEl+lUCjeOFl/EBMDt3YD5ZAXUQ55IfkqRV64aksNuc4ejLbt2rIQxVixYjl+nb6WhSAiqmRsbBEA4HlW6SfdaVnl93Oss7crVvz4Y5n2D4q7GYGfPAbg5ulgKIT/vh5xdB8uHdxR5CqH2NiH+HbGt3xTVIJVq1YxL2+hZYsWAvOi2sn69GnTmBciNcoLvZ2uXbuyCMVITUnFYl9fFoKIqJKxsUUv3wiCILkxef4yDeO/+qpMj5H8Tyx2zP4aS1174FfPUfjxi4+xb8lMZGdnv7ZnUH579uyGh8MXfGNUoPVT1mDvnj3My1vq17evUJl58fPzk9WKjTdN1mPj4iS9amv9lDWiXPJC8lfCvHDVlhp6n42tN38er1uPNRNXsBBERJU5P2MJCAB0NUv/VqhWAXP70aNHw8bGpsyPk5LwGPevhCPp4f0Sf8+MGTOw7MvFfHNUkJ9//lk2ewUxL4Xn5fDhw7JrbhnXqVPk7XPnzGFeiNQgL/T2OnfuDB1dHeSAfcuiZGZmYtasWSwEEVElYmOLAAB9J32MetqKUn1PnRqKch9XP6/+WOLnV+xqkfKiVCoxevRoBMzezDdIOQtcEIAd27fLZrwWTc0EKealuYWFUNl5uXT5sqxmP1paWjBp0KDQ227fuSPJi0kELggQ5ZQXUh8lyAu7H2rGcZoLOnbsCA0ILEZxn8u/B8Kr7wQWgoiokrCxRXma6miW+L41FQJMampWyLgm/TwVY8aOrZSaREdHY8zo0di/eBffIOVo7569SE1NZV5UoG+fPkJl5yUyKkp2zS0jA8NCb5vhPYN5IZJxXqjs+vTpwyKUgOekSQhcEMBCEBFVAja2KE8LfS3U1irZW6KNYXX0nfRxhY1tzJgxZbrqW1mEhoZihrc33yDlaMuWLWqfF4umZgLzIl26errQ0dF57evHTxyX3ERFjnkh9fKGvHDVlprp0aMHi1ACd+9GY8mSJSwEEVElYGOL8vSe9Ak+Mq31xsm6tb4WPOe4VOjYnL1d8e3MyjslKCAgAL2afMA3STnwG7kQERFXZDfuZk2bCiXNS7+2VhV6DkfLFi2Eys7LhIkTZTe5rWNk9Nrm2JmZmVjqt1RKeRHlmBdSP3LIC6mGh/84tGzZkoUogR/8l+G7IdxvjoioorGxRQW4eDnCqbEuOhrXQE3Ff3NxhQDU01agp0lNzPP5tFLG5rvve/Tq1atcn8OmWx90df8K9p96oHEbuwK3LfP3x5B3P+ObRMX2798v27G3tmgmvCkvg+1sKmVjkhHDhwuVnZf5CxbIrrlV2ObYGzasZ16IZJgXUp0+ffuyCCWQmZmJ4V98wVMSiYgqWDWWgF6V/xTDnYtfXk5eW6FRoaceFsV7xgwEBwcjIyND5Y89cPb3sOrcHcDLxkS2CDy8EYHDKxYh7mYEAGCGtzf8/f2x6uRavlFUZM+u3bIef/5TDCOi7oi5eanIUw8lnhdx4sSJstl1WEtLC7X19PE0+Vne127fuYMTnicx0m8M80JUsryII/3GcLdxNfLxxx9jsa8vC1ECd+9GY+qUKYAma0FEVFG4YouK5eLlCBcvR0k0tQBgpN+YctlI3sL+/bxJOvBykg4Aptat4f7Dr7Cwfz/vNk9PT4zpOoJvDhWY5zYTcY/i1Ob1tLZoJrS2aCZIoakFAF0cHAQp5MXf319WK7dqG9R+7RSrFcuXSyEvojrlhdSDVPNCqjV14wyYNjRlIUro142/wr3jYBaCiKiCsLFFsuPh4YEG9Ruo9DFNW7QtOiQaGnCZ5Y8GVq1fTuKzs+Hp6ckfWFTg6B9/sAhVJC8LFy2SVXPr1VOsdu7cybwQySgvpHpOTk4sQin835ixWDRsPgtBRFQB2Ngi2XH2dsV0728q9DmraSrwyeQ5UCgUeZP1aVOnwtm6Hw9IGRw/fpxFKGctW7QQpJKX6dOny6a5paWlBT0d3by/375zB1u+3ci8EJU8L7w6oppxGTiQRSiFzMxMfPrpQPw6ndtXEBGVNza2SJZ+DF4DW1tblT3e47tRb7yPsZk5LLt8VOBrPj4+6FDrHexfvIsHpZR+8VyFqKgoFqICfDV+vCCVvAwePFiMjIqSxYRXv7Z+gb/v3LGjMvMiMi/EvFBl+mbTLDRtasZClMKjuEdw/fRTbiZPRFTO2Ngi2Zo5c5bKHuv2mWN4npz+xvtZvNvxta9t3rwZ7l98gYDZm3lQSiE4OJhFqMJ5uXT5suSbWwqFAkYGhnl/31GJE3XmhZgXkgKXgZ+yCKV04fwFfOb6GfYs5Cm6RETlhY0tkq2pG2fA0VE1+z1kZGTgzw3fIycnp9j71a5vUujXQ0JC4DJgAJaPXcoDU0LnwsNZhArk5OQoSC0vfxw9Kvnmlq6ebt7G2H+d+4t5IZJBXqj8DBzowiK8hZMnTsD9iy9wYAmvbEtEVB7Y2CJZmzptKrS0tFTyWOf3bUPE0X1F3p6Tk4P01JQib4+KioLjJ59wU/kSOht6lkVgXmSxqXzu3kFPk59h/ZQ1zAtRyfPCfbbUzITVXrBtb8tCvIUD+w9gyODBXLlFRFQO2NgiWXP39YDHl1+q7PEOfj8Hl4/sKXQlioaGBi4eKn4vLaVSiWlTpyXUS4IAACAASURBVMI6xxw75m7hASrCmokr8CThCQuhQgqFAvZ29ujv7IzevfvAxOT1y7K/16mTIMW8ODo6iVciIiQ7Ac6/CmXf3r2VkReRean4vJA880Llb/Bg/gLvbR3YfwADXQZyzy0iIhVjY4tkb8yYMahf11glj5WdnY19S2Zis9eXuHf5XN6EPSMtDYd+8EFU2J8lepw9e3bjox49MbnPVzxArzjktxvr1q1jIVTI3s4ep0JC8NQ0DdfESNyp8QC69oZYuXIldHR0ZJOXn3/+WbLNrdxVKEeOHKnovIjMS7nlRbgmRgp3ajwQdO0NhcLyQvLKC1UMl4ED85qXVHonT5xA3z59eLVEIiIVYmOLZM/Z2xWeU6aq9DHvXwnHpskjseRjeyz7rAf8nB1wft+2Uj1G3KM4jBo1Cs3SG/GHFwD7F++CbY1W0NOvjRXLV/CNqyJ1jOpg3Yb1cPf1eO22ZUdXYdWqVQW+1rJFC0HKeendu48YFh4uuQZX7iqUv//+u6LyItrWaCUyL+WWF6GQvAiv5oXkkReqWK6zB8OpvxMLUQYXzl9At65dsWjYfBaDiEgF2NgitTBgwAC0bt1G5Y+bkZGBlITHyM7OfuvHOHToID7o3h39zD+qkvsqrJ+yBr2afIBO9h3hv2wZUlNTUb1Gdb5pVcTl04Fw9nYt8vb5gb7o1KmT7PLiOXmyeOPmTUk1uPR0dPEgJqa88yL2avKByLyUa16EYvIivJoXkm5eqPKMHDWKRSijBzEx6NOnN/dmJSJSATa2SC30nvQJ5s2bJ9nxpaamwm/JEnTr4gD3joOxf/EutT4eh/x2Y4bzFDRVmqKLgwOW+fvjn8f/QKlUAni5vw2pRsuWLd94n27duhX4e7OmTQW55GXhokViZFSUJBpcunq6yMrKwpZvN6o6L+IM5yliU6WpyLxILy9U5rxwA3k1NDtgQYnyRMVNwgSkpqTCY+QoNEyuy71ZiYjK9JlKpCambpwBFxdpX4b60eN4TJs6FV3f7wrXNs5qt3no8rFL8b/6Duj8ngOGDBmCw4cP563eyb+KhxN11SnJVQ5NTF/fGNvJyVGQU15mzpolXr12rdInyLW0a+L06dOqyov4v/oOIvMi/bxQ5eeFpGfEyBEsgors2L4D73XqhG8HTGUxiIjeAhtbpFa8pkyp1M1/a+obwsL+fdh064PGbeygra1d6P1iYx9i7pw5cOjcGT0adsOaifLdQ2f52KVwtOwDjRtZ6NmjB35atQpxj+Jeu1/a8zQA4IazEprMyzEv48aPF0+ePFlpDS5dPV1cvHixLHkRHS37iBo3skTmRV55oYrPC0nb525u0NHlBRdU5f69++jTuw+aKk1VvjKYiKiktGvUkOW4q/HQkToZ6jMCXlOmYNbMmRX+3F3dv0KngV+gmuZ/qytycnIQcXQfQrb+gqSH91/7nqSkJKxYvhwrli9Hp06d4OLigh49e2LgTDfJ1vjAkt04d+4cgoOCcPToUfTs0aNE3/ciM+Plh041fuxIhb2dnTBn7lxRpnkRc/PSpnVroaLGrVAoUKtWLSCpxHkRmReqqkqbF5IXZ29XDB8+HD8s+4HFUKEtv23B4cOHMWXqVAwfPhyO01xYFCKqMFrV5bm3K39iJrUzZPAg7Nm9GxcuXKiw57Tp1gfdBo1A9ivrSDQ0NPDOR45o2b0fjq7yLfZKcaGhoQgNDYWWlhbs7OzQq3dvdO3aFSP9xlRqPQ8s2Y0bN24gPDwcp0NC0Padd5CamvrG79PW1oZx89aoZVgH9y6ehfLevbyJDjEvqsyLg4ODmJuXLg4O5d7kepqUVFxeROaFqGR5Ifn7cvRorFq5CpmZmSyGCiUmJGLalKlY+eOPmPHtt3BxcUHfybwSJRFRUdjYIrXT29MJy75bjL59+5bp6mwlpVAo0Kpbj9cm6QWCpqlA76+mA0Cxk3Xg5ZXlQkJCEBISAgAwMTHFe+91wrsdOqBVq1awsLAot9/e7V+8C3fv3sW1q1dx7dp1RERcQetWrfI2sS4JXaO66OY+Di2798tbjRMffRvTe7Z/WQsNTtSlpFkzc+Hw4cOiGuVFfDUv1lZWKm12RUdHA8bA/sW7ROaFqGR5IfU00m8MnPo7Ycf2HSxGObh/7z48Ro6Cz4IFGP/VV/jcza3YKyETEZWVro48TzFnY4vU0oTVXhgzdixWLF9e7s9VmmZAjzFTEBn+J5L/iS3x98TGPsTOnTuxc+fOvMaApaUlzMyaomFDUzRs1AgmDRpAv3Zt1K5dG0ZGRlAoFNDU1ISztyv2L96F58+fAwBSUlKQlJiI5ORkJCYlISYmBv88eoSYmBjcvn0b1lZWZWpuNLBqjSG+a1CtRg1oaPy3hV/iw3sFGhtyoaWlhTlz5sLO3g4fdO+utnnp1auXMG78eFFd82JjYyOWJC8tW7QQIqOixJLk5cXFFOaliuaFSicmJgbVjXVZCHX+mWvCBDa2ytndu9GY9PUkzJ8/H59//jmGDRuGCau9WBgiUjm5ni3AxhaprXHjxiHo2DFcv3693J/rzvkwWHV+80SumqYC7fq44OT6t9+PIjs7G9evXy/x62q+y6JC6l29lg4+nb0UWjVrvnZb8uNHsvxQX/XTT/Dd9z02hP8GHR2dEp1SxrzIOi9icwvmpYx5Ef7Ni6jOeamsGgcHB+NUSAhmeHvLZtyxsbFo2s6KB1CNea33Rt9+fXFg/wEWo5wlJiTixxU/4scVP8LO3g4DBw7Ex598AndfDxaHiFSimkwvXMSrIpLacpzmgiV+fhXSdb78x27ER9+GogQnPDVu2UYt692sw/vQrVO30NuePPhvBUr1GvLYkHDmrFnw3fd9lcmLtZWVwLwwL2XMiwAqN9ra2vDwHyds+mubMGHiRNmMOyMjA4ELAkQeQfX29aRJLEIFCw8Lh9dkL1hbWiE7Qon/1XfAPLeZOLBkt1q8vsAFAZjnNhM9GnbD5k2beMCJKohB7dqyHDdXbJFam/TzVEya5InFi33L9XmyXqQjcMFUDPbbjFp6xV8i9emj2NKFtHoNmLW1g35dEwDAs8exiL3xN9KeJUqq1jV19Qr9ek4OEH/vjqzeN7169cKWi1XvtIq+ffoIXl5TROaFeXmLvLCpVYEO3wsSunXrJp44cUIW430SH8+Dpua+3TIXH/b4EMeOHmMxKkF4WDjCw8Lx3fwF0NHVQceOHWFnb49327dHi5YtJb2ia8fcLbh//z7u3LmDW7du4fq1a7h+/QZMG5ggJyeHB5eoghkYGspy3Gxskdr7cvSXCAk5hdDQ0HJ9nvjoSKwd2x+OXnPR5J0OhU/oM7NxdmfJfuukUCjgMPT/YO/0eaGnK908HYwTG1YiPjryrcds060PWnXrAROrVqhlWAdZ6el49jgON86cwMWDO0u1t1Fk+J/okTklbwPsXBoawNN/Ygq8LinT19PDgu++g9u8YcwL88K8MC+StcjXFz0//BDPkpMlP9akpKc8YFXAtOnT2diSgNSUVBw7eqzAsTA0MoSNjQ3Mzc1hbmGBxo0awcTUFHXr1kX9+vVVuiF9wOzNSElJgVKpRNrzNDx5Eo8nCQmIj4/Hk/h4JCQkIP5xPB7ExCA6+i4a/mLKg0YkpZ/t9PVlOW42tkjt9Z3shF+XrUXf3n3wJOFJuT5X8j+x2DR5JCzs30e73v1hYtUKunXqIiszG7fDTyJk67oST6z7fD0L73zkWOTtVp27w9yuK46u8n3jleNepWtUFy6zl8LUunWBr2vVrAljM3MYm5nD3ulzBP2yrMSPnfxPLI6u8sVH46YW2AgbAB4/SZDN+2X8V19V6Um6hbm5EBYeLjIvzEsp8sLVWpVgqM8IYdr0b8Tp06dJfqwJiQk8YFXAt1vmcq8tiUpMSMTpkNM4HXK60Ns1NTWhq6cLHR0daGpqQlu75r8T3P9WFyuVSmRkZOb9PePFC6S/SAcApKamIiMjA6kpqWj8SyMWnEjGHKe5QEdXB6kp8torlY0tqioTACz/cQUGDxpUpquYlVRU2J+ICvvzrb9f16husZP0vABrKvDRuKmIvXUVcTcjSvz4hU3SX6VVsyZ6fzUd8ffu4P6V8BI97vl92xB76yre/XggbLr0yFs5k/7kH1m8T+oY1cHgIUOwY9qeKp0Xezs7Yeu2bSLzwrwwL9LmMtAFa9f+gqioKEmPM+EJG1tVxaxZs9jYkqHMzEwkJiQiMSGRxSAi6Ovry66xxc3jqcqYHbAAU6ZMkcVYDUzNSh5iDQ04fD68xPdv3MbujZP0/OydPy/V2ONuRmDfkpnwdeyExU6dsdipM54mP8u7XcqnVo0eMxqO01wYFgCff/aZwLwwLyXIC1drVaJ+Xv1lsZF86nNeIbOqmLDaC26D3FgIIiIZq1evnuzGzMYWVSmBN/bD1dVV8uOMj4xARlpaie9vaNqkxPetZVinVGPRMTJ+69fx4nkq0vJN0qVMW1sbLgMHMiT5+Pj4CMwL88K8SNuKoNWChYWFpMeYUwErP0k6Zs6aBR1dHeSAF8MkIpKjBg0ayG7MbGxRlTN/wQJ06tRJ0mNUKpU4+dv6kk0YcnIQe/PvEj92TMRfpbrKzJ0L4Sp7XZqampKtea/eveE6ezADwrwwLyXPC1drSYTboEGSHl9KKldsVSXuvh74asIEaIAfEUREctS4cWPZjZmNLapy+nn1x6qffoKZmZmkxxm2fQ2O/vzjGyfVzxOf4MT6FSWfYCQ8xpEVi0p034c3IhC+7ecyvY5smfym/tNPP2U4CtHcwkJgXpgX5kXaXFxcoK2tzUKQZIwfPx6mDXm1OyIiOWrcuInsxszGFlVJrrMHY9PmzWhQX9rLLMO2r8Gq4Y64fGQPUp48LjhBT07HuV1b8PNoV6QkPC7V457ftw3bZoxHfPTtQm/PSEvDqS1rsWnySCiVSrV/PxgYGKBDhw4MRhHavvOOwLwwL8yLdA2c6Sb06t1bsuOT2wa0VHbO3q7w8fFhIYiIZKhRY/ld3ZRXRaQqa6TfGKzfsB6ff/45kpKSJDvOpIf3sW/JTABATX1DVNfRQVZ6eqkn56/KvRKdsVlzNG7dHtW09ZClTMazx7G4f/EsMjIyVP+BU02aHzkffPAB+k52YiiK0cXBQTh8+LDIvDAv/+aF5xhJTN8+fbArMFCSY8sRc3iAqqBVJ9fiwx4f4tjRYywGEZGMNG4kv1MR2diiKm3Cai+sX78BgwcPQqoM9gBJe5aItGeqvRRzfHQk4qMjq/T7oHv37og4epOBeINevXoJu3fvEZkX5oV5kR6HLl2go6Mji2xS1fH999/Dtp0tMjMzWQwiIpmwtrGGhoZGqfaZrWw8FZGqvKkbZ2Dz5t+go6PDYlRR9h07sggl5OTkKDAvzAtJj+M0F8HBwYGFIEnx8B+H6d7fsBBERPL6mQJNmzWV1ZjZ2CLCy+ZWwPbtMDAwYDGqGEtLK7jNG8ZClIKTk6PAvFTpvPA0RIly6NKFRSDJmThxIlq1bs1CEBHJSMuWLWU1Xja2iP416eepCNi+XfIbZMvNi/QXkh5f+/a2PEhvoW+fPgLzwryQtHThii2S4r8Xk53w00+roKmpyWIQEclEixZsbBHJ1viVk/D7rkBYWlqxGCpSvUb1vD8rFArJja9lq1Y8SG+pZ48eAvPCvJB0ePiPE+oY1WEhSHK81nvDa+oUFoKISCZat5HXSls2tohe4e7rgZ2/70S3bt1YDBWQ+gqUVi05US+L9zp1EpgX5oWk452277AIJEmenp6ws7djIYiIZMDOTl6f12xsERVi4Ew3/LJ2LdyHD2cxyij/ChQpam7ZnAepjNq0bi0wL8wLSYOtbXsWgSSpn1d/rF6zBjq6vPgIEZHUDfUZAXMLc9mMl40toiL0neyEM0nn4O/vD21tbRZEJR840tpz2sTEFM7erjwwKmBhbi6sX7dOYF7UPi/cOF7irG2sWQSSrLHLJ8DPbykLQUQkAx07dpLRz81EVKxVJ9di165d3EdIDTVp0phFULGJEycKzAvzQpXHxsaGRSBJ2xD+G4YOG8pCEBFJXMdOHWUzVja2iEpgwmov7N23F4MHD2Yx1IiZmRmLUA569eolMC/MC1UOd18PQUeHp3qRtC3y9ZXdpeSJiKqabl27ymasbGwRlZDjNBece34ZmzZtQoP6DVgQNWBUh1cPKy/WVlbC5s2bBeaFeaGK16hRIxaBJM3Z2xWbt/wG/dr6LAYRkUR5+I+TzS8h2NgiKqX5gb44cvQPDBs2DAqFggWRsfr167MI5WzIkCEC88K8UMUyMTFhEUjyxi6fgF/WroWGBqcjRERS1fOjnrIYJ/8lIXoLA2e64WzyBfz+eyBat27DghQjfzNDaj+81qtblweoArRp3VrYuHGjwLwwL1QxGjZsyCKQLCw9tByz5sxmIYiIJKpX796yGCcbW0RlMHXjDGRYiPDz8+PpVjJkbFw1JurZWVmSGIeTk6MQEXFFYF6YF+alfPFURJKTw/eC4DbIjYUgIpIge7sOMK5rLPlxsrFFpAJrQjbg+MkTmD59OgwMDFiQfKR8+plRHaMqcQyep6VJajyenp4C88K8MC/lh6ciktz4L1uGrt26sRBERBLT29MJLi4ukh8nG1tEKuI4zQWBN/Yj5PRpTJk6FXWMuNGy1Onq6rIIlcTaykpYvny5wLwwL6R6dYyNWQSS3c9QmzZv4pUSiYgkaNCgQZIfIxtbRCrm7O2KPbcOIuTMacxfsAAWFhZVviaampqSHFetWrX4hq38vAh7bh0UmBfmhVRHj01IkiHX2YPx+65ANG1qxmIQEUmI13pvyf/igY0tonLiOM0Fm/7aBkVrbWzdtg29evXiVeEkRKFQoJ9XfxZCOnkRNv21TVC01haYF8nmRWAl5MHA0JBFIFly9/VA4O7dstjPhYioKnEbLO1VW2xsEVWA2QELcFf7IcLPncOcuXOr3JXhqlWrJrkxaWtr840p3bwId7UfCswL80JvR19fn0Ug2Rq7fAL27N0LQyM2aImIpGLIkCHQ0dWR7PjY2CKqQG7zhmHLxR3IsBBxJjQUM2bMgK2tbZVZmVKzVk2+Cag0eRG2XNwhZFiIAvNCVHKO01y4uo5kzfOXadh/4ACbW0REEuE6ezCGDBki2fFV4yEiqhzuvh4v/9AEOL/+Ak6dOoWQU6cQFhaG6OhoWb82hUIBc3MLtGzVEm3btoVxnTp4r3NnLFu2DOvXrePBp7fJi/Dw6F2kpqbi0uXLIvNCVDwdHR2kpqayECRbuc2tfn37IjEhkQUhIqpkY8eOxeqfViMnJ0dyY2Nji0gCXGcPzvtz9Xa6CNsejvDwcERciUBExBVERERIcoKiUCjQqFEjmJmZoXnz5rC2toa1jQ0sLS3Rz6s/romRuHYxEgCw7OgqvGfQgQebyqztO+8UWI0SFh4uqkFehELyIvJoE1FVltvccu7fH4/iHrEgRESVyMN/HJz6OyHw90DJjY2NLSIJGuoz4r+/1AdM6zfFL56rcOvWLdy9cwe3b9/GgwcP8OjRI9y/fx8ZGRnlNhE3NjKEcb0GaNiwIUxMTGDa0BSNGjZEM3NzNG7cGP28+iMOCYh7koA/Q84CITx+VLHs7exeO+3qVEiIKNG8CMwLEVHJef4yDYcOH4azkxPu3o1mQYiIKtG3M2di967dklu1xcYWkUyM9BtT8AvGgMJYG01bWyFg9mYkJCQgISEBSUlJSE5ORlpaGp4/f44XL14AAJRpSmRmZQIAqlevjurVqwMAampro5aODnRq1YKOjg709PVhZGQEIyOjvJVkGRBxBw9wJ/EBkAjgCo8HSVsXB4ci9xi6dPmyWE55EZgXIiLVG7t8Ag4dOQKXAS74OyKCBSEiqsTP48FDBuPXjb9KalxsbBGpgfynMhJR8V49lfFtuA8fjjNJ51hMIqIK4u7rgYOHDmK4uzuOHT3GghARVZJvvL2xdctWZGZmSmZMvCoiERERERFJnuvswQjYvh1Dhw1lMYiIKom7rwe8pk6R1JjY2CIiIiIiIlno59UfkZr3sNB3ETQ0OJUhIqoMEydOhKWlpWTGw38NiIiIiIhIVvbcOojde3ZDv7Y+i0FEVMEcp7nAf5m/ZMbDxhYREREREcmOzx4/nAkNhW17WxaD1J6uji6LQJIy7/dFGDFqpCTGwsYWERERERHJ0ki/MTh85Ag8vvRgMUittWjZgkUgyfHx8UHLli0rfRxsbBERERERkWw5TnNBRPZNbAvYBkMjQxaE1I6Ghgbc3d1ZCJLk5+/6DeuhqalZuRnhoSAiIiIiIrlbdnQVzoSG4sMeHyIHIgtCasG4rjG2bN2Ceb8vYjFIkias9sKKH3+s1DGwsUVERERERGrB3dcDz5tk4ocffoCOrg4LQrI2aPBghJ87h2VHV7EYJGkbwn/D15O+rrTnZ2OLiIiIiIjUSsCVQIRy9RbJVKvWrXHk6B+4U+MB3OYNY0FIFmbNmom+/fpWynOzsUVERERERGrHw38cnjfJxLq167j3FsmCcV1j+P+wDCEhf2J2wAIWhGSlt6cTflm7Fl27davw52Zji4iIiIiI1Nba0F9x/sIFjBg1EhoanP6Q9Ojo6sDTazIuXrqEgCuB6O3pxKKQLDl7u2JbwDbYtret0OflJzsREREREak1t3nDcE2MxJ+n/kRnh84sCEmCpqYmPL70wMVLl3Am6RwGznRjUUj2nL1dsXffvgptbrGxRUREREREVYLXem/kWFfDb1u3wNLSkgWhSqGpqQn34cNx6cplRGTfxFCfESwKqZWBM91w4OBBfNjjwwp5Pja2iIiIiIioSlkRtBqhYWfh/8MymDY0ZUGoQmhqamLM2DGIuPo3bmjcxki/MSwKqS1nb1cEbN+OQYMHl/tzsbFFRCRj1apVYxGImBciegv9vPoj4EogLl66BJ+FC2Fc15hFoXJhaGSIadOn41ZUJC5lXIO7rweLQlXmc/ZOjQdY4PNdue5xyMYWEZGM1axZk0UgYl6IqAwcp7lgb9QhXImIwNLvl6Jxk8YsCqmEpaUl/H9YhqvXruFk/Bm4zRvGolCVtP/2Eew/sL/cfoHAxhYRERER/T97dx4fVXnvcfw7c2ZJJiuQhNUAgggoriAo7q1VZJW6UNqrba3aVnsrCnWt9Vqroqi1vdperK22FkUQCdEi1aq4IogCEVkkLJEtG2SdJLOd+0cMgrJkmcycM/N5v159WSAM5zznfE/O88uzAElv8h1XaN7aAn2yapVm/+VJnXLqKYrIpGHQtg6206mx48bqpYKFWr7iQ81ds0CT77jC9ueVkpLCxf2Sy+2mEdrhty/O1PsffKAxY8ZE/dlKYQsAAAAAvjRuxiX627Jn5T05Q68uXqyx48Z26hQaJIYePXvo1ttu02fr12lPjzo9WPioxtw8KWHOb+Ktlyo9I50LLSmNEeDtduX9V6uqt1+PP/54VO8nntAAAAAAcBC/fXGm9vSoU9HaT3XLrbeoR88eNAr2cbvdmjBxgp6f+/y+6YaJvH5W3/y+XHRJvfv0oRE6aM4n8/TRypWa/N3JUfk8ClsAAAAAcBg/efhnertimT5bt04vFSzUZZdfxuiVJDbq9NP1+z88puItm1WeW63HXvuTxs24JOHP+9zzzk36a5+bl8taaVHyowev1a4ulVpUuEhDhxzboc+isAUAAAAArTB2+iQ9WPiotmeWaf2GDfrj4/+r0WeOZqpiEjh+2DDddfdvVPRpkRzHeTR3zQJdcfcPkqoNfnLNNXIn+fpSEyZOJAxRdn/Bw3p/2TLN/suT6t+/X7s+gycwAAAAALTRZXdN1ZxP5iky2KWitZ/qoVkP6Zxzz036jn8iGXX66frd/fep6NMiZYzsqte2v6Vrf39D0rbHz//4S818cGZSnntEptIz0nXjL39JMDrBmJsn6W/LntVHH3+sPz7+v20ewUVhCwAAAAA64CcP/0wL1r+swEBTGzd9rv+bPVtjx41VekY6OyvaSHpGusaMGaPf/+ExfV68SY7jPHq5eElSF7O+bt7aAv39H39Xbl5uUp13r5499cILL3AvdLJxMy7RnE/mKWt0D817cb7OOffcVv09F00HAAAAANGxb/2dHtLnmzZpxfLlevPNN7V06VKt+mSVIpEIjWQhp5x6is47/3x96/zzNXLUKI2bcYnmrlmguWsW0DiH8KelT2n9hg1644039Nabb2rDhg2qqamR39+QEOdnRiLypniVkZGpvn3zdeZZZ2n8+PGafMcVXPwYemTxH6WBUtH/FunpZ57RP599Vrt37T7o11LYAgAAAIBOsH9H2HtyhooXbNY7b7+tN998Sx9+8J7Wb/icQleMDRo0SKNOH6XzzjtP5553nqb+9iq9v3eF3n9xhfQi7dNaByyW31cylKoMpSbUOQZk6nNt0+fLtulvy57losdJyyi59evX6f33P9C8efNVULBQeyr37PsaClsAAAAAEAP7RnM5pazRPVTynze0YsUKrVixQss//FArVqxQdVU1DRUlbrdbJ59yskaMGKGRI0fq9DPO0JX3X91crHj3ac1+92kaCbCJMTdP2vf83Ly5WB+t/FhLXl2i//zndQpbAAAAABAPl9019atf9JWG9j1JT/ziMRWtWaO1a9fq008/VVFRkUq2ldBYR+B2uzXshGE68cSTNGzY8Ro+fISOO/44jZtxiT5u/FQfL/1Uf1r6FA0FJIB9RS41j4alsAUAAAAAFvHzP+6361oPqXeP/nr/ng+0du1aFRcXq7i4WJ9v3KjiTcXaVrJNdbV1SdU+brdbxww8WgMHHauhQ4/T0KFDNHjwYA0YOFDjZlyi9SrW+rXFmre2gJsJSBIUtgAAAADAwg4Y2SVJuVJmbo6GnZ6jv/1qtrZt26bt27dr546d2rlzh0pKSrRr1y598cUXqtpbpWAwaJtzkirrGgAAIABJREFUdTqd6tmrp3r37q0+ffqob9++6tuvn47u31/9+/fXUfn5GnPTBJWrWkvL39fSpe9LS7lHgGRGYQsAAAAAbOpHD177zd/sIXl7ZGjgyUMlSXPvflZlZWWqrKxURUWFysvLVVtTq5qaGtXV1aq6ulrV1dWqq6tXbW2NAoGgGhr8CgaDamhoUENDg5oam1pdIHO73fKl+ZSamqrUlBSlpWfI50tVZmamMjMzlZWVrezsLHXt2k15eXnKzc1RXl6euvfooW7dumns9OZpRrtUqV01lVq25mNpDdcawMFR2AIAAACABHbF3T84/Bekfvk/SV5lyCspQ12jfhz1CqpeldqlSqlGzf/byvUB0DFOmgAAAAAAAAB2RGELAAAAAAAAtkRhCwAAAAAAALZEYQsAAAAAAAC2RGELAAAAAAAAtkRhCwAAAAAAALZEYQsAAAAAAAC2RGELAAAAAAAAtuSiCQDAvj6vCej+O+dJkkJm8+8FIqY8Tse+/76xaAENBXyVF5O8AAAAJA4KWwBg8456YE/TYb9mhz9k2eOf88BCeQyH3A6HJk6fwAUFeTl8Xsz98uLgigIAAFDYAgAVzFqkhrCp2mBYgYjUGI4oEDblD5sKhkzVRSKa/u9RNFSUBU3ppZK6fb+ecv2z8jod8hgOZboNuSW5XQ75jObfm/LaqTSaNfJikhdL5MUkLwAAABS2ACRxJ/GaG+eoNhjRs5traBALCJuS/8sCSVUgctBrhrjmxSQv5AUAAMBqKGwBSFoH6wwCIC8AAACwD3ZFBAAAAAAAgC1R2AIAAAAAAIAtMRURAIA2WlPu1zXT5yjTbSjb41RXr6F0l1PZHie7OwIHz4t5iLywuyMAAOgQClsAou6VRwpVG4yosimsPU1hVQUiqmgM6cVH76NxYHuGYUhqXnOqKhBRSf2Bf37Njc0FrxyvU5keQ91TDaW5nBozbfyh8mKSFyRxXsxD5IWCFwAAaBUKWwA65JVHClXRGFZFU0hVgYh2N4T0j+Jqhc1Dd3LC4TANB9tquX8Nhw56nx+sA284pBtufk5jeqeb5AXkpVV5Mbt4mkd49Ux1KctjaOxNFLsAAMA3UdgC0GoHK2I9vam6VX/XcBzYyQHsqmUEyqGKUS1+ODDLJC8gL63Ly/7CplTaEFZpw4H3f0uxq0eqS108TopdAABAEoUtAIcx/6EClTaEtbshpL2BcKs75YfqqLR0cuisw84ONQLliv4ZJnkBWpeX9mgpdq2vDuz7zBtufs7snuJSj1RDXbyGLp0xkUIXAABJhsIWAEkHjsba6Q+rojGkuVtqo/b5jEBBojAMQ3P/8IBJXoDW5UXqeFHrYPYf2bVmb/PvXXPjHLOb21Cuz1DPVJe6eA3W6wIAIMFR2AKSVEsha6c/qB1HWOcnWh2Qlk4OnXXYzaYtW03yArTjXo7iiK3WaFmzq7g+uO/fvXnGXDPH61Qvn1t5qRS6AABINBS2gCQR60LW1zECBXYS60IWeUGi6swRW60RNqWS+qBK6qWP9zR9o9CVk8I6XQAA2B2FLSCBzXlgoXY1hLSlLhjzjvnBOhctnRw667CilRuKTfICRPlejvGIrdZk62CFrl4+Q33T3azRBQCADVHYAhJIwaxF2u4P6YvaoHY1hvRSSZ1ljo0RKLCa9cVbTPICdPK9HOcRW0fyVaErqGXljbrmxjlmj1SX8tNcyktxaeL0CRS6AACwOApbgM3NeWChttUFtbkuqGc311j2OBmBAitYuaHYJC9ADO9li43YOpLmNboC+3ZevOHm58z+6W719rk15RZGcwEAYEUUtgCbeeWRQu30B1VSH1JJXdBSo0wOhxEoiIdNW7aa5AWI471s8RFbR9Ky66LUPJorP82t/DQWoQcAwEoobAE20DLFcHNt/Nf+aS9GoCBWWqYYkhfAAveyzUZsHU7zaK4mrdnbJJ/h0K0z5poDstzq5XOzAD0AAHFEYQuwqP2LWc9tqbF9h4ARKOhM+xezyAtgoXvZ5iO2DsUfNlVcH1RxfVCGQ7p1xlzzqAy3+qVT5AIAINYobAEWkmjFrP0xAgXRlmjFLPKCRJRII7YOl9evF7kYyQUAQOxQ2ALirGXNrOLqxOuc748RKIiGljWzyAtgk3s5QUdsHcrXi1y/vu0Fc2CGR1fdPokCFwAAnYTCFhAncx5YqOLaoF7YUiN/ErzxMwIFHXFJfrp5wtKPyAtgt3s5CUZsHS7H66ubd1i86hf/NAdneXRMlkeXzmB3RQAAoonCFhBD8x8q0La6oNZXB2yzO1u0MAIFbXVF/wyTvJAX2PxeTrIRW4fiD5v6eE+TPt7TpBtufs7sn+7WwAyPJk6fQJELAIAOorAFxMAz9y3Uur1Nmr+1Nmlf7hmBgtYa1yfdJC/kBQlyLyfxiK1DKW0Iq7QhrBUVjfr1bS+YQ7I8mnorUxUBAGgvCltAJymYtUibapunILy8vS7p24MRKDicHxydaZIX8oIEvJcZsXVI+09VvOHm58whWV52VQQAoB0obAFR9vzMAq2takroha3b+wIPfN13+2aY5IW8IIHv5XBY/toaRmwdQfMoLr8Mh/TbO+aZQ7JZiwsAgNaisAVEyZP3LtD66qBe3FZLYxyCv7bGMsdiuDxckDh6e+3nJnkhL+g8nhSfmuqtMfqxatcXFLVaKWxKa/Y2ac3eJt06Y645pIuXHRUBADgCCltAB7zySKG21gW1ak+j/r3TT4McQbDBOlPMXCkpXJAY27Rlq0leyAtiw+Gyzite+dbPFYlE5HQ6uTBtUFwfVHF9cN80xQEZbl00jWmKAAB8412VJgDa7pVHCrW+ukkvbKmRnx9Dt1p91V7LHIs3NY0LEiObtmw1yQt5QfJes1BToypLtii33wAuTDu0TFNctcepx+9ZYLIOFwAAB6KwBbRBy4LwdNDb21GvtM7Dz8sIlM62vniLSV7IC7hmkrT1kw/Vo/8ApiR2QFUgord2+5XtocAFAMAB7z00AXBkrzxSqDV7GrVgWy0d9HYK+P2qKd1pmeNxe1O5KJ1k05atJnkhL4ifSCSitOwuljqmks+KNOISrk007F/gevg3883BWV4KXACApEZhCzgMphxGT3lJsaWOJ7fv0az5EmVMOSQvsAan06msvF4Kh8MyDMMSx7R5xdvcQ1FWFYhoWXmj1lcH9Pg9C8zr75pMcQsAkJzvPjQBcHBP3rtAC0tqtay8kU56FOxcV2SZYwmHw0rPyaODFUVvr/3cJC/kBdYQiUSUnpNnmaKWJDXV1+mLopVcnE7QMoLrhpufM5+5byEPYABA0mHEFvA1z9y3UCsqG9i1LcqKV35gmWMxDEOZ3XK4KFGwbF2xSV7IC6zF6XRa8pp9tvR19T1xBBeok5Q2hPXy9jrdPGOuOSInRVNumcgILgBAUqCwBXypYNYifVTZqJe319EYURYKhrV11XJLHVNO36O5MB2wvniLSV7IC6zLitfs0zde1gU/+5VcboML1IlK6oPa4Q/qt3fMM0/plsL6WwCAhEdhC0lv8aOF+qyqiYWuO1Hx8qUKNTVa5ngMw1BuPtvOt8fmrVtN8kJeYH3dBwy13DE11ddp7Rsv68QLJ3KBOlnYlNbsbdKmmoCevHeBec2drL8FAEhcLJiBpDbngYV6ZXsd6wJ1sk8Wv2Sp4+l61NHy+HxcmDZauaHYJC/kBTZ5wTMc6nnsMEsdk2EY+qhwHhcnhvxhU//e6dfNM+aa8x8q4MENAEhIjNhCUnrlkUJ9XNmol0qYRtXZaivKtOWj9yx1TPnDTmV3rjbYtGWrSV7IC3mxF6fTqV6DjtOuDdbaiGDXhiLtWF+k3oOHcZFiqKQ+qB1bg3r4N/PNodlejZnG9EQAQAK999AESDZzHliohSW1WrO3icboZJFIRMtemqdwOGyp4zr61JF00ltp5YZik7yQF/Jiz/vp6FNHWvLY/vPkH7hAcRA2pWXljXple50YvQUASCS8qSJpLH60UPffOU+LvqhTVSBCg8RA/Z4KrSn8h6WOyTAM9T95FBfnCDZv3WouWLneJC/khbzY9AXP6VT/k0fJMKy3UHvJmuXatnoFFylOShvCmr+1Vo/fs4DiFgAgMd57aAIkg/kPFeiV7XX6eE+TWBoodt6d85QaGhosdUz9h49mvaAjKNq02SQv5IW82J/H51P/4aMteWyv/u9MRSIUzeMlbEpv7fbr1hlzzYJZi3jSAwBsjcIWEt6T9y5QYUmdShvCNEYM7VhfpJWFz1vuuIac9W06U4fx9trPTfJCXshL4hhy1rcteVzlWz/XyoLnuUBxVlwf1Mvb6zTngYUUtwAAtkVhCwnt4d/M1793+tnBLcYCfr8WPnC75Y7Lm5auIWddwHpBh/Dyqg0meSEv5CWxDDnrAnnT0i15bP956jHVVpRxkeKsKhDRoi/qmJoIALAt3laRkF55pFC3zpirZeWNNEY8Oit/eUx7d5RY7riOP39cUk6rCvjrD/vnm7ZsNf/2/mcmeSEv5OXIebEbj8+n488fZ8ljCzU16oW7b1IoyAjReGuZmvjbO+ZR3AIA2A6FLSScglmLtHhHnYrrgzRGHKx4aY4lp1QZhqHhEy7nAn3N+uItJnkhL+QlcRkOafiEyy25iLwk7dpQpDef/jMXyiLW7G3SzTPmmq88UkiBCwBgGxS2kFDmP1Sgl7ezPlC8bHjvDb3+f7MseWyDzrpQPfoP4CLtp2jTZpO8kBfyktjCppTbb4BOuvgyhcPWzPqHL8zW6iUFMhxcLysoqQ9q8Y46sag8AMAuKGwhYcx5YKEKS+pUFWCh43jYtnqFXrr/Nkt2nAzD0Heum8YOf/tZuaHYJC/khbzYhyel/dNCI5GIzpx6tTwej2XPb8kf7tXmVSu40BZR2hDWy9vrNP+hAp4EAADLo7CFhDDngYVasqOeRa/jZMN7b+i5O25QqMmaazQN/+7VysjJ40J9aeWGYpO8kBfyYi8Ol6v9L3tOpzJy8jT8u1db9vwCgYBe+M2N2raa4pZVVAUiWrKjnuIWAMDyKGzB9ihqxdeKl+Zo3t3TLNtJ79I7X+f98KdcqC9R1CIv5MWejA4Utlqc98OfqkvvfMueY1N9nebe/nOKWxbSUtxiWiIAwMoobMHW5j9UQFErTgJ+v1783W1a8sRMSx/nuGl3yeU2uGBqXlOLvJAX8mJPLrc3Cp9haNy0u6ydlUBAc265TitemsNFt4iqQEQvb2fNLQCAdVHYgm0VzFpEUStOtq1eoT9f+12te+tflj7Oc3703+p74ggumJp3PyQv5IW82Fco2BSVz+l74gid86P/tvS5hsNhLXliphb/4X4F/H4uvgVUBSJ6bVe92C0RAGBFLpoAdvTKI4VavIOFr2OttqJM//6/R7XxnSWW3V2rxcCRZ2v0lB9x0SQ9PuNnJnkhL+TF3sKhUNQ+a/SUH2nHZ6u06cO3LX3OKwuf1+aP39ekW+9T78HDuAnirLQhrGXlDTQEAMByGLEFW/q4slGlDWEaIkYCfr9ee/Jxzf7xBK1761+W76Tn9jtGk2+fKacz8R9xvqyu5IW8kJco5sWqQo3RW5fN6XRq8u0zldvvGMuf994dJfrLz7+nxX+4X7UVZTxg4mx9dUAP/2Y+o7YAAJZCYQu28/g9C7RmbxMNEQO1FWV6Z85TemzqBfrwhdlqaLD+T2q79M7X1PufkMfn4wJKOreHzyQv5IW82F84FIjq53l8Pv3g4WctvZh8C8MwtLLweT3+w/F67cnHKXDF2YqKRj1z30KKWwAAy2AqImylYNYiPbelhoboZDvWF2nZi3NsMYXq6530K2c9pYycvKS5VinpGYf8sx8cnWmSF/JCXlqXlxYeX5olj72pvi7qn5mWmaIrZz2lv0+/Wnt3lFj++oWaGvXhC7P10YtP6aSLL9MJ3xnHFMU4CJvSu2V+FcxaZE6cPsFBiwAA4o3CFmzl7dIGsfZ159nw3ht697m/ateGItsde89jh2nKfX9RWmZKUl0zry9dkUjkoNPIyAt5IS+tz0uL1hS/4qW+pjHq1ywjJ08//MM8PX/7T2xzL4fDYa0sfF4rC5/XkHMv1iW3/S4pptJaSVUgoo8qG2kIAIAl8BYA23j8ngUqqQ/SEJ0gFAzrxd/dpnl3T7NlJ33gyLP1Xw/O7tROejQXbo4WlzdFHp/voB26c3v4TPJCXshL6/JiF/49Ozrlc9MyU3TVo89o4Mizbdcm6976l56dcR27J8bB+uoAUxIBAJZAYQu2UDBrkZazE0+nCPj9embaVdr4zhLbHbthGLrw57fo8nse6/Q1gkJN1vvJ9KGmkP3g6EyTvJAX8tK6vHxderdcy15Df/WeTvtsl9vQ5fc8pgt/fosMw7DVvV2yZrme//UvFQqySUasvVtGQREAEH8UtmALn1U1yc+cqk5R+OhvtWtDka3WBpKad3KbOvP/NOKSqZ0+AsOqIwEyuvUgL+SFvHQwL1+X3cu6OwWWbf68c18KnU6NuGSqrvz9M7ZYVH5/Wz75QK/96UEeUjFWFYjo8XsW8A0HABBXFLZgeQWzFmk1u7p1ig3vvaF1b/3LVsdsGIZGXn6trn5irvqeOCIm/2aTv86SbZHb9+hv/N4Pjs40yQt5IS+ty8vBpGWmyOPxWLOIULFXRgyW6u49eJiue3KhRl5+rW1Gb7XsnLht9QpFIhEeWDG0ak+jFj9aSHELABA3FLZgeZ9VNbEAdif5cMFztjregSPP1k/+PE8XXHO9XO7YdbYa62ot2R69jh1KXsgLeelAXg6lW/9jLXkOldvWxyzfLrehi669Xj/58zzbrL0VDoe19O+zWUg+xqoCEW2uZU1HAED8sCsiLG3xo4V6fnMNDdEJAn6/StYst8Wx5p9wms658tqYjTj5us5c16Yjcr42AuXHx2SZ5IW8kJfW5eVweg06zpIbA5Rt3RTTfy9sSrn9BmjKvX/UttUrtPTvsy2dA8MwtGPtSjU0hJWaaq91wuxuXTUjhQEA8UNhC5a2vT7IWkGdpLpsl6WPzzAM9R8+Wmf94Fr1HjwsrsdStXun5drHm5aunoOOIy/khby0My+HbEuHlHNUX0te55rSnQr4/Z2++P/B9D1xhK58eIR2rC/SO8/O1qYP37ZkG4XDYTXW1So1NZsHVwyVNoT1/MwCc8otEx20BgAg1ihswdKKqxna3llS0jMseVwZ3fI06IzzNXjs9erbP90SU0rKSrbLMAxLLRh+1PGnfKNtyAt5IS+tz8uhhE1p8Fnf1pInZlrymm/5ZJmOHX1+3P793oOHacq9f1RtRZmWvTRPRUvmW2qUni+rqzKyM4Q43Ju1ARoBABAXFLZgWYsfWaRniplW1Vmyc/OU2+8YlW/9PO7H4svqqr4nj1Kf4eOUN+hEORzNHdDt25uUmeFSZpYR1w57Tdl2y+2CN+DU0w/49Y8HZprkhbyQl9bl5UjSuuaoS+987d1RYrl7seSzdXEtbEUiEdVUh1XXmKFjLviRBn77KpVtXK3tH72sbZ8si3uRa9iFl8Z0TTl8ZXMdP1wBAMQHhS1YVlljhEWwO1HYlC664RbNueW6mHdCDcNQ3sCh6jXoOOUNu0Bd+w3e1zk/sANlqqo6qJraUFw77DvWrbLc9Rt81rfJC3khL+3My5E4nU4dfcoZWmnFwtbqDyRdH/N/t6WgVV0TlLnfs8bhcKr7sSer+7En65SpEe3Zul5lRa9p58a1Ktv0WUzzMnDk2Trjiqt5YMVJVSCiglmLzInTJzAdEQAQUxS2YFkVTSEaoZP1PXGEJv96ll559Led+lP2zO69lN29j3oOPkmZ+SepW/8hcnlS2tChau6w19WH1CXTobTMlJi1UW1FmWpKrbVmUM9jhykjJ4+8kBfy0s68tMYJ3xmnlYXPW+4+3LWhSLUVZe06p/aIRKSGukZVVpmKRA5fPXc4nOrWf6i69R+qIZJCgUZVblmnmpJV2rV+lapKt3fK/eHypujUiVfqxPFXx/R+xzeVNfK9CAAQexS2YFnl/jCNEAPHjj5f/U8epdVLFmrdu29q54Y1CjU1tukzfFld5UpJUVp2N2X3PEqZeX3k6ZKv9G49ldX76DZ1yg8nFDJVvsdUTV2jcnPdMZlusnnlB5a7Zid862LyQl7ISwfy0hq9Bw+z7HTE9e+8rhGXTO30f6ehIazKyoBCofYNB3V5UvaN5jrmgi/vy0CjqndsVl3lLgX2lqimbLuqdn2hxrpqNdXVtalo7MvqqiFnf0f9zvm+snPzlNeDola8VTTyvQgAEHsUtmBZlUFejmLF4/NpxCVTdfxFV6i8PKBAY4Pqypt/qt5UV33A13rTs778b6YkKTUr54A/N83IQadJRVNTIKIdO5uUlelWdhd3p/5b69553VLXKjU1VSdeOIm8kBfy0oG8tNZpE79nyUXk1737ZqcWtiKRiPZUhlRXH/3RNy5Pyr5RXQe7/x0OyV9V8WWeag6bq6we+XIYLvlSnMrJo6hlBdVNERoBABBzFLZgWQEWDIpDJ9BQr54eVVUZ8qQMkGmaB6yl0hqd3Un/qiAgVVUH1dAQ7rTRKLUVZdry0XuWukZDvz1RHp+PvJAX8tKBvLTWiRdO0lvPPK6m+jpLnVfJmuUq31qs3H4Dov7ZHR2l1dH73zS/LACbplIzuzVXug76d5v/m+ZzKSfXwwPJIuoiFLYAALHnpAlgVX466nHhchvKyfWoTx+vsjLdcrmsvQZsUyCinbsCamiI/oilVf8utNTuboZh6MypV5MX8kJeOpiXVl/flBSNuvzHlryWHy16IeqfWbU3qNLSppgUtY7I4ThkUcvpdCgr063evbwUtaz2jOF7EQAgDihswZJeeaSQRoj3w8HpVHYXt/r0SVV2lltOp3U77JGIqdLSJlXtjd5W4wG/XysWPGup8zzp4ssOumD0Dwdm0ZMgL+SllXlp63UdOel78mV1tdx1LFqyQLUVZVG6JyIq292oquqgxXPmUG5XZ3POusRm3Ti08VlAYQsAEI93BJoAwJE0d9i9Sk+z9uzl6pqgKsoDUfmspf/8W6fufNdW3rT0Do8+AXkhL22XmubTWd+/xnoFhEBA7855qsOfEwqGVbo7IH+jtaeQZWc1F47TMlPk5O0VAADsh1cDWNLYm8bTCFZ7WDidysn1qHt3r2WnW5mmVFcf6nBnfcf6In34wmxLndu5V11/yNEnT2+qdnCHkhfy0rq8tFXYlEZcMlX5J5xmuWu4svB57Vhf1O6/HwqGtbs0oKaAdYtaXo9TfXp7ld3FTUHLBjwG344AAHF496YJYFU+Xo4sKTXVUK9eXnk91n18dKSzXl/TqBfv/ZWlzie33zE6deIU8kJeyEuU8tIeY35xqzwe663n9PLD/6NQO3ZFbSlqWWI9rYNwOKT0NJd69kphyqGNePleBACIAwpbsCx+6mfhB4fTqZ69Uiw91aquPtTmNYQCfr+ev/0nqindaZ0ceDyafMdMOY8wVIG8kBfy0vq8tEduvwE67yfTZBjWKrKUb/1cBQ/eqbY8AiKRiOWLWjldnCwMb0NehtUBAOLxvk0TwKq68RNay8vJ9Vi6s15VHVR9TWOrvra2okz/+NW12rWhyFLncN5Ppim33wDyQl7ISxTz0l6jJk/VoLMutNy12/jOEr06+/FWfW0kIpXutnZRKy/Pq7TMFB4aNpTtoWsBAIg9vvvAsrK83J526qw7LDpgqGJvRA0Nh5+ms231Cj350yss10kfcu7FGnHJVPJCXshLlPPSXmFTGj/t1+p57DBLnXs4HNaHL8zWa08+rkjk8Otl7am07ppaLUWt1FQK9XbV1cu1AwDEHj0hWFYvn5tGsFFnPc1nzZEopilVVgYO2tmrrSjTi7+7Tf+Y/hNL7egmST2PHaaJv7qXvJAX8tIJeekIj8+nKff9RV1651vu+r3/3J/0wl2/VG1F2UH/vL6mUXX1IUveexS1EkN3rh8AIA4obMG6nb8UQywbZK/OulUXyA6FTO2pPLAzt3pJgWb/eILWvfUvyx1vbr9jNOW+v7RpwWTyQl7IS+w61GmZKbpy1lPK7N7LUm1hGIY2ffi2Zv94gla8NOfA6xoMq2KvdXc/zOnipKhlc9kepy6dMZHvRACAmKOwBcsae9N49WYUiq3k5rrldFrznbauPqSGhrBCwbAW/+F+Fc66Sw0NDZY7zi698zX1/ifavL7M05uqHeSFvJCXGHbic/P0vXv/13LFLUlqaGjQkidm6vk7f6GA3y9JKi8PyrTgslotux+yppb95afxPQgAEB8UtmBpR2fwkmQnLrehbtkOy64fVF4e0JtP/1nLF/7TkseX2+8YXTnrKWXk5JEX8kJeOjkvHRU2m3dK/NHvn7HcmlstNn34tv7xq2tVtrvRsutqGYaD3Q8TxAC+BwEA4oTCFiytX7pbPuZX2UpaZopl1w8qL16rD1+YLcOw3nSXnscO048e+3uHOunkhbyQl9jLyMnTfz04WwNHnm3J67hrQ5FWFz5lyWNzOKQe3SlqJYJsj1NTb53ENyAAQFxQ2IKljb1pvAZm8tJruxfcbMOSo1BWvfh7S7bXkHMv1vnTnlDY4e3Q5zy9qdpBXsgLeYk9j8+n8294SKeOn2LJNvvoxafUUF1huePKynTHdG00dJ7BWXzvAQDED4UtWN6QbA+LYtuMy20oK9NaUxIqt3ymXRuKrNVO3hSd86P/1qlT75TDcKm8PKBQMExeyAt5iVFeoqVqb1D+xoiGTPilLpj+hHxZXS3VduFwWNuXF1rrerocyu7C1LVE4DMcGpzlpSEAAHFDYQuWd+mMiToumxcmu8nu4pbLZZ0KS1nRawqHw5Y5ntx+x+ii255Sn9OvUMtwnUjEVHl5sEOfO3dLrYO8kBfyEjsNDWFVVX91HN2PPVljfv2Mhpx7saXacNf6VZa657u0zXn3AAAgAElEQVRkUoFPFCd09WrsTeO5oACAuKGwBXu8NHXxMgrFhqzScTHNiHZuXGuJtYIMw9Cp46foO7f+Vdm9j5bDceBjuCkQUdXeIHkhL+QlRnnpiFAwrPLywDd+PzUrR6dOvVMX3PSYZXZNrK3cbZl73eVysAtigsj2OBmtBQCIOwpbsIWJ0ydoRA4vwXaTlpliiVEoDodT1bt3xP048k84TWN+/XcNmfBLOYxDLxheVR1UQ0P7R3o8u7nGQV7IC3npfHsqg4pEzEM1pHodf7rG/89cjbz8Wrm88c1kOBSyzL3erRvrMSWK03JSGK0FAIg7F00Auxia7dWWuqBKG8I0ho2kp7kOmKYTL4Yrfo+73H7HaNjEn6nX8afL4ZBM88h/p7IyoD59UskLeSEvMchLe9TXNMrfGDnyFzqdGvjtq9T/nO9p9byHVPz+6woEAjFv1+zufazx4ulyKDWVBeMTwYA0t665czJFLQBA3DFiC7YxZtp4nZnnY4qV3Trq6dZ4zKTndI9LB/2s6+7VhXf8Xb2OP11S6zrpkhQKmR2aYvXXz6sd5IW8kJfOEYlEVFnVuoNzOJxyOJxyub069fu/1vj7XtSp46fEfARXz8EnWePeSuNnqonAZzh0evdUGgIAYAm8XcBWptwyUQ//Zr6WlTfSGHZ5yLgN+VKcrRvZ0ElMM6Jeg46L2S5vA0eerf5nTVH3Y0/u0OdU1wSVmWXI6WxfsePFbbWOUbkpJnkhL+QluvZUhg49BfFQvlz0PjUrR4PH/0LHXHSddn30kj7513zVlO7s1OP1pqWrz2njLXGPW6V4i445s3uqJk6fwI9OAACW4LjwxnG0Amzn1hlzVVwfpCFsor6mURV7I60efdEZqnZs1uLfXtlpu5Rldu+lY047W/3O+b5SMrt+Y5HrdncC01zKye3YejQD0twmeSEv5CU6QsGwtu9oit4HmqZKN67Slnee19ZVyxVqin4h+qzr7lXf4d+K+73tS3Eqrwfr/9ndKV29uu3eyyhqAQAsgxFbsKWzevpUWVKrqkCExrCB1PQUmXv8cT2G7N5Ha/h3r9aHL8yO2mdmdMtTn2HD1e+M76pb/6H7OqktIzOiod4fUnbQkMttkBfyQl5ikJcjqaqKcrHP4VD3Y09W92NP1vBAo3aseU/bPliknRvWdLjIZRiGzrzyeh1lgaKWJKX5yLfd5ae5dVI3ipMAAGthxBZsa/5DBSosqZM/bNIYNrBrZ6OaLFBY+fy1v+mjF59q10gUlzdFuf2OUf6Jpyt36DnK7n10TI45GqNQruifYZIX8kJeOibqo7UOwwyHtGvdCu1a/bp2rFvV5umKA0eercFjrotZu7dGn97eTi06onNle5wa1yedKYgAAMuhsAVbm/PAQi36ok701a2vam/QEru9yTTVUFOpz17+k7YXfaTayrKDfpk3LV2ZuT2V0+8YZeb1UdeBI9W13+CoTZlq04PaIR11VEqH1w66JD/dJC/khby0X0V5QHX1obhciobqCpV9vloVG95X1a4vtGf7ln1/Zrg8SuvSTTn9jlH+0GEafNa3FTa6WOMe+pLL5Yj5zpWIHp/h0Pj8dF06YyJFLQCA5VDYgu09c99CLd5BZ93qGhrCKi1tssbBmKZcbqf69ElVbUWZGutq5a/e0/zyntVVIU9vS4yW2V92llvZXdwd/pxxfdJN8kJeyEvbRSIRffFFY1zXPpMkp9Oxb+H65iKeTwer4cWzCHcwsVj/DJ3DZzg0pk+6ptxCUQsAYE2ssQXbu+r2SXry3gX6zy4/nXUL83ot9D6835o+GTl5ysjJkzTAmkWFL9XVh6LSUX95e53jO718JnkhL+SlbWqqw3Evakk6YDfGNJ9LTjtsMmiaSktnCqId+QyHLuydRlELAGBp7LmMhHDNnZP1rZ4+Gbx2Wfdh43TK5bLHBUpNNSx3rKGQqYaG6Cxa/e+dfgd5IS/kpW2sNPqphW2KRQ6H3Pwo1XZaRmpNvXUS3y0AANZ+d6YJkCiuuXOyxvROl4/eumWleK3TCYscYeZUepr1emH1ddHrqBcU1zrIC3khL63T0BBWKGStIY4ul0OpqfYobDkcYtF4m8n2ODU+n+mHAAB7oLCFhHLV7ZM0pk+6sj3c2lbu4NiBN8V695A/iiNQ6uvCevy9Mgd5IS/kpXV5sdq1sFLh80gMCui20j3V0Lg+LBQPALAPejNIOFNumahxfdLVPZWfDluNy+WwxBo1rZGaasjptNY7fSQSvelVjU3N6wU9vLTUQV7IC3lpXV6sxE5rVhlO6iN2MSDNrTG90zVx+gQuGgDANihsISFNnD5BY3qna3AWOzBZidWm8hyJz4LFnmhMr/r6tKp739jtIC/khby0Li9W4HDINtMQYR+ndPXqgYeucIy9aTxFLQCArVDYQsIae9N4/fb+y3VuDxbJRvukeiOWO6bGpo531Jsav3led7++y/Hq6ioHeQF5OXJe4t/WvL4henyGQ9/p5dNt917G0x8AYEu8GSHhXX/XZE04inWE0HbeVLfljikUMhUKdqyzfrjpWU8vq3CQF5CX1uUlXjxeRmshOrqnGhqfn65r7pxMUQsAYFv0XJAUpt46SZPyM5hqha8efq14+rnchlwua73rOxxSU0Ow3X8/EomoKXD4ESiPvl3mIC8gL63LSzzOyYqL9cN+Tunq1ZjeLBIPALA/F02AZDH2pvGSpCfvXaB3SxvkD5s0Co4oxWuoLhSyzPGYptTQ5FRaO/9+U1Pr7vu7X9/lkKRrz8gxyQvIi7WwvhY6Itvj1Jl5Pl11+yQKWgCAhMCP/JB0rrlzsib3zdCANDeNgSOy2ggUSQoG2z+CpK3rBc1+v8JBXkBerMPj5tUN7XdCF68m5WdQ1AIAJNY7KE2AZDRx+gRJjN7CkXlTnFK1tY6pI1OjAu1YTPveN3YzegvkxSIYrYX2YJQWACCR8WM/JLVr7pysy/tn6oQuXnaCw8E76l7r3RgOR/sXtA6E2l+Umv1+hYO8gLzE91zcRth290U4QjE8XgyHNCo3hVFaAICExogtJL2Wtbeen1mgd8v8Km0I0yjYx+l0yuVyKGShDq5pSpFgUGrjyI1IJNLh82hZe+vmc7qb5AXkJfbnYsXdJ2FNA9LcGp6XwuLwAICER2EL+NKUWyZKkh6/Z4FW7WlUVSBCo0CSZDgdCslaHdxguO3TkaK5EPbDS0sdkvTDUTkmeQF5iR0nwyVxBN1TDZ3Yxatr7pzMzQIASApMRQS+5vq7JmtSfoZG5abIRwcCktwWXKy5PSNJIsFg1I/j6WUVDvIC8hIbLpdDTievbjg4n+HQuT18GtsnnaIWACCpMGILOIiW6YkFsxZpzd4mra1qEutlJ/GDMkF2emsetRL9kVUt0xPvPL+HSV5AXjqP4aRWgYPcFw5pRE6KBmd5Nfam8dwkAIDke/+kCYBDa9k9cf5DBVq9p0mf1wTosCchb4pTqjKbV262iPYsxtzZ6wW17J54y3ndTfJCXshL9FlxNBzix3BIJ3bxami2VxOnT6CgBQBIWhS2gFa4dEbz+lvzHyrQuqoAI1KSkcNafYZ2Ta0Kx2b0ycw3S/cVuMgLeSEvUXxpc1G7AAUtAAC+8Y5EEwCtR4ErObkt+qQMBcNyuVu/KHYgxiNQKHCRF/IS5bY1wpLYFTFZ+QyHBmd5KGgBAPA1FLaAdti/wPV5dUDrqwPy02NPWFbchczhkIIhydWGPm44Tvfo/gUu8kJeyEsH2tZNUSsZ+QyHTujq1cAMDwUtAAAOgsIW0AEtBa5XHinU+uomra8OqCoQoWESraNuwV3ITDM2fyeaWgpcd3+7p0leyAt5AQ6ve6qhIVleHZ3u0pibKGgBAHAoFLaAKGjZRVGSnrx3gVbvbVJpQ5iGSajOukORiIV6um3sdUci1ikgteyiKEnXnpFjkhfyQl5ax81bW8IzHFJvn1sndPHqqtsnUcwCAKAVeEUCouyaOydLkp6fWaDPa1hXCJ3E4VAkGJRSW7dmUMSiN+G/ttU6XG5D3+2bYZIXkBckq5b1s47J8ujSGRMpaAEA0AYUtoBOMuWWr6Ypbq0Lal01o1IQ1X66gmEjYc7nxW21Dkn64cAsk7yAvCBZ5Ke5NTjLrV4+t8beNJ6CFgAA7UBhC+hk+09TnPPAQq2rDqikLsji2egQ02zbDmnBUHPn3urrBj29qXpfx+6S/HSTvIC8INH4DIcGZno0JJvRWQAARAOFLSCGpt46SVLzKK6d/qDWVwe1wx9k6pUtOsbWukjtGYFit076SyV1+0ZxkRfyQl5gZ4ZD6udza0CWW33S3BozjdFZAABEC4UtIA72H8VVMGuRNtUGtKUuyNQrS3fUrXc8bRmBYmcto7gqygO6cWSOSV7IC3mBXbTsbNjH59LE6exsCABAZ6CwBcTZxOkT9v3/52cWaEttQJvrgqoKRGgcHFKyrhl07xu793UMbz6nu0leQF5gNd1TDfVPd6tvupuphgAAxACFLcBCWhaclyhydTbDae++BtOkpIeXllLkIi/kBZZAMQsAgPihsAVYFEUuoPUocgHWFUnQGFLMAgDAGihsATawf5Fr/kMF2lYX1E5/mIW0YXvBkOSK8rJH+xe5bjmvu0leQF4QDS0LwB+V4WbNLAAALITCFmAzl874qsj1yiOF2loX1O6GkErqgvLTawcOMPPNr4pcd3+7p0leALSFz3AoP92t/DSXevncGnsTuxkCAGA1FLYAG9t/d8XFjxZqb1NY2+qC2tEQUkVjmNEpwH7ufn3Xvg7pPRf0NMkLgK8zHFJvn1u9fIZ6+9yacgtTDAEAsDoKW0CCGDNt/AG/Lpi1SGWNIZXUh7S7IcRaQ8B+7npt1wGd1TvP72GSFyA5ZXucyk9zq0eqwagsAABsiMIWkKAmTp9wwK/nP1Sg0oYw07CAg7j3jd0HdGRvOa+7SV6AxJTtcapHqks9Ul2slQUAQAKgsAUkif3X5pIodAGHs//aXBKFLsDOKGQBAJDYKGwBSepwha69gTBrDsF637Bc8euLHq7QRV5AXqzDcEg5KYa6p7jUI9VQXgqFLAAAEv69hyYAIH2z0PXKI4WqaAyroimknf6wKhpDSTtKJRJhvSUc6KGlZY78/NR9v/7hwCyTvJAXxJ7PcKhniku5PkM5XpdyUgzWyAIAIMlQ2AJwUPvvuNiiZVTXnqawShtDqg1E2tR5j4Tp8CIxPb2p+hsd6Sv6Z5jkBYgen+FQTopLOV6nclIMdfEaunQGuxYCAJDsKGwBaLWvj+qSOl7sAhLV3C21jq93yjta7AKSBUUsAADQWhS2AHTIoYpde5vCqglGVO4PqzIYVm2Q0SdxZ5qSg35hZzMcUoa7ebHqbI9TmW5nyzo/ekZyHCQvJnkhL+TlG3mh8QEAQKtQ2AIQdQcrdr36yCKtzUnR1oqA9jaGVOoPq64+pFCI0SqxEAkG6aRHgcMhedxOud3OfR3ybm5DWV6nMj2GunkNZXmcGjNtfFvy4jhIXkzyQl6SKC80NgAAaDcKWwBi4qKbJhz09wtmLdKm2sC+DvyepoDq/ZK/kRErndHJNKmLtLlDnuqNqKvXo+xst3qnuvZNi0pzta2A1ca8OA6RF5O8kBcb54UCFgAAiDoKWwDiauL0CYf8s2fuW6iSvQGV+UP7Rq0EmsJqbIookuQdTodDbR69Qyf98J1xb6pbfTxuZWe61CPVpXSXU9ke52Hv0TjkxXGYvJjkhbxYIC8UrwAAQExR2AJgWVfdPumQf/b8zALt8AdV7g9r+54mSVKpP6yGhrCCwcTvyLen052MI1BcLoc8Loc8XkM+b1AZRoqys93qnuJSj9TmUSRZHuOgu4DaMC+Ow+TFJC/kJYp5oXgFAACs8w5DEwCwoym3TDzsn+/brbE2tG8ES224Uf4mtwJNYTmN5jVfkmlDukTrpLtcDhlOx74RJG5XRPlp6fL4jAN2Uks1nAlRuOpgXhxHyItJXsjLfnmhcAUAAOzznkMTAEhEB1vA/mAKZi1SfSii+lBEgYhUEwgrZEqBiCl/yFRTJKLagCMhRm/Y5Rx8hkMewyGv4ZDX6ZTP5ZDH6VB9mltpfRzy+ZzK8bosN03Q5nlxtDIvJnmxdV4oWAEAgIRDYQtAUmtLYaRg1iJVBSKqaArJ74+oXqbq/WHtbQxJkmrDjQqGnAqGDYVCpiLhiMIRKRwxFQ6bce8kx/rfdzodcrscMpyS0/hqlEiGkaIuKc3ffvrleJTjdcntlNJcTrmcjqQfXWXxvDjakBeTvMQkLxSrAABAUnNceOM4WgEAYuCVRwrVEI6oPmiqLhRRYziiQNhUqMlUvZp70fX+8L6vbykA7K823ChJCoac6ur1qH9eygF/7j/EAtmle5q0YVfjvg6009n8+4bT8eV/v/paj9eQJLmN5mPp6vUc8Fktnew0n6E0OeTyOpTpMeRxShluQ6mGg5FUiEZezCTKC8UpAACAdqKwBQAAAAAAAFty0gQAAAAAAACwIwpbAAAAAAAAsCUKWwAAAAAAALAlClsAAAAAAACwJQpbAAAAAAAAsCUKWwAAAAAAALAlClsAAAAAAACwJQpbAAAAAAAAsCUKWwAAAAAAALAlClsAAAAAAACwJQpbAAAAAAAAsCUKWwAAAAAAAAAAAAAAAAAAAAAAAAAAAAAAAAAAAAAAAAAAAAAAAAAAAAAAAAAAAAAAAAAAAAAAAAAAAAAAAAAAAAAAAAAAAAAAAAAAAAAAAAAAAAAAAAAAAAAAAAAAAAAAAAAAAAAAAAAAAAAAAAAAAAAAAAAAAAAAAAAAAAAAAAAAAAAAAAAAAAAAAAAAAAAAAAAAAAAAAAAAAAAAAAAAAAAAAAAAAAAAAAAAAAAAAAAAAAAAAAAAAAAAAAAAAAAAAAAAAAAAAAAAAAAAAAAAAAAAAAAAAAAAAAAAAAAAAAAAAAAAAAAAAAAAAAAAAAAAAAAAAAAAAAAAAAAAAAAAAAAAAAAAAAAAAAAAAAAAAAAAAAAAAAAAAAAAAAAAAAAAAAAAAAAAAAAAAAAAAAAAAAAAAAAAAAAAAAAAAAAAAAAAAAAAAAAAAAAAAAAAAAAAAAAAAAAAAAAAAAAAAAAAAAAAAAAAAAAAAAAAAAAAAAAAAAAAAAAAAAAAAAAAAAAAAAAAAAAAAAAAAAAAAAAAAAAAAAAAAAAAAAAAAAAAAAAAAAAAAAAAAAAAAAAAAAAAAAAAAAAAAAAAAAAAAAAAAAAAAAAAAAAAAAAAAAAAAAAAAAAAAAAgB02Q+ILBoFleXq7t27dr79692rt3ryorKlVRWaGqqirt3bNHDf4G1dTWqLq6RoGmJjU2Naq6ulrhcFiSVFdbd8R/Jz0jXYZhKBwOyzAMeTwepaamSpIyM7Pk86UqNdWn9PQ0+Xw+paamKi0tTb60NKWlpSk7K0tdunRRt27dlJ3dRd1yuqlr165KS0vjPgUAAAAAAN9AwSABBINBs6SkRJs2bVJxcbG2bd2qHTt2aPv27dq5c6fKSssUiURse35ut1vZXbKV262rcrv3VJ8+fZSXl6ujjjpK3Xv0UPfu3b/8vTy5XC7uaQAAAAAAkgRFABsJBoPmxo0bVVRUpE+LivTZZ5+peNMmbd++Q8FgMOnbx+l0qs9RfdS//9Hq2zdfAwYOVP9+/dSvX3/1699P2dnZ3O8AAAAAACQQOvoWFQqFzM/WrtXy5cu1cuXHWrfuMxWtKaKA1QFdu3XVsGEn6NhjB2noccdpyJAhGjJkCAUvAAAAAABsig69RdTX15vLli3TihUr9N6772nlyo9ata4VOq53n94aMmSIThs5UieffLJOOukkde/enWwAAAAAAGBxdN7jaNUnq8zX//O6/vP661r+4XJGY1lIft98nXTSSRox4jSdedaZOvHEE1m/CwAAAAAAi6GjHkM1NTXmkiVL9J/XX9err76qPZV7aBQbiMhUZkaGRo0apTNGj9bo0aM1YsQICl0AAAAAAMQZHfNOVlVVZS7+12ItfOklvf7664zKShBZ2Vn61re+pfPOP18XXHCBevXqRZYAAAAAAIgxOuOdoLGx0VxUsEgvzp9PMStJHD9smCZMnKDJkydr0KBB5AoAAAAAgBigAx5Fa1avNv/+979r7ty5qq6qpkGS1NAhx2r8xEma8r3vacCAAWQMAAAAAIBOQqe7g2pqaswX5s7VX//6N31aVESD4ACnjTxNU7//fV166aXKzMwkbwAAAAAARBEd7XYqLi42//TEE5ozZ47qautoEBxWeka6Lrvscl1z7TU6/vjjyR2ApFJaWmpu3rxZoQSfmu9wOHTUUUepb79+POfjZP26dWZ5eXnCn6c3JUWDBg1SdnY29xqQhEKhkPlp0aeqra3heQeIwlabLV++3Hz0kUf0ysuv0Bhol3POPVc3TrtR3/rWt8gfgIS2c+dOc9ovb9TixYuT6rxPG3mafv/YY/wgI4aWLFli/mr6dG3ZsjVpztntdusH//Vfuu/++5SWlsa9BiSJZ555xrznf/5H5WXlSXPOPO9wJNwUrfTO22+bDz74kN586005aTZEwSmnnqI77rhDF3znO9xQABJOZWWlec7ZZ6tkW0lSnn96RrreeOMNDR4yhGd8JyssLDT/6/s/UCQSScrzH33maC0qLJTb7eZeAxLcY79/zPz1nXcm7fnzvMOhuGiCw3v3nXfM3/3udxp78VhJoqiFqPl45cf67uTvasxFF5kPzZrFT/YBJJQHZ85M2qKWJNXV1mnGjF9xI3SyxsZG87ihQ5O2qCVJ7737nubMmcPNACS4nTt3msOOOz6p24DnHQ7FSRMc3KeffmpOvuQS8+IxF+u9d9+jQdCpD+gzzxit39x1lxkMBk1aBEAieOmll5K+DZa+9ZYqKyt5rneiZR98kFTTcQ6lYOFCbgYgwb366qsKJvhalTzv0F6M2Pqa0tJS8zd33aUzRp1OYyBmIpGIHn3kUZXxcg4gQezetZtGkLRr1y4aoRNt37GDRpC0e3cpjQAkuG1bt9IIkrZs2UIj4BsobH2psbHR/NOf/qSTTzqJXQ4RN/989lmt+mSVedLJJzEtEQASQCQcphEAANHor9IIEqPWcFAUttS8MPyZZ4zWxo0baQzE3ev/eZ1GOGwnMWTu2LlL27Zu1a7du7WnslKBYFC1NbVK9aXK4/aoa9eu6tqtq/r376/8/HylpKRQKAQAAACABJTUha3Kykrzjttv37cwPGAF9fX1NMJ+qqqqzLfefFMffPCBVq5cqT59jlJNbW2rN3JwOp0afsqp5vARwzV8+HBdcMEF6tuvH4UuAAAAAEgASVvYKiwsNE8bMYIFR2E5I4YPT/o2qKqqMufPm6eCgkXql9/3G7tdtWV30kgkoo0bN2rjxo2a88/mXVSGn3KqOXHSJF0x5QoNGjSIIhcAAAAA2FTS7YpYVVVlXv3jH5vf/95UilqwpJGjRiXtuX/66afmT6+7zhw6ZIhunDZNS996q1O2cN+4caMeevBBDT/lVI256CJz4UsvmZFwiJ3LAAAAAMBmkmrE1rvvvGOePmqUdmxnBx1Y09Ahx6pbt25JN4JozerV5t13333AbqRtGZXVEe+9+57ee/c99e/fTy/MfcG89NLJchouRnEBAAAAgA0kxYitUChk3ve7+8xxY8dR1IKljTx9dFKd786dO82fXnedeeboM/X6a/FdNH/Llq36ydVX68wzz9YHH3zA6C0AAAAAsIGEL2yVlpaal0y6RA/cf3+nTGkCoun0M05PmnN95plnzOGnnrpv3Sur+LSoSBde8B398r9/adbU1FDgAgAAAAALS+jC1vLly82zzjxTS996iysNWxg9OvFHbFVWVppXXHa5+Yvrb1BdbZ1lj/Nvf/2rzjj9dC1fvpziFgAAAABYVMIWtp599llzzIUXafeu3Vxl2ELvPr111FFHJfTaTqs+WWWeOXq0Fi9ebIvjLdlWojEXXqT/+/OfKW4BAAAAgAUlXGErFAqZt916q/nzn/5MwWCQKwzbOOOMMxL6/BYtWmRefPEYfbF9u62OOxgMasb0GZo2bdr/s3fnAVGVixvHnzNyuhRrbigKohiK4F4oLmmllZpeLbUybLHd6tpqVvdmdSutLNP2W9nVrEwrzSUzNcENl1xSUS9lLrihQqxJDs75/ZH5QxMEHIZZvp9/FBiGOc97hpnz8J73WMXFXDkRAAAAANyJV10VsbCw0BqalKR5c+cxsvA4iYmJ+nDSJK/ctsmTJ1s3Jw2Vw+Fw2dUOne3D9z/QwQMHVFRUZPn7+3PVRAAAAABwA15TbGVmZlp9evfW+nXrGVV4pI6J3rlw/Afvv289cN/9XrEt8+bO0y1Db6bcAgAAAAA34RXFVkZGhtWnV2+lp6czovBIIaEhahHb3Ou2a8aMGdadt9/hVds0f/583Td8ODstAAAAALgBj19ja8eOHdYVl19OqQWPdskll8hWw8+rZgAtX7bMuueuu+VwOLxuvGZMn6F/PvUU620BAAAAQDXz6GIrLS3N6nU1Vz6E5+vUubNXbU9GRoaVlJTk1RdwmDhhoqZ/Pp1yCwAAAACqkccWW1u2bLH69O5NqQWv0NmLii273W7dduutys7K9vpxe/DBEUpPT6fcAgAAAIBq4pFrbP15+qEvHDjD+5mmqbZt23rN9rzy8itas3qNT4xdQX6Bbr3lVtntdss0TRaTBwAAAAAX87hia/euXVbPnj0pteA12l98sbzlCntbtmyxunW91KfGb8vmzZowYQI7MgAAAABUA486FTEzM9Pq17cvpx/CqyQmdvSabXlwxAivXlerNGNeeFG7d+3ilEQAAAAAcDGPKbby8vKsAf0HaOfOXYwavIq3LBw/Y8YMy1dOQTyd3W7XU089xc4MAAAAAC7mEaci2u1269oB12rL5s2MGLxOhw4dPKFXB0QAACAASURBVH4b7Ha7dXG7dj49jrO/nq2NGzZabdq2Ya0tAAAAAHARj5ix9dCDDyolOZnRgteJi4tTaGioxxchn3/+ObMpJb300lh2agAAAABwIbcvtia8PsGaMnkKIwWv1LFToldsx5sTXmcwJc2bO0/p6emstQUAAAAALuLWxdaCBQus0U8/zSjBa3Xq1MnjtyF5yRJr67b/MZgn/Oe99wgBAAAAAFzEbdfY2rFjh9W9Wzc5HA5GCV6rY0fPvyLixx9/zECW8Pnnn6uoqMjy9/dnrS0AAAAAqGJuWWwVFhZaPS6/Qrk5uYwQvFZko0hFRER4dPlRWFhoXdS0qRyyZBM9jiTl5uTq2/nzCQIAAAAAXMAtT0V85OGHlZaWxujAq3nD1RAXL16sgvwCSq3TzJkzhxAAAAAAwAXcrtj67NPPrE8/+ZSRgddLTPT8hePnf8PMpDNZvHixHMeLWUQeAAAAAKqYW52KmJ6ebnXv1o1RgU9I9IaF45OXMJBnkJ2VrU2bthAEAAAAAFQxtym27Ha71e3SbirIL2BU4PVCQkMUFxfn0efvZWRkWHGxLRjMUqxevYoQAAAAAKCKuc2piGPHjNWWzZsZEfiETomeP1tr48aNDGQZNmzYQAgAAAAAUMXcYsbWmjVrrCt79GQ04DM6dkrU5zOme/Q2cIGHsm3a5J1F/Y4dO6y1a9equLjYZ8ayUWSkOiYmyjRNrpIAAAAAuJlqL7aKioqsLp06y+FwMBrwGZ07d/b4bfgpPZ2BLIVDlnbt2ul12/XPp56y2rZu45NjGhMTo/3791vh4eGUWwAAAIAbqfZi65WXX1E6B8jwIaZpqm3bth6/HRkZexnMUthkqCC/QFlZWVatWrW8ogjZvm2blXBJgs+OaXp6uia8/jo7NwAAAOBmqrXY2rJli9Wt66WMAnxKQocErzil6fDhQwzm2TI65D0ZceqptGnTJnZqAAAAwM1U2+LxjuPF1v333Se73c4owKd0TEz0iu349ddfGcyzOHLkiNdsy9GiIgYUAAAAgNuptmLrv5OnaP269YwAfE4nLym2jh07xmCehS8tsA4AAAAA1aFaTkXMysqy2rdrR/rwOTabTR06dvSKbSnIL2BAzyK/gIwAAAAAoEqPs6vjhz737HPKzsomfficFnFxCg4O9orFxAODAhnQs7jgggsIAQAAAACqkMuLre3btlmT//tfkodP6tQp0Wu2pUaNGgzoWfztvPMIAQAAAACqkMuLrSeffFIOh4Pk4ZMSE72n2Kp54YUM6FlcWLMmIQAAAABAFXJpsZW8ZIm1aOEiUofPSuzUyWu2hdLm7GrXrk0IAAAAAFCFXFpsPfnkUyQOnxXZKFLh4eGGt2xPVFQUg1oG0zQVFhZmkAQAAAAAVB2XFVuzZ8+2tmzeTOLwWV26dPGq7YmObsqgliEmJoYQAAAAAKCK+bnihziOF1sJl3QgbS9ns9l0QcAFJxcVDwkJkSTVsNkUEBgkScrLy/3L92Vn/3GFzIL8Aq/OJ6FDB7373ntesz0tWsSy05ehWfNmSl29iiAAAAAAoAq5pNj64ouvlJ6eTtoeqF79eoqMjFTDhg3VsGFDhdWrpzp16qh2rVqqXbuOLrwwVIFBQQoODpZpmkZOieIqY+/eCv88u91uFRYW6vfff1dubq7y8/OVk5Oj/Lw85eblKTs7W1lHjujIkSM6dOiQsrOzlZGRocOHDrt9lt42Y6tN27Y8QcrQtm07/XfyZIIAAAAAgCpU5cUWs7U8Q2SjSLVs2VKt27RR82bN1KRJE0U3baqAgAAj/aefXPY4TNOs1JpEdrvd2r9vn/YfOKC9e/dqx44d2rVzp3bv3q0dO3bo4IGD1ZpvzVo1FRMT41XrLUVHRxvRTZpYnlAqVoeEDgmE4GWOHj1KCAAAAICbqfJia/bsOczWcjOmaSqhQ4I6deqsxMSOuviSSxQaGmpsSUvTZ9Omeeo2lVka5eTkWOnp6dq2bZu2pqVp69ZtWrfuB5ed/piYmKhdu3d73b7UvXt3zZg+gyfVaQKDAnXxxRcThJc5dsxOCAAAAICbqfJi6+WXXyFlNxATE6OeV/bUVVddpY6JifL39zfmf/utz2x/aGjoGYuv3bt2WWvWrtXqVau0cmWqtqalyeFwOP3nd+yY6LGlYVl6XnklxdYZdOvWrdKzDwEAAAAA5VelxdbixYutAX/vT8rVpEVsM/W/bqCuvfZaxcTEGD+sX6cxY8cSTAmNoqJOKR8KCwutVatWafWq1Vq2bKnWrF4ju/3cZ2m0bt3KK/O7+uqrZZqmUzLyJv36/d0ri0wAAAAAcDdVWmy9Pv51EnaxwKBADRkyRLfedpvi4+ONVWt/0KhRowimnAICAk4puvLy8qyUlBQtWrhIixcv0p7deyp8n6Zpeu1C66Ghocb1gwZb8+fPZ+eR5JCl4KAg9bmmD2EAAAAAgAtUWbG1ZcsWq1PHRBJ2kfiWLTX8vuEaMGCAAgICjHGvvkooThAcHHxK0bV92zZr7rx5mjtnjtavW1+u+7jjzjtKPRXSG9xy6y2i2PqDTYb69ev3l/0GAAAAAFBVx2FV5M033iBdF+iYmKgZX36hlakrjaSkJOP0GUdwruaxscajjz5qJKekGGnbtuqVca+oW/fustnO/FTq1r27nh492qsz6XnllYpsFMnOccKdd91FCAAAAADgIlUyYysrK8uKaXoR6Vahdu3b6ZlnnlH3yy4zvlv4HYFUg4iICKPkPj9//nzNmztX27dvV0hIiAZff73uvPNOr19E3DRN4+2337ZGjXzc5/eJzl06q3379pTLAAAAAOAiVTJja8qUKSwmXUUiG0Xqgw8/VHJKitH9sss4gHYTtWrVMpKSkozPpk0zNmzcaCSnpBjDhw83fOXKeLfccovq1K3j8/vBk08+yZMBAAAAAFzI6cWW43ix9eEHH5CsswfKZtNDDz+k1WvWaPD1gym04FYCAgKMkSNH+nQG3bp3V9dLL+W5CQAAAAAu5PRia+GixZW6chzOzCFL7dq309JlS/Xsc8+xhhbc1rDbb1eL2Ga++YvUZtOYsWPYCQAAAADA1cdjzr7Dj6dMIVUneuyxx7Rw0SK1at2aQgtuzTRNY9xr431y2+8dfq/i4+N5jgIAAACAizm12MrMzLTmfzOfVJ2gTt06mj1ntkaPHu0z6zTB83Xp2tW4bdgwn9rmxo2j9M9//YvBBwAAAIBq4NRia/r06Swa7wQJHRK0MjVVLA4PT/TimBcVExPjG79AbTa9/+GH4hRhAAAAAKim4zJn3tmnUz8h0XM0aPAgzZ03T2FhYRwowyMFBAQY/50yWYFBgV6/rf9+4XklJCTwXAUAAACAauK0YmvLli1WWloaiZ6Dx0c9rg8nTTL8/f05UIZHi4+PN95++22v3sZBgwfpgQce4LkKAAAAANXIacXWtM8+I81z8Nr41/TUP//JQTK8Rv8BA4x/P/+8V25b5y6d9ZaXF3cAAAAA4AmcUmw5jhdbX375JWlW0mvjX9Mdd95JqQWvM+LBEcZDDz/kVdvUrn07fTZtmphZCQAAAADVzynF1sqVqdq3dx9pVgKlFrzds8895zXlVrv27TTr668VGhrKcxYAAAAA3IBTiq1Zs2aRZCX8+/nnKbXgE5597jljzNixHr0NPXr20LxvvqHUAgAAAAA34pRia/bs2SRZQXfdfZdGPDiCA2T4jPvuv8+Y9vk0j7xa4r3D79X0GTMUEBDAcxYAAAAA3Mg5F1tr1qyxDh44SJIV0KtXL3n67BWgMnr36WMkp6QovmVLj3i8gUGB+ui/H+mll182/Pz8KLUAAAAAwM2cc7E1++uvSbECGjeO0nvv/0emaXKQDJ8UExNjfL/kez308EOy2Wxu+zi7de+u1NRUXTdwIM9VAAAAAHBT53xUOW/ePFIsJ9M09clnn7FGD3yev7+/8exzzxnJKSlK6JDgVo+tTt06evvddzRn7hyjUVQUz1UAAAAAcGPnVGylp6dbO37eQYrlNOGNiYqPj+dAGTihTds2xqLFi42P/vuRYmJiqvWxBAYFatQTT2jDxo1KSkrieQoAAAAAHuCciq0FCxaQYDn1+3s/DpaBUlw3cKCxZu1qTfl4istncDVo2EBPPzNaW7dt05NPPWkEBwfzPAUAAAAAD+F3Lt/8DachlkudunX06muvaeonnxAGUApbjf9fnH3Lli3WJ1OnatasWdq3d59Tf45DloKDgnTllVdq8ODBuvKqq+Tn52c8+uijDAIAAAAAeJhKF1uFhYVWZMMIEiyH1ydMUFhYGLNAgHIqecruxg0brUWLF2nlihVau3atcnNyK3x/pmmqZauWSkxMVPfLLlOXLl0UEBBg/HfyZMIGAAAAAA9W6WIrJTlZdrudBM/i2uuuVd++fSm1gEpq07bNKc+fjIwMKz09Xbt379bBAweVnZ2lgoKCk1//29/8FRoaorB69RQREaEmTZooJiZGpmkaySkpGjN2LKECAAAAgJeodLH1/fffk95ZBAYF6t/PPy9mhQDOExERQVEMAAAAAJB0DovHJy9JJr2zePiRRzgIBwAAAAAAqCKVKrb+PBUIpYtsFKn777+fIAAAAAAAAKpIpYqtFStWkNxZvDhmjPz9/ZmtBQAAAAAAUEUqVWwtX7aM5MoQ37Kl+vXrR6kFAAAAAABQhSpVbC1bupTkyvDEk08QAgAAAAAAQBWrcLG1f/9+a+fOXSRXiviWLdW3b19mawEAAAAAAFSxChdbqStXkloZRj0xihAAAAAAAABcoMLF1g8//EBqpYhsFKlr+vQmCAAAAAAAABfwq+g3rF27ltRKcfc998hWw4/TEAEAAAAAwFnZ7XarsLBQpmkqICCAPqESKlRsFRUVWQ3qh5PaGQQGBWro0KF64IEHCAMAAAAAAB+zf/9+a/fu3dq1c5f27d+nrCNHdOjQIf3666/Kzs7W4cyDyisolCT9Vvib7Ha7al1Y8+T3BwcGWdIf/UKNGjV03nnnKTg4WCEhIapZs6bq1q2r2rVrK7xBA4XXr68mTZooqnFjBQcH+3QhVqFia9OmTbLb7eytZ3D9DTcoNDSUdhUAAAAAAC9VXFxs/fLLL9q8aZO2pKVp65Y07dixQzt37lTzmGZO+RkF+QUn/3/40OGz3j6qUSMrNjZWcXFxahEXp9atW6tVq1YyTdMnOooKFVusr1W622+/XePHjycIAAAAAAC8xP79+601q1crNTVVq1evVlidum434Sc7K1srlq/QiuUrTn7ONE31uOIKq2PHjurWrZs6de7stac6VmzG1o8/slefQXzLloqPj2e2FgAAAAAAHiwzM9NasmSJkpcs0fLly502C8vV7Ha71qxeozWr12jihIkyTVO9rr7auvrqXrqm7zWKjo72mg6jQsXWxvXr2MvP4MYhN2pl6kqCAAAAAADAgziOF1s/rFuv2V9/re+/X6KLopt65Xba7faTs7r+9c9/KrFDR+u6QQN1/fXXKyIiwqNLrnIXW4WFhSwcfwY2m02DBw9m0XgAAAAAADxAcXGxlZKSotlfz1bz5rE6eOCgz2WQlpamtLQ0PffMs+p7TV/rpqSb1L9/f/n7+3tcyVXuYmvTpk1yOBw8A05z+RWXKywsjNMQAf0xbfeNiRO1atUq/fbbUa/f3kaNIvX3/v01eNBA2Wr48XvAy/1v+3bFx8VZnvBY/f/mr+joaN045Eb1HzCAfRNAlSksLLRWrVqlAwcOeP221rDVUMOGDdQxMdFnFmQuS05OjrV69WodPnzY68e9fv166piY6JEH/DjVunXrrOmff65mMTHlWpTdV6QkJyslOVlPPfmkXnzhRev2O273qJ6j3MXWtm3bGO0zuPa66/TVzJkEAZ+XmppqXdy+vXJzcn1mm7ds3qx5c+dp+uefq6ioyOLNjnez2+3as3uPxzze9PR0zZ8/X7cPG2a995//yM+P8hWAc02dOtVq3qyZT732S1K9+vX0zbx5Vu8+fXz29+r48eOtFrGxp1y5zdvVrFVTX37xhXXdwIG8nnqYrKwsa9pn0/Tx5I90WbfuBFKGw4cOa+yYMXp13Dg9PnKkdf8DD3jEaYrlLra2pqUxyqex2Wzq1asXQcDn7d+/3+qQkOBzb2z/tGjhIj3/73971TYVFRVZGzZs0IoVK7RyxQqNfOwxOWTJJt7LeZoZ02eoVavWBAHAqaZOnWoNv+den9z2gwcOasiNQ5S8ZInV/bLLfO6Fcdy4cdbofz3tc+OenZWt2269TbNmzrSYDe0Z1qxZY7337ruKaXqR213F0N3Z7Xa98/Y7+uD9DzTiHyOsJ5960q1ncJW72Eqj2PqLhA4dVKtWLX6pwee98sorPltqSZJDliZNmqTCwkLLUy+hW1hYaK1ds0bLli3XypUr1KB++F/eAFBqea633nqTEAA49TUjrkULn87A4XDo0Uce9bntzszMtFo0j/XpsR85cqSKi4stZkK7J7vdbs3++mu988476nH5FQRy7nnqo0mTNGPGdI0fP96699573fKU3HIXW1u2bGFUT9OnTx99t/A7goDPm/nVVz69/TYZKsgv0E/pP3nMY87JybFWrlih1atXKyUlRQ3qh7OOohc7eOCgMjMzLdaEBOAMq1atUnZWts/nkJ6erh07dljR0dE+87v1+8Xf+/zMl4MHDmr9+vX8InAzRUVF1qeffqqL27XTzp27CMTJCvILNPpfT+vDDz7QooULrR49e7rV771yFVsZGRlWXGwLRvM0vXr30ogHRxAEfFphYaFVP6weQUjKz89z28eWmZlppa5cqdTUVC1btlyRDSMYMF97w3f0KCEAcApfWCi+3Fns3+9T27tv/z4G/Y/3VYTgLu9vioqsqR9/rLZt2mjfXvbPqrZn9x5dO+Ba3XP33dbYl15SaGioWxRc5Sq2dvz8MyN4msaNoxQTE8NfvuHzOF/dbd9wWUuXLtXqVau0fGmKLopuSigAADiZZVk+tb3Hfj/GoMNtzJo50+pwySXM0KoGn37yqRYuXKgFCxZYV111VbX3IuUqtv73v/8xcqfpftnl+nHzZoIA4BYyMjKsVatWafmy5VqxfDlFFgAAALzSunXrrCdGPaGbh95MGNXo8KHDGnTdQI1++mnrn//6l0zTrLaCq1zF1k8//cSonaZL1y6aMHECQQCoFhkZGdaKFSu0fNkyLVu6VJwuDgAAAG93YP8BXdatO0G4kfGvjVdq6iplZGRYERER1VJulXPGVjqjdZpLL72UEAC4TGFhoTVnzhwlL1mi5cuXU2QBAADA57AMintalZqq7t26aeOGjVabtm1cXm6Vq9j6+WdmbJUUExMjriwFwFW2bNlidUhI0J7dewgDAAAAgNs5fOiwevfupdmzZ1v9+vVzaV9iO9sNioqKLK4ucKrOXboQAgCXyMrKsv7erx+lFgAAAAC3VpBfoKQhN+mtN99y6ZU1zlps7dq5k9E5TceOHQkBgEu89+57OnzoMEEAAAAA8AhPjBqlF1940WXl1lmLrV9++YVROU37i9sTAgCXWLZsKSEAAAAA8Chjx4zR6Kefdkm5dfYZW7t3MyIlBAYFqkmTJgQBwCVyc/MIAQAAAIDHGf/aeI0dO7bKy62zFlu7d+1iNEpo3bq1/Pz8WDgeAAAAAACgDC8+/4ImT55cpeVWOdbY2sVIlNC+PachAgAAAAAAlMeIB/6hBQsWVFm55Xe2G2Ts3csolNC6TRtCAAAA5fLC8y/onrvvtkiiakyZPIUQAABwc8WO47rt1lu1bt06q3379k4/A+6sxdb+/fsYhRJaxscTAgAAKJf58+cTAgAA8Gk2GSrIL1DSTTcpKyvLqlWrluHc+y9DUVGRlZ2VzSicYJqmops2JQgAAAAAAIAK2Ld3n2695VYVFxc7dTZ7mcXWnj17SL6Exo0byzRNFo4HAAAAAACooJTkZD0zerRT77PMYmv/Pk5DLOmimIsIAQAAAAAAoJImTpio5CVLnDZrq8xi69ChwyReQvPYWEIAAAAAAAA4B/fee69ycnKcUm6VWWwdOHCAtEuIuSiGEAAAAAAAAM7Bvr379MjDDzvlvsostg4fPkTaJcQ0o9gCAAAAAAA4VzOmz9Ds2bPPedYWM7YqoGHDhoQAAAAAAADgBI+PHKnCwsJzKrdYY6ucTNNUWFgYV0QEAAAAAABwgn179+nll146p/so+1TETGZs/SmyUSQhAAAAAAAAONGbb7yp9PT0Ss/aKrvYysom4RMaNowgBAAAAAAAACey2+165OFHKv39ZRZbOb/mkPAJrK8FAAAAAADgfCnJyUpesqRSs7b8SvtCXl6e1TC8AemeEBHhOzO2MjMzrddefVWLFy1W5qFMHT9+XDVq1OBfN/n3/PPPV3x8vO67/35dccUVrPsGAAAAAPB4zzzzTKW+r9Ri69dsTkMsqUFD3yj5tm/bZnVKTNRhLhzgtnJzcnXwwEEtWrhIY8eOtUaNGkW5BQAAAADwaOvXrdecOXOsvn37VugYt9RTEY9kZZFqCXVq1/b6bXQcL7ZuvXkopZYHefH5F7Rs6VKLJAAAAAAA3nCM6zheXKFj3FKLrZwc1tcqqXadOl6/jStWrNTWbf9jsD3Mhx9+SAgAAAAAAI+Xlpamb79dUKHvKbXYys/LI9ESQkNDvX4bt27dykB7oC2btxACAAAAAMArvP76hArdvtRiK5di6xR169b1+m0sLj7OQHugot+LCAEAAAAA4BVWpaZq3bp15T4dsdRiK49i6yTTNBUaGsoC3QAAAAAAAFXsjYkTy33b0out3FySPCH0wlBCAAAAAAAAcIFZM2cpIyOjXLO2mLFVDnXr1CUEAAAAAAAAF3A4HPp4ysflum0ZxVY+SZ4QEBhACAAAAAAAAC7y6aefyHG8+Kyztkotto4d+50UTzj//AsIAQAAAAAAwEX27N6jpUuXnfV2pRZbv/32GymeEMiMLQAAAAAAAJf6+OOzn45YarFVUFBIgieEhIQQAgAAAAAAgAvNmjlLeXl5ZZ6OWGqxdfQoM7b+dP4FnIoIAAAAAADgSna7XfPmzivzNmWciniUBE8IoNgCAAAAAABwuVkzZ5b5dWZslcMFF7DGFgAAAAAAgKstWrRIhYWFpZ6OWGqxZbfbSe8E1tgCAAAAAABwPbvdrm/nzy/16zYiAgAAAAAAgLuaM2dOqV/zK+0Lubm5JAcAAAAAAHxGZKNINW7cRA0ahCssLEx164YpJDREISEhCj3tbK5jdruys7OVnZWlI0eOKCMjQz///LO2bt2qvPx82WQQqJN89913stvtlmmafwm11GLr+PHjJAcAAAAAALyOaZpq1ry5LrnkErVr306tW7XWRTEXKSAgwNiSlnZO911cXGxt375dS5cu1aKFC5WSnMJyT+eoIL9AP/zwwxm/5lfWNzpk0TBKCglljS0AAAAAADxZi9hmuuyKHuratau6de+ugIAAY2XqSqf/HD8/v1OKlJycHOuLGTP04QcfKu0cSzNf9v3ixWfOu7RvKMgvoNQCgGpWq1YtQoBT1K5ThxAAAIDP6ZiYqP4D+qtP795qFBVlrFr7g8aMHevSxxAaGnqyXFn43XfWCy+8oPXr1jM4FbRkyZIzfp7F4wHAjXXr3o0QcM7atW+ngIAA/loFAAB8QnTTaD39zGhtT/+fvlv4nTF8+HCjUVSUW7wX6nnllUZySorx9rvvcHZYBf2w9gfl5eVZp3+eYgsA3Ngdd9yhBg0bEAQqzWaz6ZlnniEIAADg1UzT1E1JSVqw8Dtt2LjRePTRR43w8HC3/cNeUlKS8cO6derRsweDV04Oh0MpKSl/fb9LNADgvkJDQ42ZM2cqJiaGMFBhgUGBeufdd9X9ssuYrQUAALxSvfr19PQzo5X+80965913jMTERI953xMWFmZ88cUMPfLYowxkOa1eteovn/MjFgBwb81jYw273W7Nnz9fmzdtUl5enssfw9at25SSnOzT41CzVk1df/31HvFYTdPURTExuvrqqxUWFkapBQAAvE7jxlF67PHHNXDgQPn7+xuPPuqZ5ZCtxh8LzU+aNMl6+MGH5HA4GNwyrKLYAgDPZJpmtZYTU6dOtXy92AoPb6CXXn6ZkggAAKAaNW78R6F1/fXXyzRNIykpySu2a9iwYcbUqVOt4ffcyyCXYcP6DbLb7VbJ4yNORQQAAAAAAG4tJDREL4x5UavXrlVSUpJR3X/4rQpJSUnGv59/nsEug91u16ZNm075HMVWORQWFBACAAAAAADVZMiQIXrggQcMf39/r55BP+LBEcagwYMY8DL8sHbtKR9TbJVDcfFxQgAAAAAAAFXurbff5uJRZVizZs0pH1NsAQAAAAAAuAl/f3/jgw8/lGmahHEGP2788ZSPKbYAAAAAAADcSJu2bYx7h7OQ/Jn8/PPPKioqsv78mGKrHI4WHSUEAAAAAADgMiMff1z16tcjiNM4HA6l/+9/Jz+m2CqHwsJCQgAAAAAAAC4THBxsjBw5kiDOYOu2bSf/X2qxFRgUSFIn/EaxBQAAAAAAXOyWW29V48ZRBHGabVu3nvw/M7bKIS8vnxAAAAAAAIBLmaZpPPCPfxDEabZv237y/6UWW+effz5JnXD06G+EAAAAAAAAXO7GIUMUEhpCECWkbU07+X+KrXI4+huLxwMAAAAAANcLCAgwbrnlFoIoYc/uPSevjFhqsVXDxlmKf8rLzyMEAAAAAABQLW4cMoQQTrNv3z5JZRRbAYFBpCTJIUtHjzJjCwAAAAAAVI+4uDijXft2BFHCrl27JJVRbJ13nklKkmwy9Gt2NkEAAAAAAIBq8/f+/QmhhN27d0tija1yyf71V0IAAAAAAADVpl+/foRQwu6zzdgKDQ0lpRNyc3Jlt9stkgAAAAAAANUhOjraiImJIYgTzjpj64ILLiClU0HpMgAAIABJREFUErI5HREAAAAAAFSjK3pcQQgnnHWNLU5FPNWRI0cIAQAAAAAAVJtu3boRwgn79++XVNZVEQMCSKkEFpAHAAAAAADVqVPnzoRwQtaRLEllFFshIayxVRIztgAAAAAAQHUKDQ01WsQ2IwhJdrtdOTk5ll+pYV1IsVVSZmYmIQAAgAqJbhqt889n3dKq8uuv2dq3dx9BAAB8ysUJHbR12/8IQtKhQ4dUarF1YeiFJFTCn+duAgAAlNfkyZPVqnVrgySqxtSpU63h99xLEAAAn9KufXtNmTyFICRlZWWVdSpiMAmVsHfvXkIAAAAAAADVKjY2lhBOyDx4sPRi68KaNUmohIwMii0AAAAAAFC94uLiCOGEI0eOlF5sBQczY6uk/ftZvwEAAAAAAFSv4OBgI7JRJEFIOlLWqYi1a9cmoRIO7D8gx/FiiyQAAAAAAEB1aty4CSFIys3JKb3YqlWrFgmVYLfbdTDzEEEAAAAAAIBq1aQJxZYk5efnl15s+fn5GTVrsc5WSb/s2OHV2+fnV4NBBgAAAADAzVFs/eHo0aOlF1uSVK9uHVIqYccvv3j19jVr1oxBBgAAAADAzTVs2IAQJBXkF5RdbNUJq09KJfyUnu7V29e5SxfFxMQw0AAAAAAAuLHwBhRbkpSXn1d2sVWLUxFP8VP6T169faZpGv+dMlmcggoAAAAAgPuqW7cuIUjKzc2TX1k3qF+fGVsl7fDyNbYkKT4+3ti/f7/10tiXtHjxImVnZ6tGjRo6fvy42/37e9Hvstvt7JgAAAAAAJ/SgBlbkqTCgvyyiy2mtp1q586dstvtlmmahjdvZ3h4uEds31tvvmU9MWoUOyYAAAAAwKf4+/sb4fXrWwX5BT6dw3GHo+xTEcOZsXUKu92uHT//TBAAAAAAAKBahYSE+HwGubm5ZRdbEZGR7Cmn2fjjj4QAAAAAAACqVWhIqM9ncPz48bKLLdbY+qstmzcTAgAAAAAAqFahF1JsSSq72KpXr55sNhspneCQpR9/3EQQAAAAAACgWgUHBROCzlJsmaZpNIxoSEonwzK0ceMGggAAAAAAANXq/AvO9/kMCvILdNbpWI0bN2FvKSE3J1e7d+2ySAIAAAAAAFQXf39/QpDOXmw1asQC8qf74YcfCAEAAAAAAFSbwMBAQlA5iq2oxo1J6TSpqamEAAAAAAAAqk2NGjUIQeWasdWIlE6zciXFFgAAAAAAQHU7a7F1UdOLSOk0W9PSlJOTwzpbAAAAAACgWrDG1h/OXmzFUGydzuFwaPXq1QQBAAAAAACqxd/+RrEllaPYCggIMBo0bEBSp1m5YgUhAAAAAAAAVCNbeW7UlNMR/2LhwkWEAAAAAAAAUI3KVWw1axZDUqfZsnmzMjMzWWcLAAAAAAC4XH5+ns9nYLPZyldsNW/enD3mDBYuXEgIAAAAAADA5RwOh89ncEHABeUrtuLi49ljzmARxRYAAAAAAEC1KVexFRsbS1JnsHjxYhUXF3M6IgAAQDUoLCggBAAAfFy5iq3Q0FAjslEkaZ0mNydXy5ctIwgAAIBqUFx8nBAAAPBhgYGB5Su2JCmuRRyJncHnn08nBAAAAAAA4FJFRb/7fAbnnXde+YutVq1bsdecwdy5c2S32zkdEQAAAAAAuMzvvxf5fAaBF5xf/mKrbdu27DVnkJuTq++//54gAAAAAAAAXMjmV4EZW20otko1/fPPCQEAAAAAALhMUREztiq0xlZ4eLhRr3499pwzmD9/vnJycjgdEQAAAAAAuMTR3476fAY1atjKX2xJUts2zNo6k4L8An0xYwZBAAAAAAAAl8jLz/P5DIKDgitWbF3SIYE9pxSTJn1ECAAAAAAAwCWOHmXGlnmeWbFiq2OHDuw5pdiyebPWrVvH6YgAAAAAAKDKHTtm9/kMQkNDK3gqYrt2Mk2TvacU7//nP4QAAAAAAACqXF5ers9nEBQUVLFiKyAgwGjZqiV7TylmTJ+hjIwMZm0BAAAAAIAqdezYMZ/PIKiia2xJUmJiIntPKex2u9584w2CAAAAAAAAVaqgoMDnMwgJCal4sdWpc2f2nlI4ZOnjjz9WVlYWs7YAAAAAAECVsNvtVkE+xVZgUGDFi62uXbvKZrOxF52BTYYK8gv03rvvEQYAAAAAAKgS2dnZhCApJLgSpyKGhoYabdq2Ib0yvPnmG8rMzGTWFgAAAAAAcLojR44QgqSgyhRbktStWzfSK0NBfoFeefllggAAAAAAAE73KzO2JEmhoaGVK7Yupdg6q48mfaTdu3YxawsAAAAAADgVM7b+ULdu3coVW507d1ZgUKAcorcpjd1u1+jRowkCAAAAAAA4VfavvxKCpDp16lSu2PL39zc6duwomwxSLMNXX36lRQsX0v4BAAAAAACn8fXF4x2yFBgUKH9/f6PSlzfs3bs3e1I5PPLwwyosLKTcAgAAAAAATrFv3z6f3n6bDNWsWfPE/yupZ8+e7EnlsHPnLo0bN44gAAAAAACAU+zetcvnM6hdu7akcyi2GkVFGXFxcexN5TDx9Qlat24ds7YAAAAAAMA527N7j89ncM4ztiSpd58+7E3lYLfbNezWWzklEQAAAAAAnLP9B/b7fAbh4eGSzrHY6tu3L3tTOe3cuUuPjxxJEAAAAAAAoNIyMzOtgvwCn8+hfv36ks6x2GrTto3RoGED9qpymjJ5iqZNm8asLQAAAAAAUCl79+4lBEn1nTFjS5L69+9PmhVw373DtXHDRsotAAAAAABQYb/88gshSIpo2FCSE4qtgYMGkWYF2O12DR48SJmZmZRbAAAAAACgQrZv204IksIb/HEG4TkXW+3btzcaN44i0Qo4eOCgrh88mMXkAQAAAA/229GjhADA5bZuTSMESQ2cVWxJ0sBBg0m0gtavW68brr9BRUVFlFsAAACABzp27BghAHC5zZs3+3wGgUGBCg0NNSQnFVuDBg1kz6qElORk3XbrrSouLqbcAgAAADzM8eJiQgDgUllZWdae3Xt8PodGkY1O/t8pxVbz2FijXft27GGVMG/uPA1NSmLmFgAAAOBhsn/9lRAAuNT6desIQVJU46iT/7c5606TkpJItpLmzZ2nQQMHseYWAAAA4EHy8/IJAYBLrV37AyFIio6OPvl/pxVbAwcNkmmapFtJKcnJ6tO7N1dLBAA3dez33wkBAHCKnNwcQgDgUsuWLSUESU2qotgKDQ01+g/oT7rnYP269ererZs2bthIuQUAbqbo9yJCAACc4sD+/YQAwGUKCwutNavXEISki5o2Pfl/mzPv+I477yTdc5Sxd6969+6ladOmUW4BgBvJzc0lBADASQ5Z2rePYguA66QkJ8tutxOEpKjGjU/+36nFVmJiohEXF0fC58AmQwX5Bbrrjjt1+7BhVl5eHgUXALiB3Jxc1kIEAJzyvn3P7l0EAcBlFiz4jhAkmaapiIgI4/9/HzvZ7XfcTspOMmP6DHVKTNTyZcs4kAIAN7Bv3z5CAACctHv3Hv7oAcAliouLrblz5xCEpGbNm5/ysdOLrRuHDFFgUCBJO8me3XvUu1dv3XP33VZWVhYvmgCqxfn+/oQgafOmTYQAwOcFBwcTwgkOh0Pbt28nCABVLiUlRYcPHSYISa1atTzlY6cXWwEBAcawYcNI2sk+/eRTtW/XTm+//bZVVFREwQXApc77298IQdKGDRsIAYDPMwyDEEr48ccfCQGACzqBTwjhhNjYFqd8bKuKH3L3PffINE3SdrLsrGyNGvm4Lm7fXtOmTbOKi4spuADAhb7/fgkhAABOsTQlhRAAVKnMzExr1sxZBHFCfMv4Uz6ukmIrIiLC6D+gP2lXkT279+iuO+5U+7Zt9cH771uc1w+gqgUFcoq5JG3ZvFm7d+3idy4An3beeecRQgnJyclyHOcPzgCqzgfvv8/VEEuIjY095WNbVf2gESNGkHYV27lzlx5+6GHFtWihJ0aNsrZv28YLKoAqUaNGDUI4YerUqYQAwKcFXHABIZSQnZWt1WvWEgSAKpGTk2O99dZbBHFCSGiIwsPDTzknvsqKrVatWxt9rulD6i56MX3rzbeUcEmCelxxhfXeu+9a+/fvp+QC4DR+nF5+0qRJk8RahwB8GYvH/9WUyVMIAUCVGP/aayrILyAISQ5ZuuSSS/7yeVtV/tCHHn6Y5F1szeo1euzRx9Q8ppl6XHGFNXbsWGvNmjVesx5XYWGhtWbNGmvcuHHW1I8/ZsABF7kwNJQQTjh86LDee/c9ggDgs0JCQgjhNF9/PUt5eXn80QOAU+3YscN68403CeIEmwy1btPmL5/3q8ofmpCQYFw7YIC1aOEiRqAarFm9RmtWr9GLz7+gwKBAXTtggJXQoYMubt9eLeLi/jJ9z53k5eVZe/bs0S+//KL09HRt27pV27ZtV4P64XI4HAwu4GIX1qxJCCW89NJYZWZmWmFhYVwaDIDPCeGPHX9RkF8gbz/4zMzMtIYmDWWwARcpLi62evfqzdpap7nk4ov/8jm/qv6ho554QhRb7vFiu2jholPGIqpRIys2NlbR0dGKbtpUkRERCm/QQHXr1lW9evUUEBDgtAO2nJwcKz8/X0ePHtVvhb/pyJHDOpKVpcOHD+vI4cPKysrS4UOHlbF3r3bt2qmG4Q0YNMCdDmL46/xffqfecfsdcjgcls1mo9wC4FMCuaDIGb355hvKysqyatWq5VWvC47jxdakSR+pbZs2nA6FajVz5kx9+cUX1nUDB/rEe69x48ZpVWoqA3+a9tVRbCUkJBg33nCDNW/uPEbAzWRnZWvF8hVasXzFGb9e68KaVlBwkAIDA2Waps4//4ITB7j/v67C0aNHdezY/zfIx37/XUW/F/1x4FdQoGPHjqkgv0CRDSMIHPBg/v7+Rnj9+hZvaP9fSnKyxrz4IkEA8Dl+fn5GRMOGVm5OLmGUUJBfoJGPPeZV25S8ZInVpcul2rJ5MwOManfwwEHddutturLnldbzLzyvhIQEry24vpk3zxpy4xAG/TSRjSJ1pjMm/Fzxw0ePHi2KLc9jt9uVnZWt7KxswgCgkJAQ/lJ7mpfGvqS3337bGj58OLO2APiUsLphotj6qxnTZ+izTz+zbhxyo0e/LmzcsNF67rln1a9vPwYVbmdVaqp6XH6Frh0wwBr1xBNeV3AlL1liDRkyRMWO47KJt5glXXzxxdqSlvaXz9tc8cObx8YaQ26ibQQAjz6ICQsjhDMYNfJx/fOpp7zmIh0AUB71w8MJoRT333efkpcs8cjXhNTUVOvGG26wLu3aleVk4PYWLVykHpdfoV5XX23NmTPHchz3/PdiCxYssK679joV5BdQap1BYmLiGT9vc9UDeHr0aAUGBcoh3vcDgEcexNSvTwilmDhhogb0H6CMjAxe5AD4hFq1uKhIaex2u4YMGaJv5s3ziNeEoqIi68svvrB6XHGFdVXPKznTBh5nxfIVuunGIWrVqrXeeOMNKysry+PejzmOF1vjxo2zrh80mMXiy9CtW7czft5lxVZ4eLjxjxEjaB0BwENFRkYSQhlSkpPVISFBb7zxhlVUVETBBbjiQMDiSsnVhT92lK0gv0BDbhyisWPHWna73S1fE7Zv22aNfvppq3mzZrrt1tu0ZvUaBg4ebc/uPXrqiScV0/Qi3XjDDdasmTOtwsJCt39Ptn3bNqtPn2v03DPPyuHgda00derWUfPY2DMWSjZXPpAHHnhADRpytTsA8ESRkY0IoRwHMk898aTatmmjt99+2yPeTAGeLD8vnxCqSVRUFCGchcPh0IvPv6Bul3bT8mXL3OL1ID093Ro/frzVKbGTlXBJgsa/Np71dOF17Ha75s2dp5uH3qyLmjbVrbfcYk3/fLrbzeTavWuXNeIfI6yOHTqWekE3/L+uXbuW+jWXFlsBAQHGmDFjGBEA8EARkVzdtLz27d2nUSMf10VNm+r2YcOsBQsWMIsLgFeJatyYEMppy+bN6t2rt67seaU1Y8YMl74eFBYWWgsWLLD++dRT1sXt2lsXt2uv0f96mqscwmcU5Bfoqy+/0h23367oxk3UvVs3a/TTT1uLFy+28vLyXP7erLCw0JozZ451/aDBVutWrfXRpEnM0iqnS0s5DVFy0VURS+o/YIBx7YABFosRAoBniYzgVMTKvJmaMX2GZkyfIdM01feavlbHjh3UqnVrtWjRQo0aNZKfn985naOfk5NjHTp0SJkHD+pgZqays7KUX1Cg4uJitWrZUj2vvFKmabIOAACnatq0KSFU0KrUVK1KTVVIaIhuveUW66qrrlanTolqFBXllN/RRUVF1s8//6yNGzdq3bp12rB+vRrUD+egGTjB4XBo/br1Wr9uvca/Nl6SdHG79tbFl1ysuPh4xcTEqHmzZoqIaChbDT+nPC9zcnKsLZs3a9269Vq5YoUiG0awhlYlXXH55aV+za86HtD48ePVrm07BhQAPEjz2Oay2Wy8Qa4ku92ulORkpSQnn/ycaZpq3bKlVaduXdWrV0+BgYEKCQmRJAUHB+vYsWMqKipSYWGhiouLVVBQoNzcPB05fFhZ2VnKOpKlyIZlz6SLbhqttLQ0Ky4ujnILgNNERkbymlBJuTm5+urLr/TVl19JksLr17fi41sqOjpadevWUUREhGrXrq0afn4KCgxUjRo1JEm///67jhYVqaioSNlZWdq/f7+ysrK0e/ce7dz5i+rWrkO4QAWlp6crPT39lM/9+f4srF59hYfXV+3atRUUHKzg4GCdZ56n8y84X+edd97J2xcdPaqc3Fzl5+UpJydXubk52r//gHbt2nnW92kon5iYmDL/CFAtxVajqChj3Lhx1nPPPMsIAYCH8Pf3N9q2aWPt+HkHYTiJ3W7Xzp27tHPnrir7GTt+3qF+ffsqMzPTCgsLo9wC4BSmaRqtW7a0qvL3l68oyC84OZsLgG+8P0PFXN3rav2wfl2pX7dV1wN78MEHFd+yJSMEAB4kLi6OEDzQ4UOH9fr48QQBwKlatmpFCACAKnf11VeX+fVqK7b8/PyMd999R6ZpMkoA4CFatKDY8lRLFrO2JQDn4o/UAICqFhIaoo6JiWXexladD7BV69bGY4+PZKQAwEO0bMVBjKfad+AgIQBw7nt5ii0AQBVyyFKfPn3OerElW3U/0EceeUQJHRIYMQDwAAkJ/L72VMePHycEAE7FqYgAgKpkk6EB115bjttVM9M0jff+8x8FBgUyagDg5sLCwozoptEEAQBQRESEUa9+PYIAAFSJmrVq6vLLLz/r7Wzu8GCjo6ONV199jVEDAA/QsWMiIQAAJEmdOnUiBABAlfj73/vLNM2zXtXb5i4P+MYhNxo333IzIwcAbq5jYkdCAABIkhIT+WMHAKBqDBo0sFy3s7nTg37p5Ze5lDwAuLnu3boRAgBAktS5SxdCAAA4XWSjSHXp2tUoz23dqtgKCAgwpn76iUJCQxhFAHBTjaKiDP4IAQCQpBaxzVWnbh2CAAA4VdLQoeW+rc3dHnx0dLTxwYcfymazMZIA4KauvOpKQgAAyFbDz+jZsydBAACcxjRN3Xxz+Zeqcsv26KqrrjJGP/sMowkAburqXr0IwcPUrFmTEABUid59+hACAMBpevXupfDwcKO8t3fbaVEPPfSQMeSmIYwoALihDgmXcOoJAECS1L17d5mmSRAAAKe44447KnR7tz7f7/UJE9Ste3dGFQDcjK2GnzFw4ECCAAAoODjY6NGjB0EAAM5Zi9hm6n7ZZUZFvsetiy1/f3/j46kfc6VEAHBDN910EyEAACRJg68fTAgAgHN2/4gHK/w9br9Ce2hoqPHlzK/UuHEUIwwAbqRV69ZcHREAIOmPtRcDgwIJAgBQaQ0aNtD1119f4e/ziEsPhoeHG1/NmsV6LgDgZoYkMWsLACAFBAQY/fr1IwgAQKU9+OCDMk3TqOj32TxlA6Ojo42vZ89WzVpc1QkA3MXQoUP5Cz0AQJI07PbbCQEAUCl16tZR0tChlfpemydtaHx8vDF33jzKLQBwE6GhocbQSr4AAQC8S0JCgtGufTuCAABU2MiRIxUQEGBU5nttnraxlFsA4F6GDx8um81GEAAA3X33PYQAAKiQxo2jzmnWr0ceifxZbtWrX489AACqWaOoKKP/gP4EAQDQgGsHqEHDBgQBACi3Z597rlJra/3JY//EHh8fb8z/9luulggAbuBfTz/NrC0AgPz9/Y1HHnmEIAAA5dKufTv1HzDAOJf78OijkOjoaGP+ggWKb9mSvQEAqvn3cdLQJIIAAChp6FBmbQEAzspms+n11yec+/14ehDh4eHGN/O/UY+ePdgrAKAaPfnUUzJNkyAAwMf5+/sbj40cSRAAgDLdO/xetWnbxjjX+/GK80ZCQ0ONz6dP18233MyeAQDVJDw83HjscQ5kAADS0KFDFRcXRxAAgDNq0LCB/vmvfznlvrxmQRTTNI0333rLGPvyS6zzAgDV5MEHH1RMTAxBAICPM03TePmVlwkCAHBGr776qgICAgxn3JfXNUDDhw83Zn09SyGhIewpAOBi/v7+xusTXicIAIC6Xnqpce111xIEAOAUtw0bpt59+hjOuj+vnNrU/bLLjJWpqWrXvh17DLxeUGAQIcCtdOna1bj9zjsIAgCgl15+WTVr1SQIAIAkKSYmRi+OedGp9+m15+xFREQY3y5YoLvuvos9B16tRVwLQoDbGTNmDGurAAAUFhZmvP46M3kBAJJpmpr00SSnnYL4J69ejMrf398Y9+qrxrTPp/GXInglm82m2267jSDglr9/P/rvR1wlEQCg/gMGGIMGDyIIAPBxr7w6Tq1atzacfb8+scp67z59jJWpqerRs4ccstib4BXq1K2jTz/7VF26djVIA+6oeWys8eZbbxEEAEAT33hDLWKbEQQA+Ki77r5Lw4YNq5JjV5+5fGB4eLjx1cyZxsSJExUYFMheBY92U1KS1qxd69QF94CqcOOQG42HHn6IIADAxwUEBBhTPvmU9+EAuNCbD+rWvbvGvvRSld2/zdcCHTZsmJHK7C14qPiWLbVg4Xd65913jFq1alFqwSOMHv20+lzThyAAwMfFxMQYH3zwgWw2G2EAPmzOnLkcj/vW7359PPVj+fn5Vdnxq0++qjSKijK+mjnTmPThJNbegkeoU7eOXp84QcuXL1ViYiKFFjyKrYaf8cGHH6pb9+6EAQA+rnefPsaENyYShI/r3KUz63D66vtCm01x8XGaPmOGHhwxgkC8XIOGDTTz61kKDQ2t0mNYn/5zyeDrBxvr1q/X7XfewV+O4JYCgwL1yGOPasPGjRo2bJhhq+FHqQWPFBAQYEz7fJratW9HGADg42655RZj1BNPEIQPqlmrpl6fOEHzv/3WaNiwAYH4oIYRDWWapuHn52c8/8ILxrTPp3FqopeqV7+e5s6bp4iIiCo/hvX5NqdWrVrG+PHjjaXLlqpzl87sfXALpmnqrrvv0oaNGzV69GgjODiYQgseLyAgwJg9Zw7lFgBATz71pPHIY48ShA+5bdgwrVu//uTi0dFNmxKKD2rcuMkpH/95oTdm9nuXevXraf633yo6Otolx7FMUzqhVevWxvxvvzU++exTxcTEEAiqhWmaum3YMG3c9KPGvfqqERYWRqEFrxIcHGzM++Yb9ejZgzAAwMeNHj3aePqZ0QTh5RI6JGjpsmWaMHHCKWvENmnShHB8UKNGkX/5XEREhDFn7hxj7MsvKTAokLW3PFzjxlFauHChy0otiWLrL/r27Wukrl6l1ydOUAOmx8JFTNPUvcPv1ea0LZowcYLhiumaQHUJCAgwPp8+XTclJREGAPi4Rx991Hht/GssC+KlB7dTPp6iRYsXG23atvnLe9sm0dGE5IOiGjcu9WvDhw83li1frsu6X0ZQHsghS+3at9N3ixapUVSUS49neQU5c8lgDBs2zNiwcaPGjB2rOnXrEAqqRM1aNTXqiSeU/vNPeunll43w8HAKLfjM79l33n3HeGHMixzMAICPu+POO40ZX8xQYFAgYXiBevXr6bXxr+mH9evVf8CAUt/bRlNs+aSznR0VHR1tzJk7x/jPB+9zHO5hBl53neZ9842q46wjjibK4O/vb9x3/33Gps2b9dr41xR5hmmTQGV/ob8+cYLStm7Vk089ecq0bMCXPPDAA8bceXN54wIAPq7nlVcaCxctYkkQD1azVk2NGTtWGzZu1B133mmYplnm+9vmzZoRmg+Ki4sr1+1uuOEGY8PGjfrHiH9wBU03Z7PZ9O/nn9d/J082AgICquW4lmKrHAICAow77rzT2LBxo/7zwftq174d5/2iUk/4Ptf00cyvZ2nN2tUaNmxYtT3xncnf35/BPcGPF91K6dK1q7EyNVW9evXidysA+PYBr5GybKmG3DSEMDxIvfr1NGbsWKVt3ar77r+v3O9vIyIasp6SjzFNU42jGpX79sHBwcbzL7xgrN+wXn2u6UOAbqhO3Tqa9fUsjXhwRLUe11JsVeyJaNxwww1GckqK8e38+epzTR9OoUG5XuxHPfGEtm7fps+m/V97dxrU5J3HAfz7BGIJV1jCJVcSgyKYIMoRojAQkK6Wks5Yg76za2tn3ZlOZ9Vtd0a3dmb7ajvTrVePbQWc8UIdIx5VbAVC8IBAPSAgR9iqhaCAhYRIbMBnX7i6s7vVeoRA8vw+b/IqmXl++d/P///7H2AKCgoYno+v1+zQ8vPzY+jowAMB/v4UhOcUGRnJVBw6yOzcuZOOohBCCJf70oAA5osvv2R2lZUiVBRKAZnGpFIJPvn7J7ja0vJMC1qPJqI+voxEIgUPdHCBKxLnzsXzzIPEEgmz/8ABps5goAuIppHlry9Ho9GIPLV6yisxrco8p+ycHGb/gQNMi6kV7//5fUTNjKKgkEf4fD40r2lwoOLAo+OG3pw/Sxwvpj8dQEyuRxNyAAAKD0lEQVRsLAXhBa1evZppam7G8teXUzAIIYTDtFot09DYCG2JloIxzWSpVNizby8uXb6Et9auZfz8/J57jJuSoqAdWxySlDT3hb6fuiCVOaLTMd9Vn0VuXh4FdIoIQ4TYVVaK8t27p01KHVrYekFxcXHMps2bmbb2dugqj0JboqXdBhzv6D/dthXmf/Zgz969zCtFRb+aX8Ab5KmpYwmPCAflSnON6Ohopnz3bubY8WNITqL8G67i4+YdxpQP4wE/gYCCMIlmvDSDggBgxgzvrG+RkZHMrtJS5ojuyFPn5SGT16ZrS7So0dfizLdnGI1G45ITCElJyR65Y8tnCk7t/CbU83cwZmZmuup3mOMnjjN1BgO0JVo6ReUmPB4Pv1uzBpevXIFWq51WFZdKgIv4+voyBQUFzK7SUuZaRwe279yBxdmLqZJxgFyhwAcfbkFLawvOfHuGWbNmDRMSEsKpBY631q7l/CRW89prVBlcLE+tZs5fvIh/fP0VpFIJBeQFxYvdG0NFioLzMQ8MCoT0CdeaExeUMwWVMwCQy+Ve/XxLCguZunoDPt22lS4bcTOpVIK/fvQROru7sKu0lElLS3PpGDdTmemRcZmKhdYUL2jv1Pn5Lv291AWpzK7SUubK1StY94d1tMFkEmWpVKjV67F129ZpefEZ7S6YZDdv3mS/OXkSJ06cxPlz5+B0OikoXlKxizXF0BQXQyyRUD0C8PVXX7Hr/7iec899HyyCg4Jw4cIFKguTyOl0svv27cPnO7ajrb2DAvIcPvhwCzZu3Oi2Mnqw4iD71ptvcjrmG/60EVu2bKF2YZLbBpUyC52dnZyNAY/HQ52hDinz53OirNntdra8rBxbt36Kfks/VYJJwOfzUawpxhtvvDHpuXOcTic7LznZo/7LJYVLcESnc3t9czqdbGZGBszdZo8sV+6Im91uZ3U6HcrLytDY0EiV2QUWpi3Epk2bUPjyy9O6j6HBlhsNDQ2xZ6rO4NixSuj1elhtNkqW6CECgwKRk52D3y5biqKiIkRGRtIf9wuO6nTshg0bMHB7gDPPHDUzCqWlpcjOyaEy4SZVVVXsju07oK+tpWA8JVmCDPq6OgQHB7u1nL7/3nvs5599zsmYLylcgn379+NFcs+Qp3OtvZ3VaDScXOTg8XjYun0bVq9ezbly5nA42IqKCnzx2ecwmUxUEVwgNy8PK1ethEajcWt/UW8wsCUlJR4xN5IlyHDym28wVblzr7W3s0VFRR431k5OSsTJ01VuTdvR2trKlpeV4fDhw7gzdIcq+DNanL0Y69evn/YLWg/RYGuK2O121tjYiJqaGuj1ely+dBn379+nwEwjC9MWQp2fj4L8fCizssCFXFmu4HQ62erqatTW1KCjowNWqxV37455xbOx9+/jJb+XEBQUDLE4Htk5OSguLsaz3gJEXOP6Dz+w5bt3Y++ePfTW/jH4fD6WvbIMf/v44ykbhFdVVbHlZWXo6uyC457D6+MdGxuHlatWYtWqVfD19aW2wU2GhobYHTt2oKa6GoODg17/vIH+AqQuTMPat9+Gq4+GeaJ6g4EtKyvDUd1ROh3xjDKVmSgu1kBbosVUXnRkMpnYv2zejOqz1VMyJ+Lz+fAP8MfExAR8fHz+7zNmZhSWvVqMd999F1OdcsST2ru4uDjk5uXhnXfembLx8vj4OFtvMKCi4iBOnDiOkeERqvi/4OEplOXLl+P369ZBLpd7VN9CA65pNCAz1NWhpqYWDRfO4VpHFy10udmcOXOQpcqCWq1GnlpNicAJ8ZSOeGKcPX/+Ag4dOozKyqOcfysXHhGOwsJC5KnVWLp0KbiW848Qwl1Wq5XV6XQ4fOgw7ep9DD6fj9y8XLxaXDwtTyE4HA52YGAA/v7+8PHxeebv+/n50U5Z8lhOp5OtralBZWUlTp06xalTJk+SpVKhpESLFVqtx44bqdJP447ZaDTCaDSisaEBRqORVpdd3KkvWLgAGRkZUCqVUC1aRMcLCfEC9yfG2abm71F1ugpnz36H75u/9/pnDo8IR05ODlQqFbJzcjBv3jxqywghnDc0NMSeOnUKxyuPwVBvwKhtlLOxkCXIUFBQgNy8POTm5rr9WDoh09XlS5fZ01Wnoa+tRWNDI2d2fPJ4PGQqlVj2yjKsWLECcXFxHt8mUKPmQcxmM9ty9SpMJhNaW1vR0tKCG9dvUGB+BZ/PhyJFgfnzU6FQyJGenoF58nl0tJAQjkxsGi5exPnz51FfX4+Wqy0ePWh52J4plUqkpaUjLT0NMpmM2jJCCHkCh8PBNhmN0Ov10Ovr0NzU5NUT2HhxPJRKJdT5+cjNzfWKSSshk+1hqqBz587h4sUGNDc3eVVO7HhxPLKzs1GwZAkKCwu9bkc/NXIezmq1siaTCWazGWazGV2dnTB3m3H9xnXOvZni8/mYnTALCXMSkZw8D8nJSZg7dy5kCQm0iEUIAfBgC7qp1YQrV6+gzWRCW1s72tpM03IretTMKCQmzsX8+SmQKxSQy+VITEyk9owQQl6Qw+FgTSYTmoxGNDY2os3Uhs7OTo9c7BKGCJGaugDpGenISE9HWno6nUIgxAXGx8fZ7q4uNDU3o7m5GaZWE9rb2zziFFVgUCDkcgVSUhRQqVRQLVo0pTn03IEaPS/W19fHXr9+HT/++CP6evvQ19eLGzduwGKx4ObNmxj+adijOnAej4eZ0TMRExOD2NhYiMViiCUSzJJKIZVKERcfDx6PR2WaEPLM7HY7a+7uRk9PD/osFtzq78etW7dw+/ZtWPossPRbXJ67K1QUijBRGGZGRyM2NhayBBmkEglmz54NiVRKR0UIIcSNnE4n297Whp6eHnSbzeju6kJ3dzd6e3th6bNMee5bYYgQMpkMMpkMScnJmDNnDuanpEAskVBfQYib59idHR3o7u6G2WxGj7nnwRx7EsaKT/LgwpoYxIslmDVrFiRSCRISEpCiUHCyXaCGkOOGh4fZ27dvY2hoCIODgxgYGIDNaoPVasXoqA0jIyMYGRnB6KgdNpsVP//sxNjYXTidToyNjWFsbAz3HPeeeoHs4Y0jAoEAAj8/BAQGwd9fgODgYAQHB0MoDEFIiBChoSJEREQgPDwMERERiIyKgkgkohumCCFTymq1sqOjoxgdHcVd+13YbFYMj/znzZ3D4cC9e/f+6zsz+DMg8BcgRCiEf0DAv9u2cEpuSwghHsLpdLL9/f2wWCwYHBhA/61buHPnDoYGBzE8PAKbzYqREeujsbJ91IZx58+wjzkwMTHx2Jv2BAIBAgICIBQKIRAIIBKJIBKFIVQUipjoaERHRyM6OgZx8XF0qREhHsDhcLC9vb0P5tYDAxgYHMTwT8Ow2x/MpW02G8bHxzEy8vhdX0KhEAAQGBiIoOBgBAQEICgwEKEiEcLDwhAeEYGwsDDamfk//gXJsgYjWn6BugAAAABJRU5ErkJggg==;" parent="1" vertex="1">
                    <mxGeometry x="60" y="110" width="127.19" height="110" as="geometry"/>
                </mxCell>
                <mxCell id="5" value="Events" style="shape=image;verticalLabelPosition=bottom;verticalAlign=top;imageAspect=0;aspect=fixed;image=data:image/png,iVBORw0KGgoAAAANSUhEUgAAAKAAAACgCAYAAAH8yFe7AAAABGdBTUEAALGPC/xhBQAAADhlWElmTU0AKgAAAAgAAYdpAAQAAAABAAAAGgAAAAAAAqACAAQAAAABAAAAoKADAAQAAAABAAAAoAAAAACEJDuzAAAO3klEQVR4Ae1dTeglRxHfJKshB0NCUFSiLEIUkhCM5OYtLgEFiclBD4IEWbzoIcnF6EF7c4qXzSp6kRCC4kGRSAgoiO4pNxfjVwQjyLL5+4GoCRshREi0fu8/9aypNz3TPTM9H+/9Gup1V3V1VfVveno+3kzPiRNMq0IgdET7JVf/X/BXO2EO+8NKeWNIytcL3XYy0YI2gvpVQpZXE69K4YXUCGFECQZQPlvl4OFg46QpwgCNKgXJrwihO0hh81v/gfFoClIDQgqb3/hPY72PsFEpbnO3xhvc1TiWhKoCuZYh0rLmkG0SAH2bEPKXNpL/K1fsThaMnpZrSrdV3GZr1WqamdAktsPmhSaFXJk1qG11GAQVRPLLETnFRGC1CNzkIsfumrrLuqbNbJZBVUZ+r9BzQlamLiDbHBtU0DffGKoaX6UTAfhgCLymIAUQUtj8Jv48nNsg0e4wNdvlNkuhqkSu5UoUhWq75VQxNYeDW7zyG14wlLebfqitXu3P9GrFRkSACJRAIHUutL6DZXqUh7bvdDnUgW9vj8Y6g+LaAVd5vVLo1SreSINSDQS2lTWd/qviXDnQ26aT21K9EOrszjHYVWexsA3S1LQfbGVtCAaxAFpdCgMjzmof28QDY8hq7gOu8TbA7Z4j5rdjIMtVf2UNSvNGSwhQ713oLQco2sDB75xPQpiRQobuCYsgUEMwTej5INWH6sbqPyaKP1HlPnnTXgxnlmAXgSidNWXUIWmdzwcFp4Y3HjJ+Pii6n8jQt6q4t/OkFbBMBIgAESACRIAILBsBnH3kpOtE+Ys5DZzuJeGfcrJR2TDQWlv7b4ptf5pXO2Ed6LtXc3+iq1t0K286Ye3lKbER/jr2SU9y35SKPwjd5xVy+JCjnKC7RarSfVzymmwMBC9WRmHYU+V3R656Wq/5Q1rQ3F40qSw3vyuhgY4tr1pDy1eCHwPBJrsxWWioUDQ1r6nEEPSGPF8zMoCJIbs1GQsQCqHSQq5liGzZ8laOvfUcKkulYAzHykYluWhtJTVKQfB7SZYKKcUCzO5pofgm34uz+xFDMNtQzwbBtfP8qCcL1rjuxVamsXiZ8pqrXi1vPNWpaRwzoUGWI/LtLW/LW5u6iT8vEp00/Yyu8m2jEQtAOrTZ0wD1VOeRSlmD8sfKptOlNvtddVmTOYLxD4f5ALscdtWHLgVf708W7L1p1dVN7vOPVgp4Fs/XKa82eue6idsM6OaO6bwnVjGG3COoPdfc+wheUJq3AQKpJvIx+MetfP2ofNfma3L2ZRG+takiQfao6GDGYCICRIAIEAEiQASIABEgAkSACBABIkAE4gj0uV6PW9utCbuiySXPiMfne3jFvVzcLtWE+wz4H/8/KpgiD+IENFcK4hiUm/SW2Q2mIf7Bhhx/FG+TvaW1FR5QQYHyuULwihYk13vi9xjZqP+NWLtLKYfEQPxUhluKrwsBWJsuCPMRK0i5LW31S5V9oCl+/iFKbzeKfWyY5rUi5jkLqtqugYcWSwHQBlvrSQbTx4YCk+Gmrrrvc2CQ7j5c7/K4XM4IRDCxpP8Hx+rnlOuyIk0xHInwZqGUkYg3OXZSDoDaOGihysG3BenUF8UO/luxD4AxBEKsQuRtdXgK54+mLXa52AbxuqbZPMU+AIZIqE1ylWkeaVoTZz0TUGs5A5MDYJghvsW73PejcPENkDMCiwczg4PQ4jPpzOLQAVT8PJDgYwcybbPJmwCc+zZOzlG4Tdd2NFhmzLIHUE8obxQneicCt3FwYX1eaOeRepGNnXKOwl26oQpOcx+ryjX39Z28B1AbKHjgcRvnaaEHK5JsJ/W5Dt0xMoMgDPXpAbxWDCbdxqkc64iNxRFiFfsi9wDqbRwFJnVkqX4qLkeiaC+jctvDj7eR6ntUPQ9gX+OpQMfsD20fs1tcXvpEOkgPcKTc2xQDELsHEnatNoJO420eVFQp6XxKldeWl951HhBATs0MyqPin48+z7wR6J4IEAEiQASIABEgAkSACBABIkAEiAARIAJEgAgQASJABIgAESACRIAIEAEiQAQOFIF9fzLha7JdXyu5bWPPxozh804xcmoMQwNs9F0lHq+74oOV9rkgPPq8k8Z6vG3HsAh0GclvSPlfTQqFZWGAfTxk6pO+/v8FW1FyBOo6iHOAZ/uYW9ZX+l+UhpjiQHhmHElBPObkt+QI3DpZaAELrOJNzVi6y1TYZ8aNePpl4WvOZ2bawENop1PiK7kLp/gvqYM3O68kONDdVPPbqzZ4M+E+IXziDq96IE36nGEQh6ClJj3CNsX3cxFqvc11Xt+22ecRuO1kjwIWl8BI/L1pixG6s+jOEgD8rgRmt3Jq2fTtxNd72LDtm8pYmrxp9e+a7hIA/KpEBNBy0l+c8mPCTzo/qf8lnMb8SYIZuiH/Kjau0U4l5rkbrdHs0MAbjR6ScJ8BxAs+ofTGXMIuXKqPqS/4DNqVUwHE1mwLqPiWLoAy3rD6caLdo5heKoBt4MVsL12OTzbj3G5QSgVQnQQtVLnnXfX+s7kAxhBpA7KtDvZs/eqmirmPwv5i/1kgGkleN6I2rbjkCAxVVzRP6RnW0MrRT7FZVCcXwFV1rihylfHUXbjtO4eL3LWmAA8+Ukfg6natqQBMHYFTxbM6PwRw4CYjgAMBTJ0DB7pZZPNRTtoPeQSOcn1/yCNQd4ughSr3vKuus0sDMGe36tLVnmYBoo1Sc78LJz+VlOogUy/nWrhNN9Ntf3U/ApOfSurvsrVlzgl7l26oPGnuHcfkXq+VtwDap5I+ULW6QfKXhfBUUu2xrqp+H7IwpBN2Fz5TGYo9lYT/DppoiP85245yfW9H4GXpza1Cp4V+NGfPJvLdNQUkhWFH4CerFk9L3vRUkj69pHmXg9Sno7rsrKo++akk6ZXuzkvtYJDAQEWTHYFwhKeS/l55/Lfk54Uan0qqdA4+s3OggvGOqoAHC1NSnz+m7d+JL4mTrqdFm+KwNprqJ5H5ETiF0yPn5HOOT2G9jZQ2RXSaRmCuo6EjYZQ/uHODHkt/jhE4VuyLsFMSQFzsh0X0smAQbbtwn4ODDXWU+23W4BLLTSOwa11o24/FTOY2qCnLTQDqpI6DQxfZ9fB93JcrwRlfMQF/0wQ+Ni6GHkHb4sTG+UqbwgR1l8THUyX9lAQQcQPEB4TeKzRlwvsceHjyV1M6pS8iQASIABEgAkSACBABIkAEiAARIAJEgAgQASJABIgAESACRIAIEAEiQASIABEgAkSACBABIkAEiAARIAJEgAgQASJABIgAESACRIAIEAEiQASIABEgAkSACBABIlAWgdKvB5eN/vj14zvEyYeE3im085280gFMbB+vPf9N6JdCvxGa5cNl4ne0tNYBiPfePyN0ajQk1mnokoT9HaGpByI+T4iVL+4R0rUHLkv5p0JPCOEThklprQPws9I77Tg6irVWsELkP8HsccLSI1jI0a7Mhg3/5AR9xtEFy7fcnejrgujhk+Y7Hx+17a+2zIrKdvAhbOx1+z740E/0EX21yWNh68Yq46u2rwnZwfei8PcLYTUqEMqQaYIu2rR+zHWtA1A7ybwfApiZsMalrtjalf9WdO1YwWDDqtg46rxaEcqQoU4T2vxAmab8ZJOQsr1HIPXjlzEgfharELmva52h7ahuscmqhSFwxcRjy0acVcS1QBvhW+s2XRQG3wPwCTLU2eRPGWxd8ufPao3IzI7AuYkjeFD84WiJj08gvV/o5U2p/edbUv1QmwpnwDZ0WGcRwFdPrhXCoHrTVrgyziehA120aU0cgMfwvE+yXwgB2K4T8iH1fxb79wrF0ruk4jmhN4SG+OlqG/PfJcctFQyqa4TsIdu2gxw6rbdftAEH4DESZyXD53oAXsn0bjHedk70iNR/WOhgtktpwEttzOAMe95Vk3UIYIa0aeg46G3vYPY0izbLy0GA9wGXsy1yIrlFlD9eNXhWcnzEbZWJM+AqN9uJT0vY+hcYykNT10VLV31v/2PPgLpnApychJupq96Tczq7AN0jieHmQnHAdnIaewbUPTM5gEoRA3aMPTnX76Hq40NDuPAoQW0fMdrBe+wZ0DsIXuD4rnqnTnbfECg9AHPxCrkNKv2+7boO/Tyl6LlBUpuNfQhO9bsUPRz69WqyKSbU5Z7Pwk6X3SZfBylb6wwY3NbyvKvuzZ7r3ZINkxAoPQBDUhRUOlgExj4ED3k2bUjbg92Aa+/42DMgD1lrHxETxz/2DDhx+HS3dgQ4ANe+BVcePwfgyjfg2sMf+xxw7XgcSvyLucHOGfBQhly9n4v5z54zYH3DHCoXOjreVd/RPF7NARjHBjWlDlV97caiDbGKpctTD8FY3+NxIax6pEsxoAxZ69ofUr/mVOq/4L5214xlY+xtM2DXaki3ikUQXlpGuiDUuRrSRnM9P6VurA+1GxyEnnfVO2yu/o6BsQSxAXi7OPi1kJ0hsfIRXhvUtT9OS/kxIbwlj3S3EFZDukMIsyPTehAIc4VqB5iN4fvC2Lr7hU9dDel3otv1DoHWY4UmzJpM0yIw5H/3IW13ehmbAf2KRjrr7RgQQVtdk76V4b0ErNQ09L1Ua5PlbgSGngJ0e0jUsLOcbfKEZaR8USh1NaTzotv1roEzn83avdCWsw2xwbwIxGZArGj0FqHRV0MaqbuL2YNH6s/BmonNgAAEC8ykrIaEBX2SV0OCYSYioAi0DUDo6GpIXs8eYrFSUvJqSOrY5XpRUirvutjJXbK2b5xdcThY9p/1A2tfe4yLnW+3dA510CmduuIo7X9x9mPngFMHOvdVcNbL1FODs8/+DmUG3OdtuOq+LWUGzAVR/8xHO64pk4vegvT7zoB9T8K13VAI9Hm268UQ15QZiuaM7VMH4FHBGEvaLhg2TY+BQOoheGkn6a9L53GPUhP+pXlFmT3Pb3T9AxarTXNfffYF7k5p2LbafF+7a2z3jAT9/BoDR8xrHYCI/TqhTwmdEjrEdEk6jaeW8AgcExEgAkSACBABIkAEiAARIAJEgAgQASJABIgAESACRIAIEAEiQASIABEgAkSACBABIkAEiAARIAKzI/A/bF/H9yD0UMMAAAAASUVORK5CYII=;fontColor=#1A1A1A;" parent="1" vertex="1">
                    <mxGeometry x="210" y="100" width="80" height="80" as="geometry"/>
                </mxCell>
                <mxCell id="13" value="" style="rounded=0;whiteSpace=wrap;html=1;fontColor=#333333;fillColor=#FFFFFF;strokeColor=none;" vertex="1" parent="1">
                    <mxGeometry x="505.62" y="210" width="120" height="38" as="geometry"/>
                </mxCell>
                <mxCell id="9" value="" style="shape=image;verticalLabelPosition=bottom;verticalAlign=top;imageAspect=0;aspect=fixed;image=data:image/png,iVBORw0KGgoAAAANSUhEUgAAAKAAAACgCAYAAACLz2ctAAAM5XpUWHRSYXcgcHJvZmlsZSB0eXBlIGV4aWYAAHja7ZhdciS5DYTfeQofgX8gieOQBBnhG/j4/lDd0kjasSN2wy+OWGlG3Sp1s0hkIjPR4fzrnzf8g6+iqYYqfTRtLfJVtWqePBnx9fV6TLE+P5+v+f4Tv3+7Hj7/kLlUeCyvX9t5v35yXX69odf39fX9euj7vc54L5Q+F36+it/Zn9t7k++FSn5dT+/fg77fMNuX47z/5/1e9r34z99rpxgmrFdyyKekEp+f+XWn4v9TmTz6z1xy9meD56nIc738sX7hs3S/KeDnsx/1ix87K7/K8Vro41jtR53e15P8uF4+b5O/7Sjlzzvnrzui0Cd+/fpSv3tt3Htep5u1BcrV3of6OMrzjBcuyvmqRuO781943p9v5XtAqg1qxlFXiItfNGUqflNNlma66TyPO222WPPJncecNxj4tVF61rwfMKp/p5t7KFoMRHLZIFe4nD/3kp77qt+Pmw3ubIlX5sRiydH8+h1+Xvir398WutdpnlIcn7ViX9n5xTYcOf/JqwAk3XdN5alvCq+H+PPLgS0gKE+ZBweccb2WWJJ+cas8OJcogZfW+OqX1O29ACXi3sJmUgGB2KB0ain2nHtK1HGAz2TnudS8QCBJkGzsMtdSGuCM7PfmPT09r82SX5eRF4CQ0koHGi0TsGqV2ui3AYVmkCJVRJp0GaIyW2m1SWutN9ep2UuvXXrrvY+ufY4y6pDRRh9j6JiatSBjErRp16Gqc3LTWSdrTV4/ubDyKqsuWW31NZauuaHPrlt2232PrXtatmJIQLBm3YapzZMOVDr1yGmnn3H0zAvXbrn1ym2333H1zk/U3qh+R+0ncv8dtfRGLT9A+ev6L9S43PvHEsnlRBwzEMs1gXh3BCB0dsziSLVmR84xi5pLKEUyuxQHx5IjBoL1pCw3fWL3C7n/iFugun8Wt/w75IJD979ALjh0X5D7I26/Qc3mI7flAci7kJqikIX2Y4Ex85hXtdxOqbL/Gv/EY/izb/h7ob8X+n9YaIdprci4Z++bTXKxc+6+uG+SuYRujZaPXclVUmlH8iRz0rD9IBSSe0Q8jpUWylgljpOba4Tb+6p3pkGPnjzN0EHMPElfvI82JsBmGfS5mzdOjiEt67nPMO/o62wShlrb+9C85fR4XLCW1TLTmXabRwAUMyOTRXcnaci1vFabLR01GaEXi3ehD7rTQRH3RiPXmUv17ItQ3V3asH5qb8rxiNMsZDr8qSdRf+QiUjsN2apa1sgiqSMiXIoqZopEax5V9qxnK3562MeysRvSh8CfkhOHvtMXOnby1lWo9UKkzqle/iObbaU+bvHgp/uaJVuDOjW7G90n+Nw21Hgdr8oBVWvl+s3Q1VT9/mxortZ3ratU0CwVMR1s5hzAsF6tLzlnzdsWZSGY5c2O9lr5oP1539p45epnjcGuamsGMzwVt5HGAT8jnFG0idySCNuV4urMwZMG2zhNJ7QdP2qVtgkYErkZ1S1oP0h2It5K5UraGyJwyHtwg4us7/Pi5Ay3bPT8G1UxEVwkrtlsApHERViEnNCkLJaopPue22TzJc8rXhEN7NO495gmCmXK3AIssIip5mYYhccKrJm73Tvqyt2PpdTZH7FXLXF3mE1hx4AbEHJlBaxxKcS1Bj4Zg5myurZ12qZrOk5mqwJ/v+ylquFxxngmpBHRi7XvTiUUuoiQ44AnNTUi3OU8647UOtBRNMpNnWictNf1hkpcnoecTeGz3fqiGww1QrJCSelVZjz4KnRKjabblZTlSZ6uvMAqYwAMJm5utYGTEC8o/qI8Nwp8aXNAI2int1JcWGDeDrJzZ6b62hpfHsOvC/QtFVXqo5eCOTClJa20tvWuMtbJsqQUIy55wLG02Nad+UTrQU50g0d5eoXNF5oyc5BjYj207CLuS2e/LlNjCcHmdlueBnqzLRZRjlzjCZDi3ocMAtlGb54AzZOx0H5bgZMH6kxQc4odqgA9ST2mNC0l5STsO7Dfccbdx5CK8yLmokfb4IEm5KVXV48oD5gyWikCdJ1DLCgmzOUuniuUtSIxK2mut014XqvO6yTK0S6LHUoHQcxGmk2JQ2BcjpQxKWMZTF4NqpxAAzG+rQnToBd6DBWQQ2QnN97QSkJAXPHQEPZwXXCf7oBb4H58KTLhCMifw4LKb6PHylSmsdbXUnpkkha9iceGEw+/7ySQMTgoiA54h2ozuNXkOzrdVbF6/gPRCunOsrYY/ZBbhkHPZzmvKTseom2yjXyoK/bssdBdgD1umMqASKiNgNo83EL7DV59XaNPTTcxsO2TlXujQNGIlsdvETGZEwFwQizi8dour5cc6NJLouSIaBNEx6T6Sioob2PUV39ns+asQgLKfRuAq8YYQVCtecHH0NKGrk/FvdIgLp9r6CmedEimG9jRQqbQhV8q/IZcqU/BULyvwzj0OOGdN2XewylBhblBc2ctrAoXpthYDnEal3Vd2WbGvWfHxKxgjHPXIJxwKFTLBGEokAy+QxJ7BBS3BUVyvpYzEWTEziflbHHwr1nCnjijYkcupMLeSifL53MyZEOtDmWCMmnivYnOWqfqgimWKN904z+jewQYmq3uMoMmMn+sPCeXc3r3YVCF8EiZrAInOySO0wuHG8ASRgjpFwegEykq8+mGkOlbHCjO+10cvULuRyjWoePh8CwIZsyAjUtOBJZe2YCK3o6EZoYt7J9WQufqo0xSk7XXM/+Y6fePHXXHkbA9A8+YWgx7U/ThFAKl1H10wYiZwkuufW/GNLYmG33VuXurcKiOSN04JypAlxS0G2Fj/jlEAhw+0ZWXt5CeYNKtiFR2WzaqyrAOVwgOOzcpmbY4zbAJKp2h1LoFzb5AXlyVkRdr/qEKHiI+0SmOvPZyCIkrTr1OIuPGoKcubEqco0F33AmpJUtgQmonofnMblcnxu0CooJ21ntwWbrECTYLSpGjtwHHSzIACRekAcJBJkh/hArUCS4QEmmI1pFBWs6qt25aDI5sjMl6uTZGdGGvyZ/5x8Eoew8oKUPtq/tOI2wQGHHIGp+el+fjljUpt9L0A41E/wwPGXAePmjbTtd9XWopaWGipVSbmZvQgLw6MYltMKFyorGR9/GZPL1QqUSzuJa/gf5OAYozUq5ksR/4VlFENpD3aoBKlIi5MnOj21DYjzVRPSegiE+8lgrOnNPUwFtWwvZwZjbZyVDleQOGSce6lL3CZnplzf0ja3ZO/KTNQHD9CJwy4WDB1mghckTLg9IkGHDZsz0xRl3jkKS2RTjfcLcoxKergf6O/pI6DAp2vyVct0GrOqwQ/sbKO/2jIb+DBwlSEY2YBaiZ75WW6BunrYvWGSCOrUcEmLiIMq58MRK0Ewd8DeDF8zhTB04Kq5nnKw7aEzGlX2SENKevMspZBJc5R9Wd66yLSaLlNqp/iNVg+pPGa4/Xp4HIuHGjEranG88O3QVoeFQiZlI+AtICq+IuQxLZtbsVbdQHerkAAthAEiucQ7evJ5VT6P5JE5EH5XFhCM0kkGA3ci2AiLqTlslIA5t7YsE+5UCo57T+KfjHY/h+YaC13JjUgPIiNOgiWQPsiG24OiKLPGCkLWLB6Kb30fBWsIDSFc5EOZjCUI7Y10DoHxvFFgiApj7MxYsD6iw6rNTDCMdsR4tyZI9EQwKtmvljo6OIwXU0BNLILJV0KsSpelNcdmolvMbZylCITyYlMk7VRRwsWKasoDVSMzh+NladjjNzK6hmz56TsyH1FBQgBZQpL8Gw3jFIByht07kqx7OAZhEYMVPuHY9fJ84r3l4TI5Bu5zT8YAJBdA4TAZ7BaAIjyDKJWaE3CtdjICVvbzMlFiBvj7sSodEw9c+xwK6/rYBc+eEPkI7TIaRUgz5HTAz4UY+HPWO8W6U0b5XOeOSD0jtjuh+ycjZ63SqzVMHHgeUs/L+3FlAQiIEOKmbAxnw+y6RSdCTjhEt8BMfYPC+hS9vzJm90uyNbxu2fo1/+HogzTCgHpbqYFKrqI/jwnooTtaxuKv7x2faRpp73SKPP7rM7bj3XI3JgeCGfwGsPEP5hoSexRCPTWERT72x4nyG9kX6nuzBTKmzztt6oMTwHbnyN4/Yv2bNfHIhAis0Tpjx5Po3BVaE2wEkaAIs0PONkxhTuSsCRQKJfH8mLSPCBCjJMFZsfoA1iCVe7Z2P4dnD3hTOScKMTh1m/5BLIWP4ZBbkcsW9s1z/gxrd8ie6w1Fc9UvQVjkcViEWcLD4D+EeRZBviU0DETZ6M2Ogfosgz+F4GB3BewmhCusBqEyGQkhjz3Yj2BG4iCs4K54kKLcRqrFldi8RXZApDMnwiJ20TGhhewJVX+FiOGrVFxmGuAfpf40b9g4z89ce/F/p7of/nhfzThRjDvwFXCe5YyayXAgAAAGd6VFh0UmF3IHByb2ZpbGUgdHlwZSBpcHRjAAB42j2KOw6AMAxD95yCIyR2CuU4VcvAxsD9hfkIW/GL4th+nN2mRzkbayLXHJ7yLyC6g4vWRtA1gSHeCb5tV7sxWNkYxiI4qYfvxGIX9TsXYBaRg88AAAGFaUNDUElDQyBwcm9maWxlAAB4nH2RPUjDUBSFT1NFkYqgHUQdMlQnC0VFHLUKRagQaoVWHUxe+gdNGpIUF0fBteDgz2LVwcVZVwdXQRD8AXFzc1J0kRLvSwotYrzweB/n3XN47z5AqJeZZnXEAE23zVQiLmayq2LXKwIIox/DiMnMMuYkKQnf+rqnbqq7KM/y7/uzetWcxYCASDzLDNMm3iCe3rQNzvvEYVaUVeJz4nGTLkj8yHXF4zfOBZcFnhk206l54jCxWGhjpY1Z0dSIp4gjqqZTvpDxWOW8xVkrV1nznvyFoZy+ssx1WiNIYBFLkCBCQRUllGEjSrtOioUUncd9/EOuXyKXQq4SGDkWUIEG2fWD/8Hv2Vr5yQkvKRQHOl8c52MU6NoFGjXH+T52nMYJEHwGrvSWv1IHZj5Jr7W0yBHQtw1cXLc0ZQ+43AEGnwzZlF0pSEvI54H3M/qmLDBwC/SseXNrnuP0AUjTrJI3wMEhMFag7HWfd3e3z+3fnub8fgCJTnKw6vp3gwAAD1lpVFh0WE1MOmNvbS5hZG9iZS54bXAAAAAAADw/eHBhY2tldCBiZWdpbj0i77u/IiBpZD0iVzVNME1wQ2VoaUh6cmVTek5UY3prYzlkIj8+Cjx4OnhtcG1ldGEgeG1sbnM6eD0iYWRvYmU6bnM6bWV0YS8iIHg6eG1wdGs9IlhNUCBDb3JlIDQuNC4wLUV4aXYyIj4KIDxyZGY6UkRGIHhtbG5zOnJkZj0iaHR0cDovL3d3dy53My5vcmcvMTk5OS8wMi8yMi1yZGYtc3ludGF4LW5zIyI+CiAgPHJkZjpEZXNjcmlwdGlvbiByZGY6YWJvdXQ9IiIKICAgIHhtbG5zOmlwdGNFeHQ9Imh0dHA6Ly9pcHRjLm9yZy9zdGQvSXB0YzR4bXBFeHQvMjAwOC0wMi0yOS8iCiAgICB4bWxuczp4bXBNTT0iaHR0cDovL25zLmFkb2JlLmNvbS94YXAvMS4wL21tLyIKICAgIHhtbG5zOnN0RXZ0PSJodHRwOi8vbnMuYWRvYmUuY29tL3hhcC8xLjAvc1R5cGUvUmVzb3VyY2VFdmVudCMiCiAgICB4bWxuczpwbHVzPSJodHRwOi8vbnMudXNlcGx1cy5vcmcvbGRmL3htcC8xLjAvIgogICAgeG1sbnM6R0lNUD0iaHR0cDovL3d3dy5naW1wLm9yZy94bXAvIgogICAgeG1sbnM6ZGM9Imh0dHA6Ly9wdXJsLm9yZy9kYy9lbGVtZW50cy8xLjEvIgogICAgeG1sbnM6eG1wPSJodHRwOi8vbnMuYWRvYmUuY29tL3hhcC8xLjAvIgogICB4bXBNTTpEb2N1bWVudElEPSJnaW1wOmRvY2lkOmdpbXA6YTYzNzRjMjYtMzI2Ni00MDRkLWIwZGMtYmJhZjcyNTFjMDQwIgogICB4bXBNTTpJbnN0YW5jZUlEPSJ4bXAuaWlkOmRhNWJiNDVlLTA0ODItNDVkZS1iZTc5LWRlZDdlOTk3NGRhMSIKICAgeG1wTU06T3JpZ2luYWxEb2N1bWVudElEPSJ4bXAuZGlkOmI3YzkyZDYyLTE3OTMtNGJjZi04MWEwLWI0ZGJkNzZhMmQxZCIKICAgR0lNUDpBUEk9IjIuMCIKICAgR0lNUDpQbGF0Zm9ybT0iTWFjIE9TIgogICBHSU1QOlRpbWVTdGFtcD0iMTYxMTM1NzMwMzg0NDYzOSIKICAgR0lNUDpWZXJzaW9uPSIyLjEwLjEyIgogICBkYzpGb3JtYXQ9ImltYWdlL3BuZyIKICAgeG1wOkNyZWF0b3JUb29sPSJHSU1QIDIuMTAiPgogICA8aXB0Y0V4dDpMb2NhdGlvbkNyZWF0ZWQ+CiAgICA8cmRmOkJhZy8+CiAgIDwvaXB0Y0V4dDpMb2NhdGlvbkNyZWF0ZWQ+CiAgIDxpcHRjRXh0OkxvY2F0aW9uU2hvd24+CiAgICA8cmRmOkJhZy8+CiAgIDwvaXB0Y0V4dDpMb2NhdGlvblNob3duPgogICA8aXB0Y0V4dDpBcnR3b3JrT3JPYmplY3Q+CiAgICA8cmRmOkJhZy8+CiAgIDwvaXB0Y0V4dDpBcnR3b3JrT3JPYmplY3Q+CiAgIDxpcHRjRXh0OlJlZ2lzdHJ5SWQ+CiAgICA8cmRmOkJhZy8+CiAgIDwvaXB0Y0V4dDpSZWdpc3RyeUlkPgogICA8eG1wTU06SGlzdG9yeT4KICAgIDxyZGY6U2VxPgogICAgIDxyZGY6bGkKICAgICAgc3RFdnQ6YWN0aW9uPSJzYXZlZCIKICAgICAgc3RFdnQ6Y2hhbmdlZD0iLyIKICAgICAgc3RFdnQ6aW5zdGFuY2VJRD0ieG1wLmlpZDpkOTM1ZThlZC01YjUxLTQ4NzktODkzOS0wMmIyNDJjOTg0YjEiCiAgICAgIHN0RXZ0OnNvZnR3YXJlQWdlbnQ9IkdpbXAgMi4xMCAoTWFjIE9TKSIKICAgICAgc3RFdnQ6d2hlbj0iMjAyMS0wMS0yMlQxODoxNTowMy0wNTowMCIvPgogICAgPC9yZGY6U2VxPgogICA8L3htcE1NOkhpc3Rvcnk+CiAgIDxwbHVzOkltYWdlU3VwcGxpZXI+CiAgICA8cmRmOlNlcS8+CiAgIDwvcGx1czpJbWFnZVN1cHBsaWVyPgogICA8cGx1czpJbWFnZUNyZWF0b3I+CiAgICA8cmRmOlNlcS8+CiAgIDwvcGx1czpJbWFnZUNyZWF0b3I+CiAgIDxwbHVzOkNvcHlyaWdodE93bmVyPgogICAgPHJkZjpTZXEvPgogICA8L3BsdXM6Q29weXJpZ2h0T3duZXI+CiAgIDxwbHVzOkxpY2Vuc29yPgogICAgPHJkZjpTZXEvPgogICA8L3BsdXM6TGljZW5zb3I+CiAgPC9yZGY6RGVzY3JpcHRpb24+CiA8L3JkZjpSREY+CjwveDp4bXBtZXRhPgogICAgICAgICAgICAgICAgICAgICAgICAgICAgICAgICAgICAgICAgICAgICAgICAgICAgICAgICAgICAgICAgICAgICAgICAgICAgICAgICAgICAgICAgICAgICAgICAgICAgCiAgICAgICAgICAgICAgICAgICAgICAgICAgICAgICAgICAgICAgICAgICAgICAgICAgICAgICAgICAgICAgICAgICAgICAgICAgICAgICAgICAgICAgICAgICAgICAgICAgICAKICAgICAgICAgICAgICAgICAgICAgICAgICAgICAgICAgICAgICAgICAgICAgICAgICAgICAgICAgICAgICAgICAgICAgICAgICAgICAgICAgICAgICAgICAgICAgICAgICAgIAogICAgICAgICAgICAgICAgICAgICAgICAgICAgICAgICAgICAgICAgICAgICAgICAgICAgICAgICAgICAgICAgICAgICAgICAgICAgICAgICAgICAgICAgICAgICAgICAgICAgCiAgICAgICAgICAgICAgICAgICAgICAgICAgICAgICAgICAgICAgICAgICAgICAgICAgICAgICAgICAgICAgICAgICAgICAgICAgICAgICAgICAgICAgICAgICAgICAgICAgICAKICAgICAgICAgICAgICAgICAgICAgICAgICAgICAgICAgICAgICAgICAgICAgICAgICAgICAgICAgICAgICAgICAgICAgICAgICAgICAgICAgICAgICAgICAgICAgICAgICAgIAogICAgICAgICAgICAgICAgICAgICAgICAgICAgICAgICAgICAgICAgICAgICAgICAgICAgICAgICAgICAgICAgICAgICAgICAgICAgICAgICAgICAgICAgICAgICAgICAgICAgCiAgICAgICAgICAgICAgICAgICAgICAgICAgICAgICAgICAgICAgICAgICAgICAgICAgICAgICAgICAgICAgICAgICAgICAgICAgICAgICAgICAgICAgICAgICAgICAgICAgICAKICAgICAgICAgICAgICAgICAgICAgICAgICAgICAgICAgICAgICAgICAgICAgICAgICAgICAgICAgICAgICAgICAgICAgICAgICAgICAgICAgICAgICAgICAgICAgICAgICAgIAogICAgICAgICAgICAgICAgICAgICAgICAgICAgICAgICAgICAgICAgICAgICAgICAgICAgICAgICAgICAgICAgICAgICAgICAgICAgICAgICAgICAgICAgICAgICAgICAgICAgCiAgICAgICAgICAgICAgICAgICAgICAgICAgICAgICAgICAgICAgICAgICAgICAgICAgICAgICAgICAgICAgICAgICAgICAgICAgICAgICAgICAgICAgICAgICAgICAgICAgICAKICAgICAgICAgICAgICAgICAgICAgICAgICAgICAgICAgICAgICAgICAgICAgICAgICAgICAgICAgICAgICAgICAgICAgICAgICAgICAgICAgICAgICAgICAgICAgICAgICAgIAogICAgICAgICAgICAgICAgICAgICAgICAgICAgICAgICAgICAgICAgICAgICAgICAgICAgICAgICAgICAgICAgICAgICAgICAgICAgICAgICAgICAgICAgICAgICAgICAgICAgCiAgICAgICAgICAgICAgICAgICAgICAgICAgICAgICAgICAgICAgICAgICAgICAgICAgICAgICAgICAgICAgICAgICAgICAgICAgICAgICAgICAgICAgICAgICAgICAgICAgICAKICAgICAgICAgICAgICAgICAgICAgICAgICAgICAgICAgICAgICAgICAgICAgICAgICAgICAgICAgICAgICAgICAgICAgICAgICAgICAgICAgICAgICAgICAgICAgICAgICAgIAogICAgICAgICAgICAgICAgICAgICAgICAgICAgICAgICAgICAgICAgICAgICAgICAgICAgICAgICAgICAgICAgICAgICAgICAgICAgICAgICAgICAgICAgICAgICAgICAgICAgCiAgICAgICAgICAgICAgICAgICAgICAgICAgICAgICAgICAgICAgICAgICAgICAgICAgICAgICAgICAgICAgICAgICAgICAgICAgICAgICAgICAgICAgICAgICAgICAgICAgICAKICAgICAgICAgICAgICAgICAgICAgICAgICAgICAgICAgICAgICAgICAgICAgICAgICAgICAgICAgICAgICAgICAgICAgICAgICAgICAgICAgICAgICAgICAgICAgICAgICAgIAogICAgICAgICAgICAgICAgICAgICAgICAgICAgICAgICAgICAgICAgICAgICAgICAgICAgICAgICAgICAgICAgICAgICAgICAgICAgICAgICAgICAgICAgICAgICAgICAgICAgCiAgICAgICAgICAgICAgICAgICAgICAgICAgICAgICAgICAgICAgICAgICAgICAgICAgICAgICAgICAgICAgICAgICAgICAgICAgICAgICAgICAgICAgICAgICAgICAgICAgICAKICAgICAgICAgICAgICAgICAgICAgICAgICAgCjw/eHBhY2tldCBlbmQ9InciPz7kFVr2AAAABmJLR0QA/wD/AP+gvaeTAAAACXBIWXMAAC4jAAAuIwF4pT92AAAAB3RJTUUH5QEWFw8Dxbf54gAADJFJREFUeNrtnEtsVNcZx39jz4zH4yd+kRhsDAYcwIZCCQ2N2oa0qpQmtJUqse6+i6pSF2m7oKyK1EWrbip1nRWLVmqL+qIiIaEilEdCbcAYsB3bYALGxs/xzHimi+9c7oQQwPa8GP1/UiRiwfU95/7ud77znXNuIA0BhCgQZeoCIQGFBBRCAgoJKIQEFBJQCAkoJKAQElBIQCEkoJCAQkhAIQGFkIBCAgohAYUEFEICCgkohAQUElAICSgkoBASUEhAISSgkIBCSEAhAYWQgEICCgkohAQUElAICSgkoBASUEhAISSgkIBCSEAhAYWQgEICCiEBhQQUQgIKCSiEBBQSUAgJKCSgEBJQSEAhJKCQgEJIQCEBhZCAokQFbINIFNqisL4Bag9A+REIPA+dcAjKNkJFNbRUQkcltNdD/V4IPk9t2ALhWmishPZKaK+Bpm4IHSriQBNIZ6GDuyHUD/uS0A2kgUVgpBL634LbxyBVrB3wAkTvQ08C1gP1QNi1YQEYj8C1V+CTk7BUrG3ohtAAdMVhM7AGiLg2xIF7YehvhaFBey6lJ+AaqJuC79vzpBz/mrPApVY4M2YPtGg4AOVnoC0Gr1oAJ8jnX5QyYB7ob4BTEzBTbFHvOKydh/1ApxPv0Rel3L1MQ9Xw3gzcLTkB90LwEuxJwJdcJ9S5NxAn49VKOD0Pt4olYvTDy0l4BajMeGHiwJwTrzbj/gGGI/DB2zB02G9bQQlbn3/VRT2PJDDt/lybERDSwEQF/PtnMFAsbciKgN5QNgntaahMwFpgi+uYtOuUy63wz2KIhBHoXITvuCHXSxnGg3CzDKbTUJ6ARteGFvd3AsC1WvjHA5gsdBui0LoAB9394aL3GDAYcveXhvqkDcut7v4DwGAlnJyH0ZIS8As66BVge0YHnf4lnCrk21cDTbPwA6DJPZCZMJyog6FPLfo9pBrWzllU3+MiCcDlHfCXXkgUqg0NUDsJ3wPaXRviIXivGq7c96Pfw787A7uS8LKL9mXAyBr446N/t6TKMPNwqwOOA+cycpFXfwWbCzWzrIWGWfgm0Ozu50EFHF+EvkflcwnsndfgRBDec1E8AGy/BjsP+ELmfdI0CfuADe75xUJwIg4fPk6o+zCdgPdDcMK1AWD9JOzbYhOu0hQQYBAWa+FD4FPv9y3Crt/bm5h3FuAl9+AAFoJwYT8MPunfnISleriEP2SlErD9rEmcdybt/rsz8r3LG6D3af9uK1zB/vPYNgovFrrMlPP60AOYDMMH9kfSQOcdGw7yPfQ2J20orXA/6m2Ei89SXrkLsxE4Bdx2fdY+D7s2+tfKC20QiVv0q3F9OdAEpwZs8vREeiFRA6eBEfejuhh843dQXdICYpn8QNCG4jQQAnZGLTHOW8llFna5SUcKuFsFF8atxPKs0fOTEJx3E5YA0HMLOvL5sO7ANpf3AcQicPaulbqeiWmYCNtzmHHPYv2MXbO0BeyFRASuAVOu4fUJm53lhfMm3qaMNg/Mwp3lXqcOBjLSico4bM3XKkM3hBI2oUt70W89jK8gDx7C2gFQloCte60GWroCAvwUJoDrXh6VhM4Gv9aWMw5BWczypmYXueain82FlhNJ50PwP/y8adPfP1uDyxk3YJ3NQWyFowIuP8vQ+7h0ogL6MyYka3vzHMkLIuBhSFfDRRvNKANaZ/PQ8H9BTeKzSXvvnOVyy+YYpOrt4Y07EWoX/GvnjHVQGYMul7+WAUObYXil1/uuTbyG3ItUsQgvFWpGnNdF6jcsCo54ESQBG7otJ8wJRyAwb7mmV6ydicDV1VzzR5Y3fuLasJSEthaoymW/Tdg6dZtXHQrBjdXUIY9BKgQ3sQgaANrGbfWqtAU8Bqkw9OEvincMQmOuSgHvQCgOPdjyYAC41uTncCuO5BWWStzzhrCpHOazh6x0tTHjJbpdZ1F4VUQtD7zr+qVxETbmMhgUhYAA1RYBr7rfXTcPe97JUcNHLW/yJh+xSugdgdhqr7vfhq9+NwxHEtCVq3z2b7Yk2OX6KxWGvuXMfL+I3TATggsuCpKAPYO2OlTaAu6E+bBFEG9loSNX4T9m8nnbq0bXZGkN9yQsVVgONuuu3TrnD5FZJW4TD2+iM1u1itzv0TZU2rW8+mxjIo+lsYIJ6Bo+5soZS1hBNOtD2AsQdTWzJaAsCEPZ3AjRZpH8jnuJquLQnu1U4gCUx21DRMo9q8EfZ3FL2Ba71s3Mkky+V0YKslN2CqaCfh5TnoSt2c4/Ji36rXX/ey8CN7J5/QGIh/1yTgDo/E0WI/kRCHwIL2L7/ADiEejN5kaOc5CMWC7orQa1H81RJC8qAQGCFkEWXfhfeyOL4b8ZquMW/cqcHGNuBp5V3HA47X5Hw4LlnFmbQLm164j70XiNP/HJGg0WxcdclA3HLOKWvoBN1vB77uGFk9CWrYr8tIngbTpYDMFwLo4F7LIdNCPuJUrHYXO2Ivm4TWo6nBhpYPS1HOyldGmJt9FiCVjn0pfSFnAEYkFbnkthKyPb+rIQBfdCMG6zxkbXvtt1WR5+M/NZNwwnnCSbbmQpCsYs+jW7696KwECuztZUWjrkRfJ1k7AhX7lgQU9LRWw2PI3trVubhI7V7rO7auJ5pZdUCPq6c7gLu8pWVYacKFWxLKyttkBV0tpQ7iZQN3bYMJkTttuEcNS1oSwOW3+bh2XSggvYZPJdd1GQJGy6aFuNVlO2aMffYjQdhcFcnmi7D9MhW9ryhsoNl/2i8WpSCO8owHwQhs/5a7dZ5xwkw1abnfMi+byVf0pbwB9CPAof2aSVNLBuzoaeFU8+ErA7Y6Jz6SdW58opUUslrrs2NC/A7pUOYRttbbYHW/cNAMMH/T18OWOL3f9N9zur47ArH+vDBRXwMKS32URkIKMk07PSJPgBbMWPPgshuJ6P8ydTMOXWVr0TaJ2/XuGO6Tt2/53u2SyF4Uo+zlX3QqICLmc40TlqZaDSFRDgICxF/JWRFNB030RaFjXQlLDNld4JtpvrclC2eEI+O+QieRlQvQhdy42CLVC1ADszot+tuiytfDwLjXZsdtj1YTAGPbk++1JwAQ9Deoe/PpwGAgn4cs0yIkg3hGb9gzppYCwCH61kv9wq8rYJCyTWhiTsPgrty9mwOmlDb7d7EWfCcPZxh6VyxRgshG3XtxcMtp2G7lzOiIvimyGuIn8Rm40FsL2CX1vzjCsLA7aU1+21JwQfv20RKa/UWT476u6jPgavH3/GCUklbEjaIXMv+vW1+stkeaPFSlbDrg0VCdh/1K+plqaAADvgVtCPgmmgcxZ6nhZBaqExDl9xDy6Nnfe4Xoizx9+2GfFlrC6YAtbNw56nlWWaoTpmETzqRb8IXC3Et1xGIBa2Xd/e8YnGGOxtztHhpaIR8BwkW+zATJ+XViXh63+CVx+34fMAlEegc8a+cOAVf+MV8O5kHma+j+MYpNbBx0H4jxMpAOw9D29+UTSPQts9eAN/9p8KwZkF2/RaEH4OfSE4k9GGbffgjWpoyfZwnLMvI6yUeqh/AG9hy1AB1wnDQRguh1sBWEpZmWATNlnxosZcCE7/Av5b6O+etEFk1F6M7fj9OwYMVcBIABZTEI3b0NaFf1ovAVzYAe8W8ssLYCtK5+F1bHTBteMuMBi2ZzFdC5PLOVn4XAjoZpRbF+0LBo0ZP064DljCImITfnliCTjdDOfzmbQ/pTa4fgG+ZT4+fCGWsJl53Jr58PMg3mh0vgbOTOdg48RKqIXGGXsOXRltSLs2zAJ3OuD91aQKRSkgQDW0zNm3ZV7C31SaGdm8+54KwZmd8HEuVwtWgvuGyz7sTHKUz6/IeB8Mmg3Cf7vgbKEj36O8ANEJ2JOEvVbterjik3KTp3dW86GjohXQK69cg+6EDbV1+Gc7kthmytEoXFnpKbd8cAjK/gwbF03CNU5EL7WYdyWjqwt5rPctlyMQOGrfUuyxiTLVrg0T9fDX1eTcRS2g9wBPQWQa1iyZhGUBWKyAe1tg5iAsFcu37p70AP8AkQdQm4AGrLibCMNEF0w9D23w8sJ+qI9balQehPtvwqerWakpegFFaaOv5AsJKCSgEBJQSEAhJKCQgEJIQCEBhZCAQgIKIQGFBBRCAgoJKIQEFBJQCAkoJKAQElBIQCEkoJCAQkhAIQGFkIBCAgohAYUEFEICCgkohAQUElBIQCEkoJCAQkhAIQGFkIBCAgohAYUEFEICCgkohAQUElAICSgkoBASUEhAISSgkIBCSEAhAYWQgEICCiEBhQQUQgIKCSiEBBRFxv8BhMRel6sEEy8AAAAASUVORK5CYII=" parent="1" vertex="1">
                    <mxGeometry x="310" y="85" width="160" height="160" as="geometry"/>
                </mxCell>
                <mxCell id="14" value="" style="rounded=1;whiteSpace=wrap;html=1;fontColor=#333333;fillColor=none;strokeWidth=8;strokeColor=#1A1A1A;arcSize=7;" vertex="1" parent="1">
                    <mxGeometry x="499.24" y="110" width="130.77" height="90" as="geometry"/>
                </mxCell>
                <mxCell id="15" value="" style="rounded=1;whiteSpace=wrap;html=1;fontColor=#333333;strokeColor=#1A1A1A;strokeWidth=8;fillColor=#1A1A1A;" vertex="1" parent="1">
                    <mxGeometry x="519.62" y="200" width="90" height="18" as="geometry"/>
                </mxCell>
                <mxCell id="16" value="Localhost" style="text;html=1;strokeColor=none;fillColor=none;align=center;verticalAlign=middle;whiteSpace=wrap;rounded=0;fontColor=#333333;fontSize=18;" vertex="1" parent="1">
                    <mxGeometry x="510" y="220" width="110" height="30" as="geometry"/>
                </mxCell>
                <mxCell id="11" value="Hello !" style="shape=callout;whiteSpace=wrap;html=1;perimeter=calloutPerimeter;fillColor=#dae8fc;strokeColor=#6c8ebf;fontColor=#333333;rounded=1;size=20;position=0.29;base=15;position2=0.09;arcSize=8;" parent="1" vertex="1">
                    <mxGeometry x="580" y="85" width="70" height="55" as="geometry"/>
                </mxCell>
            </root>
        </mxGraphModel>
    </diagram>
</mxfile>